<?xml version="1.0" encoding="utf-8"?>
<!-- Generator: Adobe Illustrator 23.0.1, SVG Export Plug-In . SVG Version: 6.00 Build 0)  -->
<svg version="1.1" id="图层_1" xmlns="http://www.w3.org/2000/svg" xmlns:xlink="http://www.w3.org/1999/xlink" x="0px" y="0px"
	 viewBox="0 0 343 243" style="enable-background:new 0 0 343 243;" xml:space="preserve">
<style type="text/css">
	.st0{fill:#262418;stroke:#3D3B26;stroke-width:0.5;stroke-miterlimit:10;}
</style>
<path class="st0" d="M51.8,105c-0.2,0.1-0.8-0.1-1-0.4c-0.1-0.2-0.6-0.1-1-0.1c0.1,0.1,0.2,0.1,0.2,0.2c0.2,0.4-0.8,0.4-0.5,0.9
	c0.3,0.4-0.8,0.5-0.8,0c0-0.5-1.1-0.2-1.1,0.1c0,0.1,0,0.2-0.1,0.4c0.3,0.1,0.7,0.2,0.8,0.3c0.2,0.1,3,0.4,4.1,0.2
	c-0.1-0.2,0.1-0.8,0.1-1.1C52.7,105.2,52.1,104.9,51.8,105z M119.8,32.6c1.8-0.2,1.7-1.2,0.8-1.4c-0.9-0.2-1.1,0.6-1.5,0.5
	c-0.5,0-2.2,0.3-1.9,0.7C117.6,33,118.9,32.7,119.8,32.6z M166.1,36.1c0,0.5-1.5,1-1.1,1.4c0.4,0.3,0.7,0.2,1.2,0.3
	c0.5,0.1,0.7,1.3,1.5,1.1s3.1,0.9,4.5,0.9s1.5-1.1,1.1-1.2c-0.4,0,0-0.7,0.7-1.8c0.8-1.1-2.3-1.9-2.3-1c0,0.8-0.9-0.2-1.2-0.7
	C170.2,34.6,166.1,35.5,166.1,36.1z M128.9,58.8c0.6,0.1,2.3-0.2,2.4-0.6c0.2-0.3-0.7-0.7-1.7-0.7C128.5,57.5,128.4,58.7,128.9,58.8
	z M173.4,42.7c0.7,0.4,2.8-0.5,4.2-0.4c1.4,0,5.4-1.1,5.5-1.8c0.1-0.8-1.5-0.7-2.1-1.4c-0.6-0.7-2-0.1-2.3,0.5
	c-0.3,0.6-0.7,0,0.2-0.8c0.9-0.9-0.9-1.6-0.9-1c0,0.6-1.7,0.1-1.7,0.6c0,0.5-0.6,0.8-0.6,1.3c0,0.5-1.1-0.3-1.2,0.9
	C174.5,41.6,172.7,42.3,173.4,42.7z M142.6,59.5c0.8,0.4,1.3,0.2,1.2-0.5C143.7,58.2,142,59.2,142.6,59.5z M162.4,31.4
	c0.2-0.7-2.9-0.4-2.1,0.3C160.6,31.9,162.2,32.1,162.4,31.4z M163.6,34.7c0.9,0.4,0.6,0.6-0.4,0.6c-0.9,0-1.7,0.3-1.1,0.6
	c0.5,0.2,0.4,0.7,1.4,0.9c1,0.2,2-0.6,1.9-1.1c-0.1-0.6,3.4-1.1,4.4-1.3c0.9-0.2-0.6-1.2,0.4-1.3c1-0.1,0.6-0.6-0.7-0.8
	c-1.3-0.2-0.8-1.3-1.2-1.6c-0.4-0.4-0.7,0.5-2.3,0.8c-1.6,0.3-2.4,0.8-1.8,1.1c0.7,0.3,0,1.1-0.7,1.1
	C162.9,33.6,162.7,34.4,163.6,34.7z M300.6,65.5c0.9,0.5,1.5-0.6,2.3,0c0.8,0.5,2.6-0.2,3.3-0.4c0.8-0.1,0.4-1.1-1.7-1.4
	C302.4,63.4,299.6,65,300.6,65.5z M248.2,52.3c1.1,0.1,1.7,1.2,3.9,1.3c2.2,0.1,3.8-0.3,3.8-0.8c0-0.5-2-1.2-2.6-0.8
	c-0.6,0.4-1.1-0.6-1.8-0.4c-0.8,0.2-1.8,0.2-2.2-0.5C248.9,50.6,247.7,52.3,248.2,52.3z M243.8,58.4c0.8-0.2-0.6-1.7-2.1-2
	c-1.5-0.2-2.8,1-2.6,1.2C239.5,58.2,243,58.6,243.8,58.4z M240,55.3c0-0.7-2.6,0.3-1.5,0.6C239.1,56.1,240,56,240,55.3z M234,52.4
	c0.7,0.3,0.9,0.7,1.3,1c0.4,0.4,1.8-0.2,2.4-0.4c0.6-0.2,0.6,0.8,1.5,0.3c0.9-0.6,1.8-0.3,2.8-0.3c1,0-0.2-1.3-0.1-1.8
	c0-0.6,1.2-0.2,0.8,0.3c-0.4,0.5,0.6,1.6,2.1,1.5c1.5-0.1,0.4-1,1.1-1.4c0.8-0.3,0.7-0.7-0.4-1.4c-1.1-0.7-2.5-0.2-3.4-0.7
	c-1-0.5-2.2-0.5-2.3,0.6c0,1-2-1.1-3.1-1.5C235.6,48.3,232.4,51.6,234,52.4z M95.7,32.8c0.7,0.5-1.8,0.3-2.2,0.8
	c-0.3,0.5-1.8,0.3-1.5,0.8c0.3,0.6,2.6,0.6,2.6,0.1c0-0.5,1.2,0,1.3-0.5c0-0.4,0.6-0.9,1.9-1c1.3-0.1,1.3-0.6,0.1-1.1
	C96.7,31.5,95,32.3,95.7,32.8z M116.4,32.9c0.3-0.4-0.6-0.4-0.7-0.8c-0.1-0.4-2.7-0.5-2.6,0c0.1,0.5-1.8,1-1.2,1.5
	C113,34.3,116.1,33.3,116.4,32.9z M243.4,112.6c-0.5-1.4,0.8-2.7-0.2-3.4c-0.9-0.7-0.6-2.2-1-1.9c-0.5,0.3,0,1.6-0.8,1.6
	c-0.8,0.1,0,0.8-0.3,1.7c-0.3,0.9,0.1,2.3,0.5,3.1c0.4,0.8-0.5,5.4-0.1,6.1c0.4,0.8-0.6,4.1-0.3,4.5c0.6,0.7,0.2-0.9,1-1
	c0.8-0.1,0.8,0.9,1.4,1.2c0.5,0.2,0.2-1.5-0.3-1.4c-0.5,0.1-0.8-1.1-1.1-1.9c-0.2-0.8,0.5-1.6,0.5-2.6c0-0.9,1.2-0.9,1.9-0.2
	c0.7,0.7,0.8,0.2,0.5-0.3C244.8,117.8,243.9,114,243.4,112.6z M91.3,33.2c1.1-1,2.5,0,2.7-0.5c0.2-0.5-2-0.6-2.8-0.2
	c-0.8,0.4-2.7,0.1-2.4,0.6C88.8,33.5,90.2,34.2,91.3,33.2z M318.7,78.8c-0.5-0.2-2-1.1-2.3-1.7c-0.4-0.5-2.2-0.8-2.2-0.5
	c0,0.3-0.6-0.1-0.7-0.4c-0.1-0.3-2-0.4-2.1,0c0,0.3,0.4,0.4,0.7,0.7c0.3,0.4-0.4,0.6-0.2,1c0.1,0.4-0.7-0.2-1-0.4
	c-0.3-0.2-0.2-1.2-0.1-1.6c0.1-0.5-0.5-0.4-0.6-0.8c-0.1-0.5-2.2-1.4-3.1-1.8c-0.9-0.4-2-0.7-2.3-1.2c-0.3-0.5-1.9-0.5-2.5-1.2
	c-0.6-0.6-3.3-1.8-4.4-1.8c-1.2-0.1-0.9-0.7-1.5-0.6c-0.6,0.1-3,0-3.7-0.1c-0.8-0.1-0.9,0.4-1.5,0.2c-0.5-0.2-3.3-1.2-3.7-0.8
	c-0.3,0.4-0.2,0.9-0.5,1c-0.3,0.1,0,0.6,0.8,1.3c0.8,0.7,0.3,1.2-0.4,1.6c-0.7,0.3-1.8-0.3-2.2-0.8c-0.4-0.5-1.3-0.3-1.5-1
	c-0.2-0.7,0.3-0.8,0.8-0.4c0.5,0.4,1.1,0.1,1.2-0.4c0.1-0.5-1.3-0.9-2-0.8c-0.7,0-1.1,1.1-1.9,1.5c-0.8,0.4-3.7-0.2-4-0.4
	c-0.3-0.3-4.4,0-4.8,0.3c-0.4,0.3-0.1,1.4-0.3,1.5c-0.2,0.1-0.4-1.3-0.4-1.5c0-0.3-0.5-0.4-1.2-0.4c-0.7,0-1.2,0-0.8-0.3
	c0.3-0.3-0.3-0.6,0.3-1c0.6-0.4-1-1.6-2.6-2.3c-1.5-0.6-5.1-0.3-6,0c-0.9,0.3-2.8,0.2-3.7,0.2c-0.9,0-0.2-0.4-0.4-0.8
	c-0.3-0.4-1.8-0.9-2-0.6c-0.2,0.4-0.6,0-0.6-0.3c0-0.3-1.4-0.8-2-0.7c-0.6,0.1-0.8-0.5-0.2-0.5c0.7,0,1.8,0.1,1.3-0.6
	c-0.5-0.8-4.7-1-5.1-0.8c-0.4,0.1,0,0.7-0.9,1.6c-0.9,0.9-1.8,0.3-1.7-0.1c0.1-0.4,1.2-0.4,1.2-0.8c0-0.4-1.5-0.2-1.8-0.5
	c-0.2-0.4,0.3-0.6,0.9-0.4c0.6,0.2,1.6,0.3,1.6,0c0-0.3-0.6-0.3-1.5-0.5c-0.9-0.2-3.2-0.7-4.4-0.6c-1.2,0.1-1.7-0.4-2.4-0.5
	c-0.7,0-0.7,0.4-0.4,0.7c0.3,0.4-0.6,0.6-1.4,0.5c-0.8-0.1-1.9,0.4-1.5,1c0.4,0.6,0.9-0.2,1.3,0c0.4,0.2-1,0.6-0.4,0.8
	c0.6,0.3,0.5,0.8,0.5,1.1c0,0.3-0.9,0.4-1.3,0c-0.4-0.4-0.8,0-1.5-0.1c-0.7,0-1.2,0.3-0.4,0.4c0.7,0.1,0.9,0.5,0,0.6
	c-0.9,0.1-0.7-0.9-1.3-0.8c-0.6,0.1-1.8-0.4-2.4-0.4c-0.7,0-1,0.5-1.8,0.6c-0.9,0.1-2-0.4-2.4-0.9c-0.4-0.5-0.5-0.6-0.9-0.1
	c-0.4,0.5-0.4,1.6-0.9,1.6c-0.4,0.1-0.6,1-1,1.2c-0.4,0.2-0.4-0.4-1-0.3c-0.5,0-2.3-1.6-2.4-2.1c-0.1-0.5-1.2-1.4-1.5-1.6
	c-0.3-0.2,0.3-0.3,0.6,0c0.4,0.3,0.8,0.3,1.2,0.1c0.4-0.2,0.3-1.1-0.3-1.1c-0.6,0-0.4-0.5-0.1-0.6c0.3-0.1-0.7-1-0.3-1.1
	c0.4-0.1,0.2-0.5-0.3-0.6c-0.5-0.1-1.1-0.5-1.1-0.8c0-0.3-2.2-0.4-2.1,0c0.1,0.4-0.7,0.3-0.6,0c0.1-0.3-0.8-0.2-1.8-0.5
	c-1-0.3-1.1-1-1.4-1.1c-0.4,0-0.2,1-0.8,0.8c-0.5-0.2-1.1,0.2-0.8,0.8c0.3,0.6,0,0.7,0,1.2c0,0.5-0.3,0.3-0.9,0.1
	c-0.6-0.2-0.6,0.5-1.9,0.2c-1.3-0.3-1.9,0-2.1-0.4c-0.2-0.4-0.6-0.5-0.7-0.1c0,0.4-2.1,0.2-2.2-0.3c-0.2-0.5,0.4-0.6,0.7-0.8
	c0.3-0.1-0.3-0.4-1.4-0.3c-1.1,0.1-1.8-0.6-2.9-0.4c-1.1,0.1-3.6,0.4-4,0.5c-0.4,0.2,0.3,0.8-0.2,0.8c-0.5,0-0.2-1-0.3-1.6
	c-0.1-0.5-0.9-0.6-0.8-0.2c0.1,0.4-1.3,0.5-1.6,0.2c-0.3-0.3-0.9-0.7-1.8-0.9c-0.9-0.2-2,0.8-1.8,1c0.3,0.3,0.9,0.1,1,0.3
	c0,0.4-1.9,0.2-1.9,0.6c0,0.3-1.9,0.8-2.4,0.8c-1.5,0.2-1.9,0.2-2.6,0.8c-0.7,0.6-0.2-0.5,0.4-1.1c0.6-0.6,1.2-0.3,1.5-0.8
	c0.3-0.4,0.8-0.4,1.7-0.5c0.9-0.1,0.8-0.7,1.3-0.8c0.4-0.2,1.5-0.6,1.6-1c0.2-0.4,2.3-1.1,2.7-1.1c0.4,0,0.5-0.8,0.8-0.8
	c0.2,0,1.5-0.5,1.9-0.8c0.5-0.2,0.7-0.7,0.7-1c0-0.3-0.6-0.3-0.7-0.5c-0.1-0.3,0.3-0.1,0.8-0.3c0.5-0.2,0-0.8-0.4-0.7
	c-0.4,0.1,0.2-0.4-0.1-0.8c-0.4-0.4-1.1,0.3-1-0.2c0-0.4,0-1-0.3-1.3c-0.3-0.3-0.8,0.5-1.4,0c-0.6-0.4-2.3-0.7-2.3-0.5
	c0,0.2-0.8-0.3-1-0.1c-0.2,0.2-1.5,0.2-1.9,0c-0.4-0.1-1,0.2-1,0.6c0,0.4-1.7,0.3-2,0.2c-0.3-0.1,1.2-1.3,1.2-1.5
	c0-0.2-2.5,0-2.6-0.2c-0.1-0.2-1.3-0.3-1.9-0.3c-0.5,0,0-0.1,0.5-0.2c0.5,0,0.9-0.5,1.5-0.6c0.5-0.1,0.4-0.3,0.2-0.6
	c-0.2-0.3-0.8-0.2-1.3-0.3c-0.5-0.2-1.2-0.4-1.7-0.4c-0.5,0-1,0.2-2.1,0.4c-1.1,0.2-1.2,1.1-1.8,1.3c-0.6,0.3-1.5,1.3-1.1,1.4
	c0.5,0.1,0.2,0.4,0.3,0.7c0.1,0.3-0.4,0.4-0.9,0.3c-0.5-0.1-2.4-0.1-2.4,0.3c0,0.4,1.1,0.6,1,0.8c-0.1,0.2-0.8,0-1.2-0.2
	c-0.4-0.2-1.2-0.1-1.4,0.3c-0.2,0.4-0.8,0.3-1,0.2c-0.2-0.1-0.7,0.2-1,0.1s0.7-0.6,0.4-0.9c-0.3-0.3-1.4,0-1.5,0.4
	c-0.1,0.4-0.8-0.3-1.1-0.2c-0.3,0.1-0.5,0.3-1,0.5c-0.5,0.2-1.3-0.2-1.5,0.1c-0.2,0.4,0.9,0.5,1,0.7c0,0.2-2.6,0.1-2.6,0.4
	c-0.1,0.3-0.9,0.3-2,0.3c-1.1,0-0.6,0.5-1.5,0.7c-0.8,0.2-1.2,0.2-1.5,0.6c-0.3,0.4-0.9,0.5-1.2,0.2c-0.3-0.3-1.1,0.2-0.6,0.2
	c0.4,0,0,0.5-0.2,0.4c-0.3-0.1-1,0.4-0.6,0.4c0.4,0,0.6,0.3,0.4,0.6c-0.2,0.3-1.1-0.3-1.4-0.1c-0.2,0.2,0.4,0.5,0.9,0.5
	c0.4,0,0.7,0.2,0.7,0.5c0,0.3-1-0.2-1.2,0.1c-0.2,0.3,0.2,0.4,0.6,0.4c0.4,0,0.1,0.2,0.5,0.6c0,0,0.1,0.1,0.1,0.1
	c0.2,0.3-0.2,0.4-0.2,0.7c0,0.3-0.4,0.4-0.4,0.1c0-0.3-1.2-0.4-1.5-0.1c-0.3,0.3-0.4,0.5-0.8,0.3c-0.3-0.3-1.2,0.1-2.3,0.1
	c-1.2,0-3.5,0.1-4.1,0.4c-0.6,0.2-1.1,1-0.5,1.6c0.5,0.5,0,0.8,0,1.1c0,0.4,1.4,1.1,2.2,1.2c0.8,0.1,1.4,1,0.9,1.6
	c-0.4,0.6-1.8-0.2-2.7-0.9c-0.9-0.7-3-1-3.6-0.9c-0.7,0-0.3-0.6-1.2-0.6c-0.9,0-1.6,0.8-1,0.8c0.6,0,1,0,0.7,0.2
	c-0.3,0.3,0.2,0.2,0.9,0.5c0.7,0.3-0.6,0.7-1.3,0.2c-0.7-0.5-1.5,0-1.7,0.4c-0.2,0.4,0.8,1.5,2.1,1.6c1.3,0.2,0.8,0.6,1.4,0.8
	c0.6,0.2,0.2,0.4-0.2,0.5c-0.4,0-1.2-0.6-1.8-0.9c-0.6-0.3-2.3,0.1-2.7-0.2c-0.4-0.4,0.2-0.8-0.1-1c-0.3-0.3,0-0.9,0.4-1.6
	c0.4-0.7-0.1-1.8-0.7-2c-0.6-0.2-0.6,0.4-0.4,0.6c0.1,0.2,0.1,1.1-0.4,1.7c-0.5,0.6-1.9,0.6-1.9,1c0,0.4-1,0.7-0.6,1
	c0.3,0.3,1.6,1.7,1.8,2.2c0.2,0.4-1.2,1.9-0.9,2.7c0.2,0.8-0.2,1.2,0.1,1.6c0.3,0.4,0.8,0,1.2,0.2c0.4,0.2,1-0.2,1.9-0.4
	c0.9-0.2,2.5,0.8,3.1,1c0.6,0.3,0.3,0.8,0.6,1.2c0.3,0.5-0.7,0.5-0.7,1.2c0,0.7,1.8,1,1.8,1.2c0.1,0.2-1.3,0-1.8-0.1
	c-0.5-0.2-0.6-0.9-0.7-1c-0.2-0.1,0.4-0.7,0.4-1.2c0-0.4-0.6-0.7-0.8-1c-0.2-0.3-0.6-0.8-1-0.7c-0.4,0.1-2,0.2-2.4,0.7
	c-0.5,0.4,0.1,1.6,0.3,2.2c0.3,0.6-1.4,1.4-1.3,1.9c0,0.5-0.5,0.7-1.2,1.1c-0.7,0.4-1.5,0.7-1.5,1.3c0,0.6-0.9,0.3-1.4,0
	c-0.5-0.3-1.1,0.2-1.8,0.1c-0.7,0-0.7-0.6-1.3-0.4c-0.6,0.2-0.9-0.3-0.8-0.7c0.2-0.4,0.8-0.1,0.8,0.2c0,0.3,0.4,0.2,0.9-0.1
	c0.5-0.3,0.2,0.3,0.9,0.4c0.7,0,0.3-0.4,0.8-0.3c0.5,0,0.5-0.1,0.4-0.4c-0.2-0.3,0.4-0.4,0.7-0.6c0.4-0.2,0.2-0.7,0.5-0.8
	c0.3-0.2,0.1-0.5,0.4-0.5c0.3,0,0.5-0.5,0.8-0.5c0.3,0,0.5-0.5,0.3-0.8c-0.2-0.3,0.1-1,0.4-1.1c0.3-0.1,0.3-0.4,0-0.6
	c-0.3-0.2-1.3-0.9-1.2-1.4c0.1-0.4-0.2-1.3,0-1.6c0.1-0.4,0-1.1,0-1.5c0-0.4,0.3-0.9,0.4-1.7c0.1-0.8-0.8-1.6-1.3-1.8
	c-0.5-0.2-0.2-0.6,0.5-1.2c0.7-0.6,0.7-2.3,0.7-2.7c0-0.4-1.4-0.7-2-0.7c-0.5,0-2.5,0-3-0.1c-0.5-0.1-0.7,0.4-0.9,0.9
	c-0.2,0.5-0.8,1.2-1.1,2.3c-0.3,1.1-1.6,1.4-2.1,1.6c-0.6,0.2-0.9,1-0.7,1.4c0.3,0.4,0.6,0.1,0.9,0.2c0.3,0.1,0,1.1-0.2,1.3
	c-0.2,0.1,0.3,0.5-0.1,0.8c-0.4,0.3-0.8,0.8-0.5,1.1c0.2,0.3,1.4,0.4,1.9,0.7c0.5,0.3,0.3,0.8,0.7,1.3c0.4,0.5,0.8,0.2,1,0.5
	s-0.7,1.5-1,1.6c-0.3,0-1.6-1.2-1.9-1.5c-0.4-0.3-1.8-0.7-2.6-1.1c-0.7-0.4-1.3-0.3-2.1-0.9c-0.8-0.5-1.5-0.8-2.9-0.8
	c-1.5,0-2.4-0.3-2.9-0.3c-0.5,0.1-0.3-0.5-1.2-0.9c-0.9-0.4-1.4-0.9-1.9-0.6c-0.5,0.3-0.3,1.2,0.4,1.3c0.8,0.1,0.4,0.5,1.2,0.5
	c0.8,0,1,0.2,1,0.7c0,0.5,0.4,1,0.7,1.3c0.4,0.3,0.1,0.9-0.5,0.9c-0.6,0-1.4,0.1-1.1,0.5c0.3,0.4-0.2,0.6-0.8,0.3
	c-0.6-0.2-0.3-0.7,0-0.9c0.3-0.3-0.6-0.6-1-0.7c-0.4-0.1-2,1-2.4,1.2c-0.4,0.2-1.5-0.3-2.7,0c-1.1,0.3-1.1,1.2-1.5,1.1
	c-0.4-0.1-1.7,0.1-2.1-0.2c-0.5-0.3-0.1-0.4,0.4-0.4c0.5,0,0.7-0.1,0.4-0.5c-0.3-0.3,0.4-0.8,0.4-1.1c0-0.2-1.9,0.4-2.2,0.6
	c-0.3,0.3,0,0.7-0.3,0.9c-0.3,0.2-0.3-0.3-0.7-0.4c-0.4-0.1-3.1,0.5-3.6,1.1c-0.5,0.6-1.5,0.6-1.5,0.9c0,0.3-1.2,0.3-1.7,0.5
	c-0.5,0.2-0.2,1.2-0.4,1.7c-0.2,0.5-2.1,0.3-2.7,0.4c-0.6,0-0.8-1.1-1.3-1.2c-0.5-0.1-0.2-0.7,0-1c0.1-0.3,0.5,0,1.1-0.4
	c0.6-0.4,1.2,0.2,1.4-0.1c0.2-0.3-0.9-0.9-1-1.5c-0.1-0.6-1.3-0.8-2-0.6c-0.7,0.2-1.5,0-2-0.2c-0.5-0.2-0.4,0.4,0.3,0.6
	c0.7,0.2,0.4,0.8,0.5,1.1c0.1,0.4-0.2,1.2-0.6,1.8c-0.4,0.6-0.1,0.6,0.5,0.6c0.6,0,0.6,0.8,0.6,1.4c0,0.6-0.5,0.8-0.5,1.2
	c0,0.4-0.5-0.2-0.7,0s-0.4-0.1-0.5-0.5c-0.1-0.4-1.1-0.2-1.6-0.3c-0.5-0.1-0.8,0.1-1,0.5c-0.3,0.4-1,0.6-1.4,0.6
	c-0.4,0.1-1.1,0.8-1.5,1.1c-0.4,0.3-0.5,0.8,0.1,1.4c0.6,0.6,0.7,0.9,0.7,1.2c0,0.3-1.6,0.2-1.9-0.1c-0.3-0.3-1.3-0.4-1.6-0.4
	c-0.4,0.1-1.3-1.1-1.8-1.1c-0.5,0-0.8,0.6-1,0.9c-0.2,0.3,0.2,0.4,0.5,0.9c0.2,0.5,1.1,0.5,1.6,0.5c0.4,0,0.3,0.7,0.1,1
	c-0.1,0.3-1,0.5-1.2,0.2c-0.2-0.3-1.2,0-1.2-0.4c0-0.4-0.7-0.9-1.5-0.8c-0.7,0.1-0.9-0.4-0.8-0.9c0-0.6-0.4-0.9-0.4-1.2
	c0-0.3-0.3-0.8,0-1c0.4-0.3,0.1-0.7,0.1-1c0-0.4-0.6-0.9-1.2-0.9c-0.6,0-0.5-0.6-1-0.7c-0.5-0.1-1.5-0.9-1.5-1.3
	c-0.1-0.4-0.8-0.4-0.6-0.5c0.3-0.1,0.8,0,1.3,0.5c0.4,0.4,1.1,0.8,2.2,0.9c1.1,0.1,1.6,0.7,2.8,0.9c1.2,0.2,1.9,0.3,3.7,0.6
	c1.8,0.3,4.1-1.5,4.6-2c0.5-0.5-0.1-1.5-0.1-1.9c0-0.4-0.8-0.4-0.9-0.7c-0.1-0.3-0.6-0.8-1.3-0.8c-0.7,0-0.8-0.8-1.3-0.7
	c-0.5,0-0.9-0.2-2.3-1.2c-1.4-0.9-3.4-1.6-3.7-1.5c-0.4,0.2-0.6,0.3-0.8-0.1c-0.2-0.4-0.8-0.3-1.2,0c-0.4,0.3-0.8-0.3-1.5-0.1
	c-0.7,0.2-1.1-0.3-0.9-0.5c0.2-0.2,1.2,0,1.2-0.4c0-0.4-0.4,0-1.1-0.4c-0.6-0.4-1-0.1-1.1,0.2c-0.1,0.4-0.6,0.3-1,0
	c0,0-0.1-0.1-0.1-0.1c-0.1,0.6-0.5,0.6-0.8,0.6c-0.4-0.1-0.8,0.6-1.3,0.6c-0.5,0-1,0.5-1.1,0.9c-0.1,0.4-0.6,0.2-0.6,0.5
	c0,0.3,0,0.6-0.2,0.8c-0.2,0.3,0,0.4,0.2,0.9c0.2,0.5,0.8,0.4,1,0.6c0.2,0.1,1.1,0.9,1.1,1.2c0,0.3-0.7,1-1,1.2
	c-0.3,0.2-0.7,0.7-0.5,0.9c0.2,0.3,1,1.5,1.5,2.4c0.5,0.9-0.2,0.5-0.5,0.9c-0.3,0.4,0.1,0.9,0.2,1.2c0.1,0.3-0.4,0.2-0.4,0.5
	c0,0.2,0.8,0.3,0.8,0.5c0,0.2-0.5,0.4-0.2,0.8c0.2,0.4,0.8,0.4,0.8,0.8c0,0.5-1,0.5-1,0.9c0,0.4,1.4,0.8,2,1.5
	c0.6,0.7,0.6,0.9,0.4,1.3c-0.3,0.8-2,1.4-2.3,2.3c-0.4,0.8-1.8,1.3-2.4,2c-0.3,0.3-0.5,0.6-0.8,1c0.3-0.1,0.5-0.2,0.7-0.2
	c0.4-0.2,0.6,0.7,1,1c0.4,0.3,1.1,0,1.4,0.3c0.3,0.3-0.2,0.3-0.8,0.2c-0.5-0.1-0.7,0.2-1.5,0.5c-0.6,0.2-0.6,0.4-0.8,0.6
	c0.4,0.6-0.1,0.6-0.3,1c-0.2,0.5-0.5,0.5-0.5,0.8c0,0.3,0.1,0.5,0.1,0.9c0,0.4,0.1,0.5,0.4,0.8c0.2,0.4-0.2,0.4-0.4,0.5
	c-0.2,0.2-0.1,0.6,0.2,0.8c0.3,0.3,0.3,0.6,0.2,0.9c-0.1,0.2,0.2,0.7,0.5,0.9c0.2,0.2,0.2,0.9,0.4,1.1c0.2,0.2,0.5,0.4,0.8,0.2
	c0.4-0.1,0.6,0.1,0.8,0.4c0.2,0.3,0.5,0.2,0.8,0c0.4-0.2,1.3,0.3,1.5,0.4c0.2,0.1,0.1,0.7,0.1,1.1c0,0.4-0.2,0.9,0.2,1.1
	c0.4,0.2,0.3,0.8,0.7,1c0.5,0.2,0.6,0.8,0.9,0.9c0.3,0.1,0.8,0.5,0.9,0.8c0.1,0.3-0.5,0.6-0.8,0.7c-0.3,0.1-0.9-0.4-1.1-0.2
	c-0.2,0.2,0.1,0.7,0.2,1.5c0.2,0.8,0.3,0.8,0.7,0.8c0.4,0,0.5-0.2,0.7-0.4c0.2-0.1,0.8,0.1,1.1,0c0.2-0.1,1.1-0.1,1.3,0.1
	c0.2,0.3,0.4,1,0.2,1.2c-0.1,0.2,0.2,0.5,0.4,0.9c0.2,0.4,0.9,0.2,1.2,0.3c0.2,0.1,0.8,0.9,0.7,1.2c-0.1,0.4,0.4,0.4,0.6,0.3
	c0.2-0.1,0.5,0.2,0.8,0.4c0.3,0.2,0.5,0.1,0.8-0.1c0.3-0.2,0.7-0.3,0.9-0.1c0.1,0.2,0.7,0.7,0.7,0.8c0,0.1,0.9,0,1.3,0.2
	c0.4,0.2,0.9,0.1,1.3,0.4c0.5,0.2,0.9,0.3,0.9,0.6c0,0.3-0.5,0.5-0.5,0.7c0,0.1,0.4,0.2,0.4,0.5c0,0.2-0.5,0.2-0.6,0.4
	c-0.1,0.2,0.3,0.4,0.4,0.6c0.1,0.2-0.3,0.8-0.3,1c0,0.2-1.1,0-1.3,0s-1,0.8-1.2,0.8c-0.2,0-0.1,0.4,0,0.8c0.8-0.1,1.5-0.2,1.6,0
	c0.1,0.3-1.6,1-2,1.2c-0.3,0.1,0.6,0.6,0.6,0.9c0,0.3-1,0.4-0.9,0.9c0.1,0.6-0.3,0.7-0.9,0.7c-0.5,0-0.7,0.3-0.4,0.4
	c0.3,0,0.2,0.8,1.2,1c1,0.3,2.1,1.2,3,2.1c0.1,0.1,0.3,0.2,0.4,0.3c0.2-0.1,0.5-0.3,0.6-0.3c0.5-0.1,1.4,0.2,1.9,0.6
	c0.5,0.4,2.3-0.1,2.5,0.2c0.2,0.3,0.6,0.6,1,0.6c0.4,0,0.7,0.7,1,0.5c0.3-0.2,1.3-0.2,1.6-0.2c0.3,0,0.3,0.2,0.6,0.2
	c0.3,0,0.3,1.1,0.5,1c0.2-0.1,1,0.6,1.5,0.7c0.5,0.1,1,0.9,1.2,0.8c0.2-0.1,0.6,0.4,0.7,0c0.1-0.3,0.8-0.2,1-0.8
	c-0.9-1.1-1.8-2.3-1.8-2.8c0-0.8,0.4-1.3-0.6-2.2c-1-0.8,0.1-1.4,0.8-2.3c0.6-0.8,2-1.1,2.8-1.7c-0.2-0.1-0.3-0.2-0.5-0.3
	c-0.6-0.3-0.8-0.6-0.4-0.7c0.5-0.1,0.3-0.4-0.2-1c-0.5-0.6-0.7-1.1-1-1.1c-0.3,0-0.7-0.1-1.1,0.1c-0.4,0.1-0.4-0.3-0.3-0.8
	c0.1-0.5-0.8-0.4-0.9-0.6c-0.1-0.2,0.2-0.9,0.4-1c0.1-0.1,0.6-0.3,0.6-0.5c0-0.2-0.8-0.3-0.5-0.8c0.3-0.5,0.8-0.5,0.8-1
	c0-0.5,0.4-0.9,0.9-0.6c0.5,0.4,0.7,1.3,1.3,1.1c0.6-0.2,0.2-0.7,0.1-1c-0.1-0.3-0.2-0.7,0.4-0.8c0.6-0.1,0.4-0.8,0.8-0.8
	c0.5,0,1.4-0.6,1.7-0.8c0.3-0.1,0.9-0.5,1.2-0.4c0.3,0.1,0.6,0.5,0.8,0c0.2-0.5,1.1-0.3,1.1,0c0.1,0.3,1.4,0.3,1.8,0.6
	c0.4,0.3,1.3,0.8,1.3,1.1c0,0.3,0.4,0.7,0.4,0.2c0-0.5,0.4-0.4,0.9,0c0.6,0.3,1.3,0.2,1.5-0.1c0.1-0.4,1.2-0.8,1.5-0.5
	c0.4,0.3,0.5,0.5,0.9,0.1c0.4-0.4,1.4-0.4,1.6,0.1c0.1,0.4,0.6,0.5,1.1,0.5c0.4,0,0.5,0.6,0.8,0.5c0.3-0.1,0.2-0.8,0.6-0.8
	c0.4,0.1,0.6,0.5,1.2,0.5c0.6,0,1-0.1,1-0.6c0-0.4-0.1-1.1-0.4-1.1c-0.4,0-0.7-0.4-1.1-0.4c-0.4,0-0.8-0.7-0.4-0.8
	c0.4-0.1,1.1-0.5,1-0.8c-0.1-0.4-0.3-1.1,0.3-1.1c0.6-0.1,1.8-0.1,1.7-0.3c-0.1-0.2-1.2-0.4-1.4-0.7c-0.2-0.4-0.3-1.2-0.1-1.3
	c0.2-0.1,0.9,0.1,1.3-0.1c0.4-0.1,1.3,0.2,1.9-0.2c0.6-0.4,1.8-0.5,2.4-0.5c0.6,0,1.1-0.4,1.6-0.5c0.5-0.1,1.9-0.3,2.3-0.4
	c0.4-0.1,2.3-0.4,2.3-0.8c0.1-0.4,1.6-0.6,2-0.5c0.4,0.2,0.9,0.3,1.2,0.2c0.4-0.1,1.1,0.2,1,0.6c-0.1,0.4,0.3,0.8,0.3,1.1
	c0,0.3-0.4,0.4-0.2,0.7c0.2,0.2,1.2,0.1,1.4-0.2c0.3-0.3,0.6,0.1,0.6,0.4s0.5,0.4,0.5,0.1c0-0.3,0.6-0.1,0.7,0.1
	c0.2,0.2,0.8-0.2,0.8,0.1c0,0.4-1,0.6-0.6,1c0.4,0.4,0.7-0.5,1.2-0.3c0.5,0.2,1.2-0.6,1.7-0.7c0.5-0.1,1-0.6,1.4-0.8
	c0.4-0.2,1.3-0.2,1.1,0.1c-0.3,0.3-0.6,0.8,0.5,1.2c1.1,0.4,2.3,2.4,2.9,3.5c0.7,1,1.3,2.9,1.7,2.9c0.4,0,0.5-0.9,0.9-1
	c0.5-0.1,0.7,0.8,1.2,0.9c0.5,0.1,1.2,0.4,1.6,0.2c0.4-0.1,1.3-0.6,1.6-0.5c0.3,0.2,0.7,0.2,1,0.8c0.3,0.7,0.7,0.8,1,0.8
	c0.3,0,0.3,0.3,0.3,0.6c0,0.3,0.5,0.7,0.8,0.7c0.3,0,1-0.1,1.3-0.2c0.2-0.1,0.5-0.3,0.6,0c0,0.3,0.5,0.8,0.8,0.8
	c0.3,0,0.8,0.2,0.9,0c0-0.2,0.8-0.4,1.1-0.4c0.3,0,1.3-0.2,1.5-0.7c0.2-0.4,1-0.4,1.2-0.7c0.2-0.3,0.9-0.4,1-0.7
	c0.1-0.3,1-0.2,1.1-0.5c0.1-0.2,0.8-0.3,1.1-0.2c0.3,0.1,2,0.4,2.2,0.4c0.2,0,0.3,0.8,0.5,0.9c0.2,0,1.1,0.7,1.3,0.5
	c0.2-0.2,0.8-0.4,1.3-0.1c0.5,0.3,0.9,0.7,1.1,0.3c0.2-0.3,1.2-0.5,1.3-0.7c0.1-0.2,0.3-0.8,0-0.9c-0.2-0.2-0.5-0.9-0.6-1.3
	c-0.1-0.4,0.6-0.5,0.7-0.8c0.1-0.3,0.7-0.4,0.8-0.6c0.2-0.2,0.2-0.6,0.6-0.5c0.3,0.1,1,0.3,1.2,0.5c0.1,0.1,0.7,0.2,1,0.2
	c0.3,0,0.8,0.3,1.2,0.5c0.3,0.2,1.4,0.2,1.5,0.5c0.2,0.3,0,1.1,0.2,1.4c0.2,0.3,0.8,0.9,1,0.8c0.2-0.1,1.1,0.5,1.4,0.4
	c0.3,0,0.8-0.6,1.1-0.6c0.3,0,1.2-0.2,1.5-0.2c0.3,0,1.3,0.4,1.5,0.3c0.1-0.1,1.1,0,1.2,0.3c0.1,0.3,1.3,0.3,1.3,0.6
	c0,0.3,0.7,0.5,0.8,0.9c0.2,0.4,1.7,0.1,2,0.4c0.3,0.2,2.1,0.2,2.1,0c0-0.2,1.7-0.3,2.1-0.5c0.3-0.2,1.2-0.1,1.3-0.5
	c0-0.3,0.9-0.6,1.3-0.8c0.4-0.3,1.9-0.2,2,0.1c0.1,0.3,1,0.4,1.4,0.3c0.4-0.1,1.4,0,1.5,0.4c0.1,0.3,1.3,0.5,1.6,0.4
	c0.3-0.1,1.2-0.8,1.5-0.8c0.3,0,0.8-0.4,0.7-0.7c-0.1-0.3,0.7-1.3,0.8-1.6c0.1-0.4,0.8-1.4,1-1.5c0.2-0.1,0.8-0.5,0.7-0.8
	c0-0.3-0.2-1.1-0.5-1.1c-0.3,0-0.8,0-0.1-0.8s1.8-0.7,2-0.7s1.7-0.4,2.3-0.2c0.7,0.2,1.1-0.1,1.8,0.3c0.7,0.4,1.7,0.2,1.9,0.6
	c0.2,0.3,1.2,0.6,1,1.2c-0.1,0.6,0.5,0.2,0.8,1.5c0.2,1.2,0.8,1.3,0.9,1.9c0.1,0.6,0.9,1.6,0.8,1.9c-0.1,0.3-0.2,0.8,0.6,0.9
	c0.8,0,1.4,0.7,1.6,0.6c0.2-0.1,1.1,0.2,1.6,0.7c0.5,0.5,1.2,0.2,1.1,0.8c0,0.5,0.4,0.9,0.3,1.4c0,0.4,0.9,0.7,1.5,0.6
	c0.7-0.1,1.1,0.2,1.4-0.3c0.3-0.6,1.2-0.3,1.6-0.6c0.3-0.2,1.3-0.5,1.3,0.3c0,0.8,0.5,1,0,1.3c-0.5,0.3-0.7,1.5-0.8,2
	c-0.1,0.5-0.8,0.7-0.9,1.2c-0.1,0.6-0.8,0.6-0.8,1c0,0.4-0.9,0.3-1.4,0c-0.5-0.3-0.9,0.6-1.3,0.6c-0.4,0-0.3,0.8-0.2,1.1
	c0.1,0.3-0.1,0.8,0.1,1.3c0.1,0.3,0,0.9,0.1,1.5c0.6-0.4,1.1-0.7,1.3-0.7c0.6,0,1.2,1,1.8,1c0.7,0,3.6-2,3.7-2.3
	c0-0.3,1.8-2,2.6-2.9c0.8-0.9,1.9-2.1,2.3-3.1c0.3-0.6,1.4-1.8,1.7-2.3c0.3-0.5,0.5-0.5,1-1.6c0.5-1.1,0.5-4,0.7-4.2
	c0.2-0.2,0.1-0.7,0.3-1c0.2-0.3,0.1-0.7,0.6-1.1c0.5-0.4,0.4-0.8,0.3-1.1c-0.1-0.3,0-1-0.1-1.2c-0.1-0.2-0.1-0.3,0.2-0.5
	c0.3-0.2-0.2-0.6-0.6-0.8c-0.4-0.2-0.9-0.4-1-0.8c0-0.4-0.7-1-1.2-0.9c-0.5,0-1.5-0.3-1.4,0c0.1,0.3,0,0.6-0.3,0.5
	c-0.3-0.1-0.4,0.1-0.7,0.6c-0.3,0.5-1.4,0.5-0.9,0.1c0.5-0.4-0.2-0.5-0.1-0.9c0.1-0.5,0.5-0.9,0-0.6c-0.5,0.3-0.5,1-1,1.1
	c-0.4,0.1-0.3-1.3-0.2-1.6c0.1-0.4-0.8,0-1.8,0c-1-0.1-0.7-0.8,0.1-1.2c0.8-0.4,0.7-0.8,1.1-1c0.4-0.2,1.4-0.8,2-1.2
	c0.6-0.4,0.7-0.8,0.9-1.2c0.1-0.4,1.3-0.9,2.3-1.7c1-0.8,1.5-1.3,1.7-1.8c0.2-0.5,1.7-1.1,1.8-1.5c0-0.4,1.8-1.3,3-1.6
	c1.2-0.2,3.1,0.1,3.5,0.4c0.4,0.4,0.6,0.2,0.8,0c0.2-0.2,0.7-0.1,1.5,0c0.8,0.1,1-0.4,1.5-0.2c0.5,0.2,1,0.3,1.3-0.4
	c0.3-0.6,1.9-0.5,2.2-0.3c0.4,0.3,0.6,0.6,1.2,0.2c0.6-0.4,0.6,0.5,1.1,0.6c0.5,0.1,0.2,0.5-0.3,0.5c-0.5,0-1.1,0.2-0.5,0.5
	c0.5,0.3,1.2-0.3,1.6-0.2c0.4,0,1.1,0.1,1.7-0.3c0.6-0.4,0.8,0.3,1.1,0c0.4-0.3,1.2-0.4,1.6-0.4c0.4,0,0.1-0.5-0.6-0.5
	c-0.7,0-0.7-0.4-0.1-1.3c0.6-1,1.6-1.5,2.3-2.1c0.7-0.6,1.2-0.3,1.2-0.7c0-0.4,0.3-1.4,0.8-1.5c0.5,0,1.8,0.2,2.6-0.2
	c0.8-0.4,0.7,0.3,1.1,0.4c0.3,0.1,0.8-0.7,1.2-0.4c0.4,0.2-0.6,0.8-0.8,1.5c-0.2,0.7,0.5,0.4,0.9,0.6c0.4,0.2-0.5,0.5-0.4,0.7
	c0.1,0.2,0.9,0.2,1.9-0.8c1-1,2-1.3,2.6-1.2c0.7,0.1,0.3-0.6,0.3-1.6c0-1,2.1-1.2,2.7-1c0.7,0.3,0.6,0.5,0,0.4
	c-0.6-0.2-1.2,0.4-1.2,1.2c0,0.8-0.6,1.1-0.3,1.4c0.3,0.3-0.4,0.4-0.5,0.7c0,0.3,0,0.6-0.5,0.7c-0.5,0.1-2,0.3-2.1,0.9
	c0,0.6-0.9,0.7-1.3,1.4c-0.4,0.8-1.9,1.2-2.9,2.7c-1,1.5-2.6,1.5-2.6,1.8c0,0.3-1.1,0.3-1.5,0.3s0.4,1-0.5,1.9
	c-0.9,1-1.5,2.3-1.5,3.6c0,1.3,0.5,5.2,0.9,5.9c0.4,0.7,0.2,2.3,0.5,2.7c0.3,0.4,0.2,0.9,0.4,1.2c0.2,0.2,1.1-0.9,1.7-1.4
	c0.6-0.5,0.4-0.7,0.8-0.9c0.4-0.3,0.2-1.3,0.4-1.6c0.1-0.3,0.8-0.4,1.1-0.7c0.2-0.3,0.8-0.1,1.2-0.2c0.3-0.1,0-0.9-0.1-1.3
	c-0.1-0.4,1-1.1,1.5-1.5c0.6-0.4,1.3,0.3,1.9-0.3c0.6-0.6,0-1.3-0.3-1.6c-0.2-0.3,0.6-1.8,1.1-1.9c0.5-0.1,0.8,0.4,1.2-0.1
	c0.5-0.4-0.4-1.1-0.8-1.1c-0.3,0-0.4-1.2,0.3-1.8c0.8-0.6,0.5-0.7,0-0.8c-0.5-0.1-0.6,0-1,0.1c-0.4,0-0.8-0.8-0.2-1.6
	c0.6-0.8,1.2-0.7,1.3-1.4c0.1-0.7,1-1.6,1.2-2c0.2-0.4,1.1,0,1.4-0.1c0.3-0.1,0.2,0.6,0.6,0.3c0.4-0.4,1.1-1.5,1.6-1.5
	c0.5,0,0.2,0.9,0.3,1.4c0.1,0.5,0.4-0.1,1.5-0.8c1-0.7,3.3-0.6,4-0.3c0.7,0.3,0.8,1.1,1.2,1c0.6-0.1,0.1-0.8,0.7-0.9
	c0.6-0.2,1.6-0.8,2.3-1.3c0.8-0.5,0.5-0.1,0.9-0.6c0.4-0.5,0.8-0.3,0.9-0.6c0.1-0.3,1.2-0.9,2.7-1.2c1.5-0.3,3.4-1.3,3.3-1.6
	c-0.1-0.3,0.6-0.4,0.6-0.1c0.1,0.3,0.6,0.2,1.4,0.4c0.8,0.2,1.1,0.5,1.7-0.1c0.6-0.6-0.1-0.8,0-1.3c0-0.5-1.1-1-0.9-1.5
	c0.1-0.5-0.8-1.8-1.1-1.5c-0.3,0.3-0.9-0.2-0.9-0.6c0-0.4,0-0.8-0.5-0.5c-0.4,0.3-1.2,0.1-1.3-0.3c-0.1-0.4,0.9-0.7,1.6-0.4
	c0.7,0.3,0.5,0.6,0.8,0.8c0.4,0.2,1.3,0.1,1.8-0.1c0.5-0.2,1.9-0.7,2.1-1.1c0.2-0.4,0-0.6,0.4-0.8c0.5-0.2,0.1-0.7-0.3-0.9
	c-0.4-0.2-0.3-0.8,0.1-0.8c0.4,0,0.3-0.5,0.6-0.5c0.3,0,0.3,0.2,0.8,0c0.5-0.3,0,0.4-0.2,0.8c-0.2,0.4,0.5,0.8,0.6,1.1
	c0.1,0.3,1.1,0.4,1.6,0c0.6-0.3,2.4,0.4,2.5,0.8c0.1,0.4,0.4,1,1.1,1.4c0.8,0.4,1.4,0.2,1.6,0.6c0.1,0.4,0.4,0.5,0.8,0.4
	c0.4-0.1,0.7,0.4,1,0.1c0.3-0.3,0.5,0.2,0.9-0.2c0.4-0.4-0.9-0.6-0.7-0.9c0.2-0.3,0.4,0.2,0.8,0.2c0.4,0-0.1-0.7,0.2-0.8
	c0.3-0.1,0-1.5-0.2-1.6c-0.3-0.1,0-0.6,0.5-0.2c0.5,0.4,1.4,0.4,1.8,0.4c0.4,0,0-0.4-0.4-0.4c-0.4-0.1,0.1-0.4,0.4-0.1
	c0.3,0.3,0.8,0.4,0.9,0.1c0-0.3,0.3-0.9,0.8-0.9C319,79.2,319.2,79,318.7,78.8z M187.6,109.6c-1.3,1.2-4,1.5-4,2.5
	c0,1-3.2,1.5-3.5,1.1c-0.2-0.4,2.4-0.5,3-1.9c0.6-1.4,3-2.1,4.2-4c0.8-1.3,1.6-3.4,2-3.2C189.9,104.1,189,108.4,187.6,109.6z
	 M193.7,54.4c-0.2,0.4-1.2,0.4-0.9,0.8c0.5,0.6,2.8,0.3,2.9-0.5C195.7,54,193.9,54.1,193.7,54.4z M93.7,70.8c1.3,1.2,2.3-0.5,3-0.6
	c0.6-0.1-0.4-0.8-1.4-1C94.2,68.9,92.7,69.9,93.7,70.8z M108.4,33.8c0.1,0.4-0.2,0.4-1.2,0.4c-0.9,0-1.4,0.5-0.9,0.9
	c0.6,0.5,3.1,0.3,3.5-0.3c0.4-0.6,1.5-0.1,1.7-0.7C111.6,33.6,108.2,33.4,108.4,33.8z M102.3,34.4c0-0.8-2.4,0.1-2,0.2
	C100.8,34.7,102.3,35.1,102.3,34.4z M108.1,31.2c1.1,0,0.8-0.7,1.5-0.6c0.8,0.1,1.7,0,1.4-0.4c-0.4-0.5-3.1-0.3-2.8,0.1
	c0.3,0.4-2.2,0.2-2.2,0.4C106.2,30.9,107,31.2,108.1,31.2z M108.9,32.1c0.1-1-1.5-0.2-2.7-0.7c-1.2-0.5-1.9-0.5-1.1,0.2
	c0.4,0.3-2.1,0.6-1.7,1C104.3,33.5,108.8,33.1,108.9,32.1z M101.9,58.2c0,0.5-0.2,0.8-1.1,0.8c-0.9,0,0.4,0.6,0.5,1.1
	c0.1,0.5-0.9,0.1-0.9,0.9c0,0.8-1.7,0-2,1c-0.2,1,0.8,0.9,1.6,0.9c0.8,0-0.3,0.8,0.3,1.2c0.6,0.4,1,0.3,0.6-0.5
	c-0.4-0.8,2,0.3,1.3,0.9c-0.7,0.6,1.1,1.1,2,1.1c0.9,0,4.1,0.7,4.1,0c0-0.5-1.2-0.9-2.2-1.9c-1-1-1.7-2.7-0.6-3.4
	c1.1-0.7,0.1-1,1.3-1.8c1.1-0.8,0.5-1.6,1.4-1.6c0.9-0.1-0.1-0.9,0.8-1.1c0.9-0.1,1.1-1.2,1-1.5c-0.1-0.4,1,0,1.5-0.5
	c0.5-0.6,1.7-0.2,2.1-1c0.4-0.8,5.8-2.6,8.8-3.3c3.1-0.7,5.2-2,4.1-2.8c-1.1-0.8-4.1,0.3-4.9,0.9c-0.8,0.6-1.8,0.2-2.6,0.6
	c-0.8,0.4-2.3,0.8-3.1,0.3c-0.8-0.5-1.7,0.6-2.3,0.6c-0.6,0-1.3,0.6-2,0.6c-0.7,0-2,0.5-2.1,0.9c-0.1,0.4-1.2,0.3-1.2,0.8
	s-0.9,0.9-1.4,0.5c-0.5-0.4-1,0.5-0.4,1.1c0.7,0.6-1.2,0.7-0.9,1c0.3,0.4-0.7,0.6-0.5,1c0.2,0.4-0.7,0.6-1.4,0.7
	c-0.7,0.1-1.1,1.1-0.2,1.1c0.9,0-0.5,0.2-0.4,0.9C103.4,58.2,101.9,57.7,101.9,58.2z"/>
<g>
	<defs>
		<path id="SVGID_1_" d="M229.2,120.6c0-0.8-0.9-0.6-1.3-0.3c-0.3,0.2-1.3,0-1.6,0.6c-0.3,0.6-0.8,0.2-1.4,0.3
			c-0.7,0.1-1.6-0.2-1.5-0.6c0-0.4-0.4-0.8-0.3-1.4c0-0.5-0.7-0.3-1.1-0.8c-0.5-0.5-1.4-0.8-1.6-0.7c-0.2,0.1-0.8-0.5-1.6-0.6
			c-0.8,0-0.7-0.6-0.6-0.9c0.1-0.3-0.7-1.4-0.8-1.9c-0.1-0.6-0.7-0.7-0.9-1.9c-0.2-1.2-0.9-0.9-0.8-1.5c0.1-0.6-0.8-0.8-1-1.2
			c-0.2-0.3-1.2-0.2-1.9-0.6c-0.7-0.4-1.1-0.1-1.8-0.3c-0.7-0.2-2.2,0.2-2.3,0.2s-1.4-0.2-2,0.7s-0.1,0.8,0.1,0.8
			c0.3,0,0.4,0.8,0.5,1.1c0,0.3-0.5,0.7-0.7,0.8c-0.2,0.1-0.9,1.1-1,1.5c-0.1,0.4-0.8,1.3-0.8,1.6c0.1,0.3-0.4,0.7-0.7,0.7
			c-0.3,0-1.2,0.7-1.5,0.8c-0.3,0.1-1.4-0.1-1.6-0.4c0-0.1-0.2-0.2-0.4-0.3l-1.3,2.5l-0.1,0.8c0,0-0.8,0.2-0.2,0.8
			c0.6,0.6,0.7,0.1,1.6,0.1c0.9,0,1.3,0.7,1.5,0.2c0.2-0.5,1-0.8,1.5-0.2c0.5,0.6,2.2,1.6,2,2.1c-0.1,0.5-1,0.4-1.6,0.2
			c-0.6-0.2-1.4,0.4-2,0.4c-0.6,0-1.3,0.2-1.9,0.8c-0.6,0.6-0.5,1.2-1.4,1.3c-0.9,0.1-1.3,0-2.4,0.7c-1,0.7-2.2,0.4-2.6,0.2
			c-0.4-0.2-1.1-0.3-1.5,0.4c-0.4,0.7,0.5,1,0.4,1.8c-0.1,0.8-1.1,0.6-1.9,1.5c-0.8,0.9-2.1,1.3-2.9,1.2c-0.7-0.1-2.2-0.5-3.6,0.1
			c-1.3,0.6-2.3,1.5-2.8,1.4c-0.5-0.1-0.5-0.7-1.2-0.6c-0.7,0.1-1.1-0.1-1.6-0.4c-0.5-0.3-0.9,0.2-1.7-0.4c-0.8-0.6-2.3-0.5-2.9-0.6
			c-0.6-0.1-3,0-3.8-0.1c-0.8-0.1-1.9,0.2-2-0.2c-0.1-0.4-0.7-0.7-0.9-1.6c-0.2-0.9-0.7-1.2-1.2-1.3c-0.5-0.1-0.6-0.6-1-0.7
			c-0.2,0-0.5-0.7-1.2-0.7c-0.7,0-3.2-0.3-3.6-0.9c-0.4-0.6,0.4-0.7,0.4-1.3s0.4-1.4,0.1-1.6c-0.3-0.2-0.8-0.7-0.8-1.2
			c-0.1-0.5-0.8-1.1-1.4-1.1c-0.5,0-0.9-0.4-1.4-0.8c-0.5-0.4-0.9-0.4-1.1-1.5c0-0.1,0-0.1-0.1-0.2c-0.2,0-0.4-0.1-0.6-0.1
			c-0.1,0-0.3-0.1-0.4-0.2c-0.1,0.4-0.6,0.7-0.6,1c0,0.4-0.2,0.9-0.7,0.9c-0.5,0-1,0.4-1,1.2c0,0.8,0.5,0.9,0.2,1.3
			c-0.2,0.4-1.2,0.7-1.5,0.6c-0.3-0.2-0.9-0.1-1.5-0.1c-0.5-0.1-0.9-0.7-1.1,0c-0.2,0.7-1.2,2.8-1,3.1c0.3,0.2,0.5,0.7,0,0.7
			c-0.5,0-0.9-0.1-1.1-0.3c-0.2-0.2-1,0.3-1.5,0.3c-0.2,0-1.3,0.4-0.9,0.6c0.4,0.2,0.4,1,0.4,1.4c0,0.4,0.8,1.4,0.6,1.8
			c-0.1,0.4-0.8,0.7-0.8,1.2c0,0.5,0.1,0.9-0.1,1c-0.2,0.1-1,0.4-1.4,0.7c-0.4,0.3-1,0.3-1.2,0.7c-0.2,0.4-0.5,0.8-1.3,0.7
			c-0.6-0.1-1-0.2-1.4,0.4c-0.5,0.6-0.6,0.4-1,0.6c-0.4,0.3-0.7-0.2-1-0.3c-0.3-0.1-0.7,0.3-1,0.3c-0.3,0-0.5,0.5-0.9,0.6
			c-0.4,0.1-0.7,0-0.7,0.4c0,0.3-0.1,0.6-0.3,0.8h0l0.3,1.4c0,0,1.5,0.5,1.6,1c0.1,0.5,0.3,2.1,0.3,2.1s0,0,0,0
			c0.6,0.5,1.4,1,1.4,1.2c0,0.2,0.1,0.8,0.8,1.2c0.5,0.2,0.9,0.5,1.2,0.7c0-0.1,0.1-0.1,0.1-0.1l0.6-0.1c0,0,0.2,0.1,0.4,0.3
			c0.2-0.5,1.2-1.1,1.8-1c0.6,0,2,1.1,1.8,1.5c-0.1,0.4-1.1,1.8-1.6,1.9c-0.2,0-0.4,0.1-0.7,0.1c0,0.2-0.1,0.4-0.1,0.6
			c0,0.3,0.6,0.8,0.9,1.4c0.3,0.6-0.5,0.9-0.9,0.6c-0.4-0.4-0.6,0.4-0.4,0.7c0.3,0.3,0.1,1.2,0.6,1.3c0.4,0.1,0.8,0.9,1.3,0.9
			c0.5,0,0.9,0.8,0.9,0.8s0.7,0.4,0.7,0.7c0,0,0,0.1,0,0.1c0.5-0.1,0.9-0.1,1-0.3c0.1-0.2,0.8-0.2,1.3,0.2c0.5,0.5,2.5,1.8,3.2,2.4
			c0.7,0.6,2.5,1.3,3.1,1.2c0.6,0,1.2,0.4,2.1,0.4c0.1,0,0.3,0,0.4,0c0.1-0.1,0.4-0.1,0.5-0.4c0.2-0.4,0.6,0.3,0.5,0.8
			c-0.1,0.2,0,0.5,0.1,0.7c0.1-0.2,0.3-0.4,0.4-0.7c0.3-0.8,0.8-0.7,1.1-1c0.3-0.2,0.6-0.1,1.3,0.2c0.6,0.3,0.9-0.4,1.8,0.5
			c0.2-0.1,0.4-0.2,0.6-0.2c0.2,0,0.4-0.4,0.8-0.7c0.3-0.3,0.2-0.7,0.6-0.6c0.4,0.1,0.6-0.4,1.4-0.9c0.8-0.4,1.5,0.2,1.9-0.1
			c0.4-0.3,0.8-0.4,0.8-0.1c0,0.3,0.5,0.7,0.6,1.1c0.1,0.3,0.8,0.5,0.9,0.5c0.1-0.1,0.2-0.1,0.3-0.2c0.4-0.3,1.1,0,1.1,0.5
			c0,0.4,0,0.9,0.4,0.9c0.3,0,0.6,0,0.6,0.8c0,0.8,0.3,1.7-0.4,2.3c-0.7,0.7-1.4,1.9-1.3,2.2c0.1,0.4-0.2,1,0.3,0.8
			c0.5-0.2,1.6,0,1.4,0.3c-0.2,0.3,0,1.3,0.5,1.3c0.5,0,0.7,0.3,0.6,0.7c-0.1,0.4-0.4,1.1,0,1.1c0.4,0,1,0,0.9,0.4
			c-0.1,0.4,0.3,0.8,1,0.5c0.4-0.2,0.6-0.3,0.7-0.2c0.3,0,0.3,0.6,0.8,0.8c0.5,0.1,0.3-1.1,0.1-1.3c-0.2-0.2,0.1-1,0.3-0.8
			c0.2,0.2,0.8,0,1.1-0.4c0.3-0.4,0.9,0.3,1.2-0.1c0.3-0.4,0.8,0.3,1.4,0c0.6-0.3,0.8,0.2,1.1-0.2c0.3-0.4,1.1-1,1.3-0.8
			c0.2,0.2,0.3,0.6,1.3,0.7c1,0.1,0.4,0.6,0.4,0.9s1.1,1.1,1.6,1.2c0.1,0,0.2,0.1,0.3,0.3c0.3-0.2,0.8,0.1,1-0.3
			c0.1-0.4,0.7-0.3,0.9,0c0.2,0.4,0.4,0.4,0.9,0c0.5-0.4,0.7,0.4,0.4,0.7c-0.3,0.2-0.1,1,0.3,1.4c0.4,0.4,0.5-0.3,0.4-0.7
			c-0.1-0.4,0.8-0.8,2.2-1.3c1.5-0.5,3.1-1.6,3.1-1.8c0-0.2,1.1,0.4,1.6,0c0.5-0.4,2.3-0.4,2.7-0.4c0.5,0,0.4-0.4,0.9-0.8
			c0.5-0.4,0.4-0.6,0.9-0.8c0.6-0.2,0.9-0.7,0.9-1c0-0.3,1.1-0.4,1.1-0.7c0-0.3,0.8-0.4,0.8-0.8c0-0.4,0.5-0.3,0.7-0.6
			c0.2-0.3-0.2-1.1,0.2-1.2c0.4-0.1-0.1-0.6-0.2-0.8c-0.1-0.2,0.7-0.3,1.1-0.5c0.4-0.3,0.7-0.7,0.7-1.1c0.1-0.4,0.7-0.8,1-1
			c0.3-0.1,0.4-0.8,0.3-1.3c-0.1-0.5,0.5-0.4,0.3-0.6c-0.3-0.2,0.1-0.8,0.7-1c0.6-0.2-0.4-0.4-0.7-0.2c-0.3,0.2-0.6-0.7-0.9-0.3
			c-0.3,0.4-1.1-0.2-0.6-0.3c0.5-0.1,1.3-0.7,1.7-0.8c0.4-0.1-0.5-0.9-1-0.9c-0.4,0-0.9-1-1.4-1c-0.5,0,0.4-0.3,0.9,0
			c0.5,0.3,1.2,0.5,1.4,0.3c0.2-0.2-0.9-1.2-1.3-1.5c-0.4-0.3,0-0.8-0.3-1c-0.3-0.2-0.8-1.4-1-1.9c-0.2-0.5-1.2-0.6-1.4-1
			c-0.2-0.4,0-1.2,0.8-1.5c0.7-0.3,0.4-0.9,0.8-0.8c0.3,0.1,0.6-0.1,0.9-0.6c0.3-0.5,0.7-0.2,1-0.5c0.3-0.3,1.4-0.3,1.8-0.5
			c0.4-0.3-0.4-1.2-0.9-1c-0.5,0.1-1.2-0.1-1.5-0.6c-0.4-0.6-1.4,1-2.1,1.4c-0.8,0.4-1.2-0.6-1-1.3c0.3-0.6-0.6-0.6-1.6-0.6
			c-1.1,0-0.7-1.9,0-2c0.6-0.1,1.6,0.6,2-0.6c0.4-1.2,1-0.3,1.9-1.3c0.9-1,1.9-1.7,2.7-1.1c0.8,0.6-0.8,1.6-1.1,2.2
			c-0.3,0.6,0.2,0.8-0.2,1.2c-0.5,0.4,0.2,0.6,1.1,0c0.9-0.6,2-1.3,2.9-1.6c0.2-0.1,0.5-0.1,0.8-0.1c0.1-0.3,0.3-0.6,0.4-0.7
			c0.6-0.3,2.7-1.2,3-1.6c0.3-0.4,0.6-1.1,1-1.1c0.4,0,0.4,0.4,1,0.4c0.6,0,1.3,0.2,1-0.3c-0.3-0.5-0.1-0.5,0.6-0.6
			c0.7-0.1,0.6-0.8,1.1-0.8c0.5,0,0.4-1.2,0.9-1.2c0.5,0,0.7,0.7,1.3,0.5c0.1,0,0.3,0,0.4,0.1c0.1-0.1,0.3-0.2,0.4-0.3
			c-0.1-0.6,0-1.2-0.1-1.5c-0.2-0.6,0-1-0.1-1.3c-0.1-0.3-0.1-1.1,0.2-1.1c0.4,0,0.8-0.9,1.3-0.6c0.5,0.3,1.4,0.4,1.4,0
			c0-0.4,0.7-0.5,0.8-1c0.1-0.6,0.8-0.7,0.9-1.2c0.1-0.5,0.4-1.7,0.8-2C229.8,121.7,229.2,121.5,229.2,120.6z M206.2,165.1
			c-0.5,1.9,0.7,2.8,0.8,2.7c0.5-0.3,2.4-4.4,2-4.9C208.6,162.3,206.7,163.2,206.2,165.1z M189.5,171.5c-0.6,0-2.2,0.9-1.6,2.2
			c0.6,1.3,2.6,0.4,2.7-0.1c0-0.6,1-1.4,0.8-1.9C191.3,171.3,190.1,171.5,189.5,171.5z"/>
	</defs>
	<use xlink:href="#SVGID_1_"  style="overflow:visible;fill:#262418;"/>
	<clipPath id="SVGID_2_">
		<use xlink:href="#SVGID_1_"  style="overflow:visible;"/>
	</clipPath>
	<use xlink:href="#SVGID_1_"  style="overflow:visible;fill:none;stroke:#3D3B26;stroke-width:0.5;stroke-miterlimit:10;"/>
</g>
<g>
	<defs>
		<path id="SVGID_3_" d="M203.8,120.9c-0.5-0.6-1.3-0.3-1.5,0.2c-0.2,0.5-0.6-0.2-1.5-0.2c-0.9,0-1,0.5-1.6-0.1
			c-0.6-0.6,0.2-0.8,0.2-0.8l0.1-0.8l1.3-2.5c-0.4-0.1-0.9-0.2-1.2-0.1c-0.4,0.1-1.3,0-1.4-0.3c-0.1-0.3-1.6-0.4-2-0.1
			c-0.4,0.3-1.2,0.5-1.3,0.8c0,0.3-0.9,0.2-1.3,0.5c-0.3,0.2-2,0.3-2.1,0.5c0,0.2-1.8,0.2-2.1,0c-0.3-0.2-1.8,0-2-0.4
			c-0.2-0.4-0.8-0.6-0.8-0.9c0-0.3-1.2-0.3-1.3-0.6c-0.1-0.3-1.1-0.4-1.2-0.3c-0.1,0.1-1.2-0.3-1.5-0.3c-0.3,0-1.2,0.2-1.5,0.2
			c-0.3,0-0.8,0.5-1.1,0.6c-0.3,0-1.2-0.6-1.4-0.4c-0.2,0.1-0.8-0.5-1-0.8c-0.2-0.3,0-1.1-0.2-1.4c-0.2-0.3-1.2-0.3-1.5-0.5
			c-0.3-0.2-0.8-0.5-1.2-0.5c-0.3,0-0.8-0.1-1-0.2c-0.1-0.1-0.8-0.4-1.2-0.5c-0.3-0.1-0.4,0.3-0.6,0.5c-0.2,0.2-0.8,0.2-0.8,0.6
			c-0.1,0.3-0.8,0.4-0.7,0.8c0.1,0.4,0.3,1.1,0.6,1.3c0.2,0.2,0.1,0.8,0,0.9c-0.1,0.2-1.1,0.3-1.3,0.7c-0.2,0.3-0.7,0-1.1-0.3
			c-0.5-0.3-1-0.1-1.3,0.1c-0.2,0.2-1.1-0.5-1.3-0.5c-0.2,0-0.3-0.9-0.5-0.9c-0.2,0-1.9-0.3-2.2-0.4c-0.3-0.1-1,0-1.1,0.2
			c-0.1,0.2-0.9,0.2-1.1,0.5c-0.1,0.3-0.8,0.4-1,0.7c-0.2,0.3-1,0.3-1.2,0.7c-0.2,0.4-1.2,0.6-1.5,0.7c-0.3,0-1,0.2-1.1,0.4
			c0,0.1-0.1,0.1-0.3,0.1c0,0.1,0,0.1,0.1,0.2c0.2,1.1,0.7,1,1.1,1.5c0.5,0.4,0.9,0.7,1.4,0.8c0.5,0,1.3,0.7,1.4,1.1
			c0.1,0.5,0.6,1,0.8,1.2c0.3,0.2-0.1,1-0.1,1.6s-0.7,0.7-0.4,1.3c0.4,0.6,2.9,0.9,3.6,0.9c0.7,0,1,0.7,1.2,0.7
			c0.5,0.1,0.5,0.6,1,0.7c0.5,0.1,1,0.4,1.2,1.3c0.2,0.9,0.8,1.2,0.9,1.6c0.1,0.4,1.2,0.1,2,0.2c0.8,0.1,3.2,0,3.8,0.1
			c0.6,0.1,2,0,2.9,0.6c0.8,0.6,1.2,0.1,1.7,0.4c0.5,0.3,0.9,0.5,1.6,0.4c0.7-0.1,0.7,0.5,1.2,0.6c0.5,0.1,1.4-0.8,2.8-1.4
			c1.3-0.6,2.9-0.2,3.6-0.1c0.7,0.1,2-0.3,2.9-1.2c0.8-0.9,1.8-0.7,1.9-1.5c0.1-0.8-0.8-1.1-0.4-1.8c0.4-0.7,1.1-0.6,1.5-0.4
			c0.4,0.2,1.5,0.5,2.6-0.2c1-0.7,1.4-0.6,2.4-0.7c0.9-0.1,0.8-0.7,1.4-1.3c0.6-0.6,1.3-0.8,1.9-0.8c0.6,0,1.4-0.6,2-0.4
			c0.6,0.2,1.5,0.3,1.6-0.2C206,122.5,204.3,121.5,203.8,120.9z"/>
	</defs>
	<use xlink:href="#SVGID_3_"  style="overflow:visible;fill:#262418;"/>
	<clipPath id="SVGID_4_">
		<use xlink:href="#SVGID_3_"  style="overflow:visible;"/>
	</clipPath>
	<use xlink:href="#SVGID_3_"  style="overflow:visible;fill:none;stroke:#3D3B26;stroke-width:0.5;stroke-miterlimit:10;"/>
</g>
<g>
	<defs>
		<path id="SVGID_5_" d="M154.6,117.1c0-0.3-0.3-0.2-0.6,0c-0.2,0.1-1,0.2-1.3,0.2c-0.3,0-0.8-0.4-0.8-0.7c0-0.3-0.1-0.6-0.3-0.6
			c-0.3,0-0.7-0.1-1-0.8c-0.3-0.7-0.7-0.7-1-0.8c-0.3-0.2-1.2,0.3-1.6,0.5c-0.4,0.1-1.1-0.1-1.6-0.2c-0.5-0.1-0.8-1-1.2-0.9
			c-0.5,0.1-0.6,1-0.9,1c-0.4,0-1-1.8-1.7-2.9c-0.7-1-1.9-3.1-2.9-3.5c-1.1-0.4-0.7-0.9-0.5-1.2c0.3-0.3-0.6-0.4-1.1-0.1
			c-0.4,0.2-1,0.7-1.4,0.8c-0.5,0.1-1.2,0.9-1.7,0.7c-0.5-0.2-0.8,0.7-1.2,0.3c-0.4-0.4,0.6-0.7,0.6-1c0-0.4-0.7,0.1-0.8-0.1
			c-0.2-0.2-0.7-0.4-0.7-0.1c0,0.3-0.5,0.1-0.5-0.1s-0.3-0.7-0.6-0.4c-0.3,0.3-1.2,0.5-1.4,0.2c-0.2-0.2,0.1-0.3,0.2-0.7
			c0-0.3-0.3-0.7-0.3-1.1c0.1-0.4-0.7-0.8-1-0.6c-0.4,0.1-0.8,0-1.2-0.2c-0.4-0.2-1.9,0.1-2,0.5c-0.1,0.4-2,0.6-2.3,0.8
			c-0.4,0.1-1.8,0.4-2.3,0.4c-0.5,0.1-1,0.5-1.6,0.5c-0.6,0-1.8,0.1-2.4,0.5c-0.6,0.4-1.5,0.1-1.9,0.2c-0.4,0.1-1.1-0.1-1.3,0.1
			c-0.2,0.1-0.1,1,0.1,1.3c0.2,0.4,1.3,0.5,1.4,0.7c0.1,0.2-1.1,0.2-1.7,0.3c-0.6,0.1-0.4,0.8-0.3,1.1c0.1,0.4-0.6,0.7-1,0.8
			c-0.4,0.1,0,0.8,0.4,0.8c0.4,0,0.8,0.4,1.1,0.4c0.4,0,0.4,0.7,0.4,1.1c0,0.4-0.4,0.6-1,0.6c-0.6,0-0.8-0.4-1.2-0.5
			c-0.4-0.1-0.3,0.6-0.6,0.8c-0.3,0.1-0.4-0.5-0.8-0.5c-0.4,0-0.9-0.1-1.1-0.5c-0.1-0.4-1.1-0.5-1.6-0.1c-0.4,0.4-0.6,0.2-0.9-0.1
			c-0.4-0.3-1.4,0.1-1.5,0.5c-0.1,0.4-0.9,0.5-1.5,0.1c-0.6-0.4-0.9-0.5-0.9,0c0,0.5-0.4,0.1-0.4-0.2c0-0.3-0.9-0.8-1.3-1.1
			c-0.4-0.3-1.8-0.3-1.8-0.6c-0.1-0.3-0.9-0.5-1.1,0c-0.2,0.5-0.6,0.1-0.8,0c-0.3-0.1-0.9,0.2-1.2,0.4c-0.3,0.1-1.2,0.8-1.7,0.8
			c-0.5,0-0.2,0.6-0.8,0.8c-0.6,0.1-0.5,0.6-0.4,0.8c0.1,0.3,0.4,0.8-0.1,1c-0.6,0.2-0.8-0.7-1.3-1.1c-0.5-0.4-0.9,0.1-0.9,0.6
			c0,0.5-0.6,0.5-0.8,1c-0.3,0.5,0.5,0.6,0.5,0.8c0,0.2-0.4,0.4-0.6,0.5c-0.1,0.1-0.5,0.8-0.4,1c0.1,0.2,1,0.1,0.9,0.6
			c-0.1,0.5-0.1,1,0.3,0.8c0.4-0.1,0.8-0.1,1.1-0.1c0.3,0,0.5,0.6,1,1.1c0.5,0.6,0.7,0.8,0.2,1c-0.5,0.1-0.3,0.4,0.4,0.7
			c0.2,0.1,0.3,0.2,0.5,0.3c0.1-0.1,0.2-0.1,0.3-0.2c0.8-0.7,2.3-1.4,3.3-1.1c1.1,0.3,2-0.2,2.4,0.5c0.5,0.7,0,1.9,0.2,2.3
			c0.2,0.5-0.8,0.5-1.6,0.4c-0.7-0.1-2.2,0.3-2,0.7c0.2,0.4,0.7,1.4-0.2,0.9c-0.9-0.5-1.3,0.5-0.8,0.5c0.5,0,1.2,0.6,1.2,1
			c0,0.4,0,1.4,0.5,1.2c0.5-0.1,0.5,0.7,1.1,0.7c0.7,0,1.3,0.2,0.8,0.8c-0.5,0.6,0.3,2.3,0.5,1.9c0.1-0.2,0-0.7,0.2-1.1
			c-0.4-0.9,1.2-0.9,1.6-0.9c0.5,0,1.4,0.8,1.9,1.5c0.6,0.8,1.1,0.2,1.1,0.2l0.2-7l4-1.1c0-0.1,0.1-0.2,0.1-0.3
			c0.5-0.8,1.2-0.1,1.5,0c0.2,0.1,0.1-0.8,0.7-0.8c0.6,0,0,0.9,0.4,0.9c0.3,0,1.1,1.2,0.8,2.1c0.6,0.5,1.8,1.7,1.9,2
			c0.1,0.4,1.8-0.2,2.1-0.1c0.3,0.1,2.8,0.1,3.2,0.1c0.4,0,0.8,0.8,1.3,0.9c0.5,0.1,0.3,0.9,0.4,1.5c0.1,0.6,0.8,1.1,0.9,1.6
			c0.1,0.5,0.9,0.3,1.4,0.4c0.5,0.1,1.3,0.3,1.3,0.8c0.1,0.5,0.7,0.1,0.8-0.3c0.1-0.4,0.7-0.9,1.6-1.3c0.4-0.2,0.7-0.2,0.9-0.1
			c0.2-0.5,0.4-0.8,0.5-0.9c0.3-0.1,0.9-0.6,1-1.1c0-0.5,1.3-0.5,2.2,0c0.8,0.4,1.4,0.4,1.4-0.2c0-0.7,1.3-0.8,1.6-0.7
			c0.4,0.2,1.5,0.8,2.1,0.6c0.6-0.2,3.4,0,4.1,0.2c0.7,0.2,0.9-0.3,1.5,0.4c0.5,0.6,0.8,0.1,1.3,0.5c0-0.2,0-0.4,0-0.6
			c0-0.5,0.7-0.8,0.8-1.2c0.1-0.4-0.6-1.4-0.6-1.8c0-0.4,0-1.2-0.4-1.4c-0.4-0.2,0.7-0.6,0.9-0.6c0.5,0,1.3-0.5,1.5-0.3
			c0.2,0.2,0.7,0.3,1.1,0.3c0.5,0,0.3-0.5,0-0.7c-0.3-0.2,0.8-2.3,1-3.1c0.2-0.7,0.6-0.1,1.1,0c0.5,0.1,1.1,0,1.5,0.1
			c0.3,0.2,1.3-0.2,1.5-0.6c0.2-0.4-0.3-0.5-0.2-1.3c0-0.8,0.5-1.2,1-1.2c0.5,0,0.7-0.5,0.7-0.9c0-0.4,0.4-0.6,0.6-1
			C154.8,117.5,154.7,117.2,154.6,117.1z M114.4,123.9c-0.2,0.3-2-0.2-2.2-0.6C112.1,122.9,114.8,123.4,114.4,123.9z M141.1,123.8
			c-1.3,0-4.2-0.7-5.4,0.6c-1.2,1.3-0.3,1.9-0.8,2c-0.6,0.1-0.8-1.9-0.2-2.6c0.7-0.7,2.8-0.9,4.1-0.6c1.3,0.3,3.7-0.3,4-0.2
			C143.1,123.1,142.4,123.8,141.1,123.8z"/>
	</defs>
	<use xlink:href="#SVGID_5_"  style="overflow:visible;fill:#262418;"/>
	<clipPath id="SVGID_6_">
		<use xlink:href="#SVGID_5_"  style="overflow:visible;"/>
	</clipPath>
	<use xlink:href="#SVGID_5_"  style="overflow:visible;fill:none;stroke:#3D3B26;stroke-width:0.5;stroke-miterlimit:10;"/>
</g>
<g>
	<defs>
		<path id="SVGID_7_" d="M157,165.5c-0.3-0.7-0.5-1.9-0.4-2.4c0.1-0.5,0.7-0.1,0.9-0.7c0.2-0.6-1.6-0.6-1-1.3c0.6-0.8,0.6,0,1.3,0
			c0.8,0,1,0.4,1,0.9c0,0.5,0.8,0.8,0.8,0.8s1.2-0.1,1.8-0.1c0.6,0,1.1,0,1.1,0.4c0,0.4-0.7,1.6-1.2,1.6c-0.6,0-0.6,1.6-0.1,1.7
			c0.5,0.1,0.9-1.2,1.1-1.2c0.2,0,0.4,1.5,0.6,3.1c0.1-0.1,0.2-0.2,0.2-0.2c0.4,0,0.2-1.3,0.4-1.7c0.2-0.4,0.1-1.6,0.3-1.6
			c0.2,0,1.3,0.4,1.3,0.1c-0.1-0.3,0.7-1.4,0.6-1.9c-0.1-0.6,0.4-1.3,0.4-1.9c0-0.7,0.6-0.9,1.1-1.3c0.4-0.4,1.2-0.9,1.3-0.6
			c0.1,0.3,1.1,0.6,0.7,0c-0.4-0.6-0.4-0.9-0.1-1.1c0.3-0.1,0.4-0.8,0.4-0.8s-0.8-0.1-0.9-0.5c-0.1-0.4-0.6-0.8-0.6-1.1
			c0-0.3-0.4-0.2-0.8,0.1c-0.4,0.3-1.1-0.4-1.9,0.1c-0.8,0.4-1,0.9-1.4,0.9c-0.4-0.1-0.3,0.3-0.6,0.6c-0.3,0.3-0.6,0.7-0.8,0.7
			c-0.2,0-0.8,0.3-0.8,0.3s0.4,0.9,0.2,1.4c-0.2,0.4-0.9,0-1.6,0.2c-0.7,0.2-1-0.2-1.5-0.1c-0.5,0.1-0.8-0.3-1.1-0.3
			c-0.2,0.1-0.6-0.6-0.5-1.1c0.1-0.5-0.3-1.2-0.5-0.8c-0.3,0.4-0.6,0.2-0.6,0.8c0,0.6,0.3,1.3-0.1,1.6c-0.4,0.4-2.4,0.6-2.8,0.3
			c-0.4-0.3-2-0.5-2.1-0.8c-0.1-0.3-0.6-0.9-0.9-0.9c-0.3,0-1.3,0.4-1.5,0.2c-0.3-0.2-0.9-0.7-1.3-0.8c-0.4-0.1-1.1-0.4-1.2-0.6
			c-0.1-0.2-1.1-0.4-1.3-0.6c-0.2-0.3-0.8-0.3-0.8-0.6c0-0.3,0.3-0.8,0.3-1.2c0-0.4,0.8-0.8,0.8-1c0-0.3-0.7-0.7-0.7-0.7
			s-0.4-0.8-0.9-0.8c-0.5,0-0.9-0.9-1.3-0.9c-0.4-0.1-0.3-0.9-0.6-1.3c-0.2-0.3-0.1-1.1,0.4-0.7c0.4,0.4,1.3,0,0.9-0.6
			c-0.3-0.6-0.9-1.1-0.9-1.4c0-0.3,0.4-1.3-0.1-1.5c-0.4-0.2-0.8-0.6-0.9-1.1c-0.1-0.4-0.6-0.8-0.6-0.8l-0.6,0.1c0,0-0.4,1-0.6,1.1
			c-0.3,0.1-1.1,0.3-1.6,0.6c-0.4,0.3-1.7-0.4-2.4-0.4c-0.7,0-1.1,0.7-0.8,0.9c0.3,0.2,0.2,1.5,0.2,1.5s0.4,1.6,0.9,1.5
			c0.6-0.1,1.3,0.6,0.8,0.7c-0.5,0.1-0.8,0.7-0.8,1.2c-0.1,0.5,0.1,1.1-0.3,1.2c-0.4,0.1-0.8,0.2-0.8,0.9c0,0.7-0.8,0.5-0.9,0.8
			c-0.1,0.3-0.4,1.5-0.6,1.7c-0.2,0.2-1.3,0.2-1.3,0.8c-0.1,0.6-0.6,1.3-0.9,1.2c-0.3-0.1-0.9-0.3-1.1,0.1c-0.2,0.4-1-0.3-1.2-0.1
			c-0.2,0.2-1.2,1-1.2,1.5c0,0.5,1.1,0.5,1,1.1c-0.1,0.6,0.4,1.3,0.7,1.6c0.3,0.3,0.8,1.1,0.6,1.4c-0.2,0.4-0.6,0.4-1.2,0.3
			c-0.6-0.1-0.5,0.3-1.5,0.1c-1-0.2-1.1,0.6-1.4,1c0,0-0.1,0.1-0.1,0.1c0.5,0.4,0.7,1,1.5,1.3c0.9,0.4,1.7-0.6,1.7,0.1
			c0,0.7-2.2,0.5-2.2,0.8c0,0.2,2.2,3,3.4,2.7c1.1-0.2,2-1.5,1.7-1.6c-0.3-0.2,0.2-1,0.5-0.8c0.3,0.1,0,1.4,0.4,1.6
			c0.4,0.3,0.2,0.8,0,1.5c-0.2,0.7,0.2,1.9,0.3,2.7c0.1,0.7,0.6,1.8,0.7,2.9c0.2,1.1,0.8,3.1,1.5,4.3c0.6,1.2,1.1,3.5,1.6,4.1
			c0.4,0.6,1.5,2.3,1.5,3.3c0,1.1,1.2,2.5,1.6,2.8c0.4,0.3,1.3-0.3,1.5-1c0.2-0.7,1.4-0.9,1.5-1.5c0.1-0.6,0.2-1,0.6-1.1
			c0.4-0.1,0.4-0.5,0.4-1.1c0-0.6,0-1.5,0.5-2c0.4-0.5,0.5-2,0.2-2.6c-0.3-0.6-0.1-1.4,0.1-2c0.2-0.6,0.1-1.3,0.6-1.3
			c0.4,0,1.1-0.4,1.6-1.1c0.5-0.6,1.9-1.5,2.4-1.9c0.5-0.4,2.1-1.8,2.6-2.6c0.5-0.8,1.8-1,2.4-1.7c0.6-0.6,0.4-1,0.5-1.6
			c0.1-0.7,2.1-1,2.8-1c0.2,0,0.3,0,0.4,0C157.6,167.3,157.3,166,157,165.5z"/>
	</defs>
	<use xlink:href="#SVGID_7_"  style="overflow:visible;fill:#262418;"/>
	<clipPath id="SVGID_8_">
		<use xlink:href="#SVGID_7_"  style="overflow:visible;"/>
	</clipPath>
	<use xlink:href="#SVGID_7_"  style="overflow:visible;fill:none;stroke:#3D3B26;stroke-width:0.5;stroke-miterlimit:10;"/>
</g>
<path class="st0" d="M73.9,146.8c0.3-0.3,0.5-1.3-0.8-1.2c0,0.1,0,0.1,0,0.2c0,0.5-0.8,1.5-1.2,2.4l0.8,0.3
	C73.1,147.8,73.7,147,73.9,146.8z"/>
<path class="st0" d="M73.9,146.8c-0.2,0.2-0.8,1-1.2,1.7l0.1,0l0.1,0.6l1.4,0.8c0,0,1.1-0.8,1.5-0.8c0.4-0.1,5.5-2.8,5.5-2.8
	s0.4-0.7,0.4-0.9c-0.1-0.3-0.1-0.9,0.1-1.3c0.3-0.3-0.3-0.8-0.1-1.3c0.2-0.5,1-0.8,1-0.8l0.9-0.7l-0.6-0.2c0,0-0.8,0.3-1.8,0.2
	c-0.9-0.1-1.1,0.6-2.1,0.6c-1,0-1.6,0.3-1.8-0.1c-0.2-0.3-0.3-0.1-1,0.2c-0.7,0.3-1.1,0.3-1.4,0c-0.3-0.3-0.6,0.1-0.6,0.4
	c-0.1,0.3,0,1-0.9,1.1c-0.1,0.3-0.2,0.6,0,0.8c0.2,0.3,0,0.7-0.1,1.2C74.4,145.5,74.2,146.5,73.9,146.8z"/>
<path class="st0" d="M217.2,139.8c-0.1,0.1-0.6,0.4-0.9,0.7c0.2,0.3,0.1,0.8,0.5,0.8c0.5,0,0.4,0.8-0.1,0.7
	c-0.5-0.1-0.5,0.7-0.1,1.5c0.5,0.7-0.9,1.6-0.5,1.9s0.1,0.8,0.2,1.1c0.2,0.2,2.2-0.1,3-1c0.9-0.9,1.1-0.8,1.6-0.7
	c0.4,0.1,0.9-0.3,0.7-0.7c-0.2-0.4-0.5-1.2-0.4-2.3c0-0.6-0.8-1.8-1.6-2.7c-0.3,0.2-0.5,0.3-0.8,0.3
	C218.1,139.5,217.4,139.5,217.2,139.8z"/>
<path class="st0" d="M163,168.2c-0.3-1.6-0.4-3.1-0.6-3.1c-0.3,0-0.7,1.3-1.1,1.2c-0.5-0.1-0.5-1.7,0.1-1.7c0.6,0,1.2-1.2,1.2-1.6
	c0-0.4-0.6-0.4-1.1-0.4c-0.6,0-1.8,0.1-1.8,0.1s-0.8-0.3-0.8-0.8c0-0.5-0.3-0.9-1-0.9c-0.8,0-0.8-0.8-1.3,0c-0.6,0.8,1.2,0.8,1,1.3
	c-0.2,0.6-0.8,0.2-0.9,0.7c-0.1,0.5,0.1,1.7,0.4,2.4c0.2,0.5,0.5,1.8,0.6,2.9c0.4-0.1,0.7-0.3,1.1-0.3c0.5,0,1.2-0.1,1.3-0.6
	c0-0.5,0.6-0.9,1-0.8c0.3,0.2,0.8,1.5,0.8,2.2c0,0.2,0.1,0.5,0.2,0.8c0.3-0.3,0.6-0.5,0.6-0.5S162.7,168.5,163,168.2z"/>
<path class="st0" d="M72.1,149.5c-0.2,0.1-0.3,1-0.3,1.2c0,0.1,0.1,0.6,0.6,1c0.1-0.7,0.1-1.6,0.2-1.9c0-0.1,0-0.2,0.1-0.3
	C72.4,149.5,72.2,149.5,72.1,149.5z"/>
<path class="st0" d="M71.5,154.7c0.1,0,0.1,0.1,0.2,0.1c0.1-1,0.3-2.1,0.5-2.3c0.1-0.1,0.2-0.4,0.2-0.8c-0.4-0.4-0.6-0.9-0.6-1
	c0-0.1,0.1-1.1,0.3-1.2c0.1,0,0.2,0,0.5,0c0-0.3,0.1-0.7,0.1-1.1l-0.8-0.3c-0.1,0.3-0.2,0.5-0.3,0.7c-0.1,0.8-0.9,2.2-1.3,2.8
	l1.1,2.8L71.5,154.7z"/>
<path class="st0" d="M77.9,148c-1,0.5-1.9,0.9-2,1c-0.4,0.1-1.5,0.8-1.5,0.8l-1.4-0.8l-0.1-0.6l0,0c-0.1,0.5-0.1,1.2-0.2,1.4
	c-0.1,0.4-0.1,2.3-0.4,2.6c-0.2,0.2-0.4,1.3-0.5,2.3c0.5,0.3,1.1,0.6,1.4,0.6c0.6,0.1,1.3-0.6,1.3-0.9c0-0.4,0.5-0.4,1-0.4
	c0.5,0,0.6-0.6,0.9-0.8c0.4-0.2-0.8-1.3-1.2-1.4c-0.4-0.1,0.3-0.9,1.6-1c1.3-0.1,0.9-0.5,1.6-0.5c0,0,0.1,0,0.1,0
	c-0.1-0.5-0.3-1.2-0.4-1.6C78,148.6,77.9,148.3,77.9,148z"/>
<path class="st0" d="M143.2,131.3c-0.6-0.7-0.8-0.2-1.5-0.4c-0.7-0.2-3.5-0.5-4.1-0.2c-0.6,0.2-1.7-0.4-2.1-0.6
	c-0.4-0.2-1.6,0-1.6,0.7c0,0.7-0.6,0.7-1.4,0.2c-0.8-0.4-2.1-0.4-2.2,0c0,0.5-0.7,0.9-1,1.1c-0.1,0.1-0.3,0.4-0.5,0.9
	c0.3,0.1,0.4,0.3,0.6,0.5c0.3,0.4,1.1,0.3,1.3-0.1c0.1-0.4,1.4,0.4,2.2,1c0.8,0.6-0.4,0.2-0.7,0.8c-0.3,0.6-1.3,0-1.5,0.3
	c-0.2,0.2-1.9,0.4-2.3,0.3c-0.4-0.1-1.2,0.6-1.1,0.9c0.1,0.3,1.7-0.2,2.3,0.2c0.6,0.4,1.1-0.4,1.4,0.1c0.3,0.4,1,0.1,1.3,0.3
	c0.3,0.1,2.1-0.1,2.1-0.1c0.2-0.2,0.3-0.5,0.3-0.8c0-0.4,0.4-0.3,0.7-0.4c0.4-0.1,0.6-0.6,0.9-0.6c0.3,0,0.7-0.4,1-0.3
	c0.3,0.1,0.6,0.6,1,0.3c0.4-0.3,0.5,0,1-0.6c0.5-0.6,0.8-0.5,1.4-0.4c0.7,0.1,1.1-0.3,1.3-0.7c0.2-0.4,0.8-0.4,1.2-0.7
	c0.4-0.3,1.2-0.6,1.4-0.7c0.1-0.1,0.1-0.2,0.1-0.3C144,131.4,143.7,131.9,143.2,131.3z"/>
<path class="st0" d="M83.9,132.8c0.5-0.2,0.7,0.3,1.1,0.9c0,0,0,0.1,0.1,0.1c0.6-0.1,1-0.3,1.6-0.3c0.4,0,1,0,1.4,0.1
	c-0.1-0.1-0.1-0.3-0.1-0.3c0.1-0.3,0.8,0.1,1.1,0.3c0.2,0.2,1,0.3,1.2,0.1c0.2-0.2-0.4-0.5-0.5-0.7c-0.1-0.1,0.1-0.4,0.3-0.6
	c-0.4-0.2-0.8-0.6-1-0.5c-0.2,0.1-0.2-1-0.5-1c-0.3,0-0.3-0.2-0.6-0.2c-0.3,0-1.3,0-1.6,0.2c-0.3,0.2-0.6-0.5-1-0.5
	c-0.4,0-0.8-0.4-1-0.6c-0.2-0.3-2,0.1-2.5-0.2c-0.5-0.4-1.4-0.6-1.9-0.6c-0.1,0-0.3,0.1-0.6,0.3c0.9,0.5,2.3,0.4,2.5,1.4
	c0.2,1.1,0.8,0.7,0.6,1.6c0,0.2-0.2,0.4-0.4,0.5C83,132.9,83.7,132.9,83.9,132.8z"/>
<path class="st0" d="M86.6,140c-0.2-0.1,0.1-1.4,0-1.7s-0.4-1.3-0.1-1.3c0.3,0,0-0.8,0.4-0.8c-0.1-0.3-0.2-0.5-0.3-0.6
	c-0.2-0.2-0.9,0.2-1.2-0.5c-0.3-0.7,0-0.8-0.4-1.4c-0.4-0.6-0.6-1.1-1.1-0.9c-0.2,0.1-0.9,0.1-1.7,0c-0.8,0.7-2.4,1.2-2.9,1
	c-0.6-0.2-1.9,0.1-2.8,0.1c-0.9,0-1.2-0.7-1.9-0.6c-0.7,0-0.7-0.6-1.4-0.6c-0.7,0-0.2-0.4-2.4-0.6c-2.2-0.3-4.1,0.9-4.8,1.5
	c-0.7,0.6-3.2,0-3.5,0.2c-0.2,0.2,0,0.9-0.8,1.2c-0.8,0.3-2.7,0-3.3,0.3c-0.6,0.3-0.9,1.2-0.3,1.2c0.5,0,0.8,0.2,0.7,0.4
	c-0.2,0.2,0.4,0.9,0.1,1.2c-0.3,0.3-0.3,0.8,0,1.1c0.4,0.3,0.4,0.8,0,0.9c-0.4,0.1,0.8,0.6,0.8,0.8c0,0.2,1,0.4,1,0.6
	c0,0.3,0.3,0.4,0.8,0.2c0.5-0.1,0.7,0.5,1,1c0.3,0.5,2,0.1,2-0.4c0-0.5,0.5-0.7,1.3-0.6c0.8,0.1,1.8,1.1,2.2,1.3
	c0.4,0.1,1.2-0.3,1.6-0.3c0.5,0,1.2-0.8,1.5-0.9c0.3-0.2,0.8,0.5,1.2,0.3c0.4-0.2,0.9-0.5,1.2-0.3c0.3,0.2-0.7,0.9-0.4,1.3
	c0.1,0.2,0.1,0.3,0,0.5c1-0.1,0.9-0.8,0.9-1.1c0.1-0.3,0.3-0.6,0.6-0.4c0.3,0.3,0.8,0.3,1.4,0c0.7-0.3,0.8-0.5,1-0.2
	c0.2,0.3,0.8,0.1,1.8,0.1c1,0,1.2-0.7,2.1-0.6c0.9,0.1,1.8-0.2,1.8-0.2l0.6,0.2c0.2-0.2,0.2-0.5,0.7-0.5c0.8-0.1,1,0.5,1.4,0.3
	c0.4-0.2,1.6,1.1,1.7,0.3C87.5,141.1,86.9,140.1,86.6,140z M60.2,134c0.6-0.2,1.8,0.1,2.1-0.2c0.3-0.3-0.8-0.6-1.2-1
	c-0.2-0.2-0.3-0.5-0.4-0.8c-0.2,0.1-0.4,0.2-0.6,0.1c-0.4-0.2-1.4-0.1-1.6,0c-0.2,0.1,0.1,0.7,0.1,1.1c0,0.4-0.5,0.5-0.5,0.7
	c0,0.2-0.2,0.3-0.4,0.5c0.3,0.2,0.6,0.5,0.9,0.5C59.4,134.9,59.6,134.2,60.2,134z"/>
<path class="st0" d="M142.8,143.7c-0.6,0-1.6,0.5-1.8,1c0.1,0.1,0.2,0.3,0.3,0.4c0.1,0.4,0.5,0.8,0.9,1.1c0.3,0.2,0.2,0.6,0.2,0.9
	c0.2,0,0.5,0,0.7-0.1c0.5-0.1,1.4-1.5,1.6-1.9C144.7,144.9,143.4,143.8,142.8,143.7z"/>
<path class="st0" d="M223.2,131c-0.6,0.2-0.8-0.5-1.3-0.5c-0.5,0-0.4,1.2-0.9,1.2c-0.5,0-0.4,0.7-1.1,0.8c-0.7,0.1-0.9,0.1-0.6,0.6
	c0.3,0.5-0.4,0.3-1,0.3c-0.6,0-0.6-0.4-1-0.4c-0.4,0-0.7,0.7-1,1.1c-0.3,0.4-2.4,1.3-3,1.6c-0.2,0.1-0.3,0.4-0.4,0.7
	c0.7,0.1,1.5,0.5,1.8,0.9c0.4,0.6-0.5,1.2-0.9,1.7c-0.4,0.5,0.3,0.5,0.3,1c0,0.4,0.6,0.8,0.8,0.4c0.2-0.4,0.6-0.2,1.2-0.2
	c0.2,0,0.3,0.1,0.4,0.2c0.4-0.3,0.8-0.6,0.9-0.7c0.3-0.3,0.9-0.3,1.4-0.3c0.3,0,0.6-0.1,0.8-0.3c-0.6-0.7-1.2-1.2-1.4-1.3
	c-0.5-0.3-0.2-1.2,0.4-1.4c0.7-0.2,2.3-1.4,2.8-1.7c0.5-0.3,0.2-1.2,0.6-1.9c0.2-0.4,1-1.1,1.8-1.7C223.4,131,223.3,131,223.2,131z"
	/>
<path class="st0" d="M156.3,158.2c-0.1,0-0.2,0-0.4,0c-0.9,0-1.5-0.4-2.1-0.4c-0.6,0-2.3-0.6-3.1-1.2c-0.7-0.6-2.7-1.9-3.2-2.4
	c-0.5-0.5-1.2-0.5-1.3-0.2c-0.1,0.2-0.4,0.2-1,0.3c-0.1,0.2-0.7,0.6-0.7,0.9c0,0.4-0.3,0.9-0.3,1.2c0,0.3,0.6,0.4,0.8,0.6
	c0.2,0.2,1.2,0.4,1.3,0.6c0.1,0.3,0.8,0.6,1.2,0.6c0.4,0.1,1.1,0.6,1.3,0.8c0.2,0.2,1.2-0.2,1.5-0.2c0.3,0,0.8,0.6,0.9,0.9
	c0.1,0.3,1.7,0.5,2.1,0.8c0.4,0.3,2.4,0.1,2.8-0.3c0.4-0.4,0.1-1.1,0.1-1.6C156.1,158.3,156.2,158.2,156.3,158.2z"/>
<path class="st0" d="M173,184.2c0-0.6-0.5-0.7-0.5-1.2c0-0.5,0-1.4-0.6-1.9c-0.6-0.6-0.9-1.4-0.6-1.7s0.1-1.2,0.2-1.1
	c0.2,0.1,0.4-0.6,0.1-0.8c-0.4-0.2,0-0.9-0.3-1.1c-0.3-0.1-1.2-1.1-1.2-1.4s0.2-2.1,0.3-2.5c0.1-0.4,0.7-0.5,0.9-0.5
	c0.2,0,0.9,0.1,1.2-0.4c0.3-0.4,1.3-0.5,1.4-0.8c0.1-0.3,0.8-0.3,0.8-0.7c0-0.4,0.8-1.3,0.8-1.3c0,0,0,0,0,0c-0.1-0.2-0.3,0-0.7,0.2
	c-0.7,0.3-1.1-0.1-1-0.5c0.1-0.4-0.5-0.4-0.9-0.4c-0.4,0-0.1-0.6,0-1.1c0.1-0.4-0.1-0.7-0.6-0.7c-0.5,0-0.7-1-0.5-1.3
	c0.2-0.3-1-0.5-1.4-0.3c-0.5,0.2-0.1-0.4-0.3-0.8c-0.1-0.4,0.6-1.6,1.3-2.2c0.7-0.7,0.4-1.5,0.4-2.3c0-0.8-0.3-0.8-0.6-0.8
	c-0.3,0-0.4-0.5-0.4-0.9c0-0.4-0.7-0.7-1.1-0.5c-0.1,0-0.1,0.1-0.3,0.2c0,0,0,0,0,0s-0.1,0.6-0.4,0.8c-0.2,0.1-0.2,0.5,0.1,1.1
	c0.4,0.6-0.6,0.3-0.7,0c-0.1-0.3-0.9,0.2-1.3,0.6c-0.4,0.4-1.1,0.6-1.1,1.3c0,0.7-0.6,1.4-0.4,1.9c0.1,0.6-0.6,1.6-0.6,1.9
	c0.1,0.3-1.1-0.1-1.3-0.1c-0.2,0-0.1,1.2-0.3,1.6c-0.2,0.4-0.1,1.7-0.4,1.7c-0.4,0-0.7,1.2-0.7,1.2s-0.3,0.2-0.6,0.5
	c0.3,0.6,0.9,1.3,1.5,1.6c0.9,0.4,1.5,2.2,1.8,3.2c0.3,1,0.1,2-0.2,2.6c-0.3,0.6,0.1,0.6,0.7,0.9c0.5,0.3,1.2,0.4,1.5-0.2
	c0.4-0.6,1.2-1,1.3-1.6c0.1-0.6,0.5,0.3,0.8,0.6c0.3,0.3,0.6,1,0.6,1.8c0.1,0.8,0.1,2.8,0.8,3.4c0.7,0.6,0.8,2,0.6,2.5
	c-0.2,0.5,0.4,1.3,0.2,1.9c0,0.1-0.1,0.3-0.1,0.4C172.2,186.9,173,184.2,173,184.2z"/>
<path class="st0" d="M162,158.3c-0.9-0.9-1.2-0.2-1.8-0.5c-0.7-0.4-1-0.5-1.3-0.2c-0.3,0.2-0.8,0.2-1.1,1c-0.1,0.3-0.2,0.5-0.4,0.7
	c0.1,0.2,0.3,0.4,0.4,0.4c0.3-0.1,0.6,0.4,1.1,0.3c0.5-0.1,0.8,0.3,1.5,0.1c0.7-0.2,1.3,0.3,1.6-0.2c0.2-0.4-0.2-1.4-0.2-1.4
	S161.8,158.4,162,158.3z"/>
<path class="st0" d="M185.9,168.8c-0.4-0.1-1.6-0.9-1.6-1.2s0.6-0.8-0.4-0.9c-1-0.1-1.1-0.5-1.3-0.7c-0.2-0.2-1,0.4-1.3,0.8
	c-0.2,0.4-0.5-0.1-1.1,0.2c-0.6,0.3-1.1-0.4-1.4,0c-0.3,0.4-0.9-0.3-1.2,0.1c-0.1,0.1-0.3,0.3-0.4,0.3c0.3,0.3,0.6,0.6,0.6,0.8
	c0,0.4,0.8,0.7,0.8,1.2c0,0.5,1,0.9,1.3,0.7c0.3-0.2,1-0.4,1.1,0.3c0.1,0.7,0.5,0.7,0.5,1.2c0,0.5-1,0.2-1.2,0.7
	c-0.2,0.5,1.7,1.1,1.7,1.5s0.6,0.9,0.8,1.4c0.2,0.5,1.1,1.1,1.3,1.7c0.2,0.6,1,0.9,1.3,1.2c0.3,0.3,0.4,1,0.3,1.6
	c-0.1,0.6-0.1,1.7,0.5,2.6c0.6,0.9-0.7,1.3-1.1,1.8c-0.4,0.5-0.2,1.2-1.4,0.9c-1.2-0.3,0.2,1,0,1.4c-0.2,0.4-1.8-0.4-1.8,0
	c0,0.2-0.5,0.6-1,0.8c0.2,0.2,0.4,0.4,0.7,0.5c0.4,0.2-0.5,0.6-0.4,1.4c0,0.8,0.6,0.9,0.8,0.6c0.2-0.3,1.1-1,1.4-1.1
	c0.4-0.1,0-0.6,0.4-0.6c0.4,0,0.3-0.5,0.4-0.8c0.2-0.3,0.4-0.2,1-0.2c0.6,0,1.4-0.5,2.2-1c0.8-0.5,0.9-0.6,1.2-2.1
	c0.3-1.5-0.4-3.2-0.4-3.7c0-0.4-1.1-2.5-1.5-2.5c-0.4,0-2.2-1.9-2.6-2.2c-0.3-0.3-0.2-0.8-0.7-1.2c-0.5-0.4-0.5-1.4-0.4-2.2
	c0.1-0.7,1.2-0.9,1.1-1.4c0-0.5,0.1-0.9,0.6-0.9c0.5,0,1-0.4,1.2-0.8c0-0.1,0.1-0.1,0.1-0.1C186.1,168.9,186,168.8,185.9,168.8z"/>
<path class="st0" d="M182,186.5c0-0.4,1.6,0.4,1.8,0c0.2-0.4-1.2-1.7,0-1.4c1.2,0.3,1-0.4,1.4-0.9c0.4-0.5,1.7-0.9,1.1-1.8
	c-0.4-0.6-0.5-1.4-0.6-2c-0.4,0.3-0.9,0.3-1.1,0.2c-0.3-0.1-1.1-0.2-1.1,0.3c0,0.5-0.5,0.7-0.5,0.4c0.1-0.3-0.5-0.2-0.9-0.6
	c-0.3-0.4-1.6,0.1-2.2-0.1c-0.6-0.2-1.6,0.3-2.2,1.1c-0.6,0.7,0.1,0.7,0.1,1.4s0.4,0.7,0.2,1.2c0,0,0,0,0,0c0.6,0.3,0.4,1,0.4,1.4
	c0.1,0.4,0.7,0.2,1,0.2c0.3,0-0.2,0.5,0.1,0.8c0.3,0.3,1.1-0.3,1.3,0.1c0,0.1,0.1,0.2,0.1,0.2C181.5,187.1,182,186.8,182,186.5z"/>
<path class="st0" d="M182.1,173.9c0-0.4-1.9-1-1.7-1.5c0.2-0.5,1.2-0.2,1.2-0.7c0-0.5-0.4-0.5-0.5-1.2c-0.1-0.7-0.8-0.5-1.1-0.3
	c-0.3,0.2-1.3-0.2-1.3-0.7c0-0.5-0.8-0.8-0.8-1.2c0-0.2-0.3-0.5-0.6-0.8c-0.3,0.1-0.5,0.2-0.6,0c-0.2-0.2-0.4,0.6-0.3,0.8
	c0.2,0.2,0.4,1.4-0.1,1.3c-0.5-0.1-0.5-0.8-0.8-0.8c0,0-0.8,0.9-0.8,1.3c0,0.3-0.3,0.3-0.6,0.5c0.1,0.1,0.3,0.2,0.3,0.3
	c0.1,0.2-0.1,0.7,0.1,1.2c0.2,0.5,0.9-0.3,1.1,0.4c0.2,0.7-0.1,1-0.1,1.7c0,0.7-0.5,0.6-0.4,1.2c0.1,0.6,0.9-0.1,1.4-0.5
	c0.5-0.4,1-0.3,1.2-0.1c0.2,0.3,0.9,0.1,1-0.3c0.1-0.3,1.2-0.5,1.5-0.1c0.3,0.4,0.7,0.9,1.2,1.2c0.5,0.3-0.3,1.8,0.1,1.9
	c0.5,0.1,1.2,0.9,1.1,1.7c-0.1,0.7,0.3,1.2-0.2,1.8c0.3,0.2,0.7,0.2,0.7,0.4c-0.1,0.3,0.5,0.1,0.5-0.4c0-0.5,0.7-0.5,1.1-0.3
	c0.3,0.1,0.7,0.1,1.1-0.2c0-0.2,0-0.5,0-0.6c0.1-0.6,0-1.3-0.3-1.6c-0.3-0.3-1.1-0.6-1.3-1.2c-0.2-0.6-1.1-1.2-1.3-1.7
	C182.7,174.8,182.1,174.3,182.1,173.9z"/>
<path class="st0" d="M177.9,183.2c0-0.7-0.7-0.7-0.1-1.4c0.6-0.7,1.6-1.3,2.2-1.1c0.6,0.2,1.8-0.3,2.2,0.1c0.1,0.1,0.1,0.1,0.2,0.2
	c0.5-0.6,0.1-1.1,0.2-1.8c0.1-0.8-0.6-1.6-1.1-1.7c-0.5-0.1,0.3-1.6-0.1-1.9c-0.5-0.3-0.8-0.7-1.2-1.2c-0.3-0.4-1.4-0.3-1.5,0.1
	c-0.1,0.3-0.8,0.5-1,0.3c-0.2-0.3-0.6-0.3-1.2,0.1c-0.5,0.4-1.3,1.2-1.4,0.5c-0.1-0.6,0.4-0.5,0.4-1.2c0-0.7,0.3-1,0.1-1.7
	c-0.2-0.7-0.9,0.1-1.1-0.4c-0.2-0.5,0-1-0.1-1.2c0-0.1-0.2-0.2-0.3-0.3c-0.1,0.1-0.2,0.1-0.3,0.2c-0.1,0.3-1.2,0.4-1.4,0.8
	c-0.2,0.4-1,0.4-1.2,0.4c-0.2,0-0.8,0.1-0.9,0.5c-0.1,0.4-0.3,2.2-0.3,2.5s0.9,1.3,1.2,1.4c0.3,0.1-0.1,0.9,0.3,1.1
	c0.4,0.2,0.1,0.8-0.1,0.8c-0.2-0.1,0.1,0.8-0.2,1.1s-0.1,1.1,0.6,1.7c0.6,0.6,0.6,1.4,0.6,1.9c0,0.5,0.5,0.6,0.5,1.2
	c0,0-0.8,2.7-1.4,2.6c-0.1,0.7-0.3,1.8-0.4,2.3c-0.2,0.7-0.3,1.4,0.1,1.4c0.4,0,1.3,1,2.1,2c0.2,0.2,0.4,0.5,0.5,0.8
	c0.3,0,0.6,0,0.9,0.1c0.6,0.1,0.8,0.6,0.8,0.9c0,0.3,1.1,0.2,1.3,0.2c0.1,0,0-0.5,0.5-0.6c-0.3-0.5-1.1-1-1.8-1.1
	c-0.8-0.1-1.2-1.3-1.1-1.8c0.1-0.5-0.6-1-0.6-1.5c0-0.5-0.5-0.5-1-0.8c-0.5-0.3,0.1-1.9,0.2-2.5c0.1-0.7,1.2-2.6,0.9-3.2
	c-0.3-0.6,1.2-1.1,1.3-0.4c0.2,0.7,0.3,1,1.2,1c0.9,0,0.9,0.7,1.7,0.9c0,0,0.1,0,0.1,0c0,0,0,0,0,0
	C178.3,183.9,177.9,183.9,177.9,183.2z"/>
<path class="st0" d="M91.3,156c0,0-2.4-0.3-2.8-0.3c-0.4,0-1.3-0.1-1.9-0.6c-0.6-0.5-3.3-2.6-3.8-2.8c-0.5-0.3-2.6-1.8-3.1-1.8
	c-0.6-0.1-0.6,0-1.3,0c-0.7,0-0.4,0.4-1.6,0.5c-1.3,0.1-1.9,0.9-1.6,1c0.4,0.1,1.6,1.2,1.2,1.4c-0.4,0.2-0.4,0.8-0.9,0.8
	c-0.5,0-1,0.1-1,0.4c0,0.4-0.7,1-1.3,0.9c-0.3,0-1-0.4-1.6-0.7l-0.2,0.5l-0.1,0.4c0.1,0.3-0.1,1.7,0.3,1.8c0.4,0.1,0.5,0.8,1.3,1.6
	c0.8,0.8,2.3,3,2.3,3.6c0,0.5,0.3,1.1,1.2,1.8c0.9,0.6,0.9,1.4,1.4,1.8c0.5,0.4,0.4,0.8,0.4,1.8c0,0.9,0.4,2.2,1.3,2.7
	c0.8,0.5,1.4,1.1,1.8,2.1c0.4,1,0.9,1.9,1.5,2.4c0.5,0.5,0.2,0.8,0.5,1.2c0.2,0.2,0.4,0.6,0.5,0.9c0.4-0.2,0.7-0.4,0.7-0.4
	c0.1-0.2-0.2-0.7,0-0.9c0.1-0.2,0.4-0.5,0.7-0.6c0.3-0.1,0.6,0.3,1.2,0.2c0.6-0.1,1.8,0,2,0.2c0.1,0.1,1.8,0,2.2,0.4
	c0.4,0.3,0.8,0.2,1.1-0.4c0.3-0.6,2.2-2,2.5-2.1c0.3-0.1,2.3,0,3.1-0.2c0.8-0.2,6.2-1.9,6.4-2.1c0.2-0.2,1.1-3,1.1-3.3
	c0-0.3-0.4-1.2-0.8-1.1c-0.4,0-3.8-0.3-4-0.5c-0.2-0.1-1.1-0.8-1.2-1.7c-0.3-0.2-0.6-0.6-0.7-1c-0.4,0-1,0-1.3-0.9
	c-0.3-0.2-1.1-1.4-0.8-1.7c0.4-0.4-0.2-1.2-0.7-1.7c-0.5-0.5-1.6-1.3-1.6-1.9c0-0.1-0.1-0.4-0.2-0.7l-1.3-0.1L91.3,156z"/>
<path class="st0" d="M105.1,163v1.2l-1,1.3l-0.5,1.3c0.2,0,0.3,0,0.3,0c0.4,0,0.8,0.8,0.8,1.1c0,0.3-0.9,3.1-1.1,3.3
	c-0.2,0.1-3,1.1-4.9,1.6c0.4,0.8,1.2,2.5,1.9,4c0.1-0.1,0.3-0.1,0.4-0.2c0.9-0.5,1.9-0.3,2.6-0.4c0.7-0.2,0-0.8,0.6-1.2
	c0.6-0.5,1.4-0.1,1.7-0.3c0.3-0.2,0.5-1.2,1-1.5c0.5-0.2,1.1-0.1,1-0.5c-0.1-0.4,0-2,0.5-2.1c0.5-0.1,1.3-0.6,1.3-0.9
	c0-0.3,1-1.3,1.3-1.9c0.3-0.5,0.3-0.8-0.1-0.9c-0.4-0.1-1.2-1.3-1.3-1.7c-0.2-0.4-1.5-0.1-2.7-1c-0.4-0.3-0.7-1-0.9-1.7l-0.6,0.3
	H105.1z"/>
<path class="st0" d="M98.1,163.6c0-0.2,0-0.3,0-0.4c0.3-0.5,0.5-1.9-0.2-2c-0.7-0.2-1.1,1.2-1.1,1.6c0,0.1,0,0.1-0.1,0
	C97.1,163.6,97.7,163.7,98.1,163.6z"/>
<path class="st0" d="M99.9,166.3c0.2,0.1,2.7,0.4,3.7,0.5l0.5-1.3l1-1.3V163h0.6l0.6-0.3c-0.2-1-0.3-2-0.4-2c-0.3,0-1.4,1.2-1.9,2.1
	c-0.5,0.9-1.8,1.6-3,1.4c-1.2-0.2-1.6,0.3-1.9,0.5c-0.1,0.1-0.2,0-0.3-0.1C98.9,165.5,99.7,166.2,99.9,166.3z"/>
<path class="st0" d="M179.4,196.6c0-1.1-1-0.9-1.2-1.7c-0.2-0.7-0.6-0.3-0.8-0.8c0-0.1-0.1-0.1-0.1-0.2c-0.5,0.2-0.3,0.6-0.5,0.6
	c-0.2,0-1.3,0.2-1.3-0.2c0-0.3-0.2-0.8-0.8-0.9c-0.3-0.1-0.6-0.1-0.9-0.1c0.4,0.8,0.4,1.7,0.4,2.4c0,0.9,1.4,2.4,1.6,3.1
	c0.2,0.6,0.6,0.8,1.5,1.5c0.9,0.7,2.7,1.7,3.1,1.5c0.4-0.2-0.5-1.7-1.1-2.3C178.9,199.1,179.3,197.6,179.4,196.6z M203.4,194.8
	c-0.4,0.1-1.4,0-1.4-0.4c0-0.4-0.9-1.2-1.5-1.2c-0.6,0-1.2,1.1-1.3,1.6c0,0.5-0.9,0.4-0.8,1.1c0,0.3-0.1,0.4-0.3,0.4
	c0.1,0.6,0.2,1,0,0.9c-0.4-0.1-0.5,0.4-1,0.4c-0.2,0-0.5-0.5-0.9-1.1c0,0,0,0,0,0c-0.4,0-1.2,1.3-1.4,2.2c-0.2,0.9-1,0.6-2.3,0.7
	c-1.3,0.1-0.8,1.4-1,2c-0.3,0.6-1.7-0.5-2.4-0.6c0.1,0.5,0.3,1,0.5,1c0.4,0,0.9,0.9,1.3,0.7c0.4-0.3,1.5,0,2.1-0.2
	c0.6-0.2,0.7-0.7,1.6-0.7c0.9,0,0.6,0.8,1.5,0.3c0.9-0.5,1.5-0.1,1.4-0.9c-0.1-0.8,0.6-0.8,0.5-1.5c-0.1-0.7,1-0.2,0.9-1.4
	c-0.1-1.2,1.7-1,2.4-1c0.2,0,0.4,0.1,0.8,0.3c0.6-0.3,1.4-0.6,1-1c-0.4-0.4,1.3,0,1.5-0.6C204.7,195.1,203.8,194.7,203.4,194.8z"/>
<path class="st0" d="M197.1,197.6c0.6,0,0.7-0.5,1-0.4c0.2,0.1,0.1-0.4,0-0.9c-0.3,0.1-0.8,0.1-0.8,0.4c0,0.4-0.7-0.2-1.1-0.2
	C196.5,197.1,196.9,197.6,197.1,197.6z"/>
<path class="st0" d="M91,154.4c0.2-0.2,0.2-0.5,0.7-0.6c0.4-0.1,0.6,0.2,1.1,0.6c0.2-0.2,0.4-0.3,0.7-0.4c-0.4-0.4-0.9-0.9-0.9-1.2
	c0.1-0.5-0.5-0.8-0.6-1.1c-0.1-0.3,0.4-0.8,0.1-1.1s-0.3-0.9-0.8-0.9c-0.4-0.1-1.8-0.8-1.8-1.2c0.1-0.4-0.5-0.8-0.8-0.9
	c-0.2-0.1-0.5-1.3-0.2-1.4c0.3-0.2,0.2-1.3,0.6-1.3c0.4,0,0.1-0.6,0.2-0.9c0.1-0.4-0.3-0.6-0.6-0.6c-0.3,0-0.9-0.5-0.9-0.9
	c0-0.4-0.6-1.1-0.6-1.3c-0.1,0.8-1.3-0.5-1.7-0.3c-0.4,0.2-0.7-0.4-1.4-0.3c-0.5,0.1-0.5,0.3-0.7,0.5l0,0l-0.9,0.7
	c0,0-0.8,0.3-1,0.8c-0.2,0.5,0.4,1,0.1,1.3c-0.3,0.3-0.2,1-0.1,1.3c0.1,0.2-0.4,0.9-0.4,0.9s-1.9,1-3.4,1.8c0,0.3,0.1,0.6,0.1,0.8
	c0.1,0.3,0.3,1,0.4,1.6c0.6,0,0.7-0.1,1.2,0c0.6,0.1,2.6,1.6,3.1,1.8c0.5,0.2,3.3,2.3,3.8,2.8c0.6,0.5,1.5,0.6,1.9,0.6
	c0.2,0,1.1,0.1,1.8,0.2C90.5,155.3,90.8,154.6,91,154.4z"/>
<path class="st0" d="M91.3,156l0.8,0.7l1.3,0.1c-0.3-0.7-0.8-1.7-0.8-2c0-0.1,0.1-0.2,0.1-0.3c-0.4-0.4-0.7-0.6-1.1-0.6
	c-0.5,0.1-0.5,0.4-0.7,0.6c-0.1,0.1-0.4,0.9-0.7,1.4C90.8,155.9,91.3,156,91.3,156z"/>
<path class="st0" d="M70.1,145c0-0.3,0.3-0.8,0.8-1c0.5-0.2,0.3-0.6,0-0.3c-0.4,0.3-1.2,0.6-2.3,0.7c-1.1,0-1.4,0.7-0.7,1.1
	C68.7,146,70.1,145.3,70.1,145z"/>
<path class="st0" d="M132.9,134.4c-0.8-0.6-2.1-1.4-2.2-1c-0.1,0.4-0.9,0.4-1.3,0.1c-0.3-0.4-0.6-0.8-1.5-0.4
	c-0.9,0.4-1.6,0.9-1.6,1.3c-0.1,0.4-0.7,0.8-0.8,0.3c-0.1-0.5-0.8-0.7-1.3-0.8c-0.5-0.1-1.3,0.1-1.4-0.4c-0.1-0.5-0.8-1.1-0.9-1.6
	c-0.1-0.6,0.1-1.4-0.4-1.5c-0.5-0.1-0.8-0.9-1.3-0.9c-0.4,0-2.9,0-3.2-0.1c-0.3-0.1-1.9,0.5-2.1,0.1c-0.1-0.3-1.2-1.5-1.9-2
	c-0.1,0.3-0.2,0.5-0.5,0.7c-1.2,0.8-2.3,0.7-1.9-0.3c0.4-1,0.4-2.3-0.2-2.3c-0.6,0-0.2,2.2-0.7,2.3c-0.4,0.1-0.6-1.6-0.2-2.5l-4,1.1
	l-0.2,7c0,0,0,0,0,0c0.4,0.2,0.8,0.2,1.1,0.3c0.6,0,0.6-0.4,0.6-0.8c0-0.3,0.7-0.9,1.1-0.8c0.5,0,0.4-0.6,0.6-0.6
	c0.1,0,0.5-0.1,0.7-0.3c0.1-0.2,0.9,0,1.1,0.3c0.2,0.2,0.8,0.3,1.2,0.4c0.4,0.1,0.6,1.4,0.6,1.7c0,0.3,2,0.2,2.3,0.3
	c0.3,0,0.3,0.6,0.7,1c0.3,0.4,0.6,1,0.7,1.3c0.1,0.3,1.3,0.8,1.6,1.2c0.3,0.4,1.2,0.8,1.8,1.1c0.7,0.2,1.3,1.1,1.6,1.1
	c0.4,0,1.4,0.5,1.4,0.5l0.1,1c0,0,0.1,0,0.1,0c0.6-0.2,0.9,0.4,1.3,0.4c0.2,0,0.4,0.2,0.6,0.3c0-0.9,0.3-1.4,0.7-1.7
	c0.4-0.3-0.3-0.9-0.2-1.4c0.1-0.5-1.1-0.8-1-1.2c0.1-0.4,1.1-0.4,1.5-0.6c0.4-0.2,0.1-0.9,0.5-0.9c0.4,0,0.6-0.4,0.8-0.8
	c0.1-0.4,0.8,0,1.2-0.3c0.4-0.3,0.9-0.5,1.1-0.2c0.1,0.2-0.4,1-0.6,1.3c0.7,0,1.6-0.1,1.8-0.3c0.2-0.3,1.2,0.4,1.5-0.3
	C132.5,134.6,133.6,135.1,132.9,134.4z"/>
<path class="st0" d="M317.7,85.4c-0.3,0.2-2.4,0.1-2,0.6c0.4,0.4,2.2,0.2,3,0.7c0.8,0.5,1.9,0.1,1.9-0.3
	C320.7,86,318.1,85.2,317.7,85.4z"/>
<path class="st0" d="M246.9,128.3c-0.3-0.4-0.9,0.2-1.6,0.4c-0.7,0.1-2.9-1.7-3.5-2.5c-0.6-0.8-1.5-0.1-1,0.5
	c0.5,0.6-0.1,0.8-0.1,1.6c0,0.8-0.6,0.8-0.5,1.4c0.1,0.6-0.8,0.5-1.3,0.6c-0.6,0.1,0,0.7-0.6,0.9c-0.7,0.3-0.6,0.8-0.3,0.9
	c0.3,0.2,0.1,0.8,0,1.2c-0.1,0.4,0.4,0.1,0.8-0.3c0.4-0.4,0.8,0.2,0.8-0.2c0.1-0.5-1-0.7-0.9-1.2c0-0.5,0.8,0.1,1.3-0.1
	c0.6-0.3,1.7,0,2.4,0.6c0.7,0.6,0.9,0.4,1-0.4c0.1-0.8,1.2-1.1,2.3-1.1s1.2-0.5,0.8-0.8c-0.3-0.2,1.8-1.6,1.7-2
	C248.3,127.5,247.2,128.7,246.9,128.3z M238.3,134.8c-0.5,0.2-0.8,1.7-0.3,2.1c0.5,0.4-0.8,1.2-0.8,2.1c0,0.9-0.8,0.9-1,1.5
	c-0.1,0.7-0.7,0.5-1.5,1.1c-0.8,0.6-1.2-0.1-1-0.5c0.2-0.4-1.2,0.2-1.2,1.3c0,1-1.3,1.1-1,1.6c0.3,0.5-1,0.8-1,0.3
	c0-0.4-0.8-0.2-1.9,0.2c-1.1,0.4-1.7-0.5-2.3,0.1c-0.6,0.6-1.6,1.7-2.4,1.8c-0.8,0.1-0.3,1.1,0,0.9c0.6-0.3,1.5,0,1.7-0.4
	c0.3-0.4,2.6-0.9,4-1c1.4,0,0.6,0.7,0.7,1.4c0.1,0.8,1.3,0.6,1.9-0.1c0.6-0.7,1.1-0.7,0.6-1.1c-0.5-0.4,0.1-0.8,0.5-0.2
	c0.4,0.6,1.6,0.6,2-0.1c0.5-0.8,0.6,0.1,1.2,0.1c0.6,0,0.9-1.5,0.9-0.9c0,0.5,0.9,0.4,1.5-0.2c0.6-0.6,0-1.7,0.4-2.3
	c0.4-0.6,0.8-1.7,0.4-2.4c-0.4-0.7,0.8-1.2,1.5-1.7c0.6-0.6-0.7-3.4-0.8-4.2C240.2,133.4,238.7,134.5,238.3,134.8z M227.9,147
	c-0.2,0.5-0.8,0.3-1.5,0.4c-0.8,0.1-0.8,1.9-0.2,2.1c0.4,0.1,0.8,0.1,0.9-0.4c0.1-0.6,0.9-0.8,1.4-0.5c0.5,0.2,1.1-0.7,1.1-1.4
	C229.5,146.5,228.1,146.5,227.9,147z M224.7,148.8c0-0.5-1-0.4-1.1-0.8c0-0.4-0.8-0.2-1.5,0.3c-0.7,0.5-0.9,0.6-0.7,1.1
	c0.3,0.5,0.7,0,0.9-0.5s0.7,0.8,0.2,1.6c-0.4,0.8,0.1,2,0.6,1.9c0.5-0.1,1.1-1.8,1.8-2.7C225.7,149,224.7,149.3,224.7,148.8z"/>
<path class="st0" d="M209.5,182c0.9-0.1,2.1,1,1.9,1.4c-0.2,0.4,0,1.8,0.5,1.4c0.4-0.4,1.1,0.1,0.7,0.7c-0.4,0.6,0.7,1.2,0.8,2
	c0.1,0.8,0.6,0.1,0.5-0.4c-0.1-0.6,0.1-0.5,0.7-0.9c0.6-0.4,0-1.1-0.4-1.9c-0.4-0.8-1.8-0.5-1.8-1.3c0-0.8-1-1-1.1-1.4
	c0-0.4-1.4-0.8-2.2-0.4c-0.8,0.5-0.2-0.8-0.8-1.5c-0.6-0.6,0.4-1.5,1.1-2.3c0.7-0.8-0.2-2-0.1-2.6c0.1-0.6,0-0.8-0.3-0.6
	c-0.3,0.2-1.7-0.6-2.3-0.2c-0.6,0.4,0,3.5-0.3,3.7c-0.3,0.2-0.6-0.5-0.8-0.2c-0.1,0.4,0,2.2,0.4,2.2c0.4,0,0.7,0.5,0.4,1.2
	c-0.2,0.8,0.7,0.8,1.6,0.5C208.9,181.2,208.6,182.2,209.5,182z M206.5,182.4c0.1,0.7,0.5,2,1.5,1.7C209,183.8,206.4,182,206.5,182.4
	z M209.1,187c0.2,0,0.8,0,0.8-0.5c0-0.5,0.6,0.8,0.1,1.3c-0.4,0.4-0.4,1.6,0.2,1.7c0.7,0.1,1.9-2.1,1.7-2.5
	c-0.2-0.4-0.8,0.3-0.6-0.3c0.1-0.6-1.7-2-2.4-1.9C208.3,185,208.6,187.1,209.1,187z M203.6,187.9c-0.7,0.8-2.2,2.2-2,2.6
	c0.3,0.5,2-2.1,2.9-2.7c0.8-0.6,0.7-1.1,0.4-1.7C204.6,185.6,204.2,187,203.6,187.9z M212,188.8c0.2,0.5,1.6-0.3,1.2-0.8
	C212.8,187.6,211.8,188.5,212,188.8z M216.2,192.5c0.6-0.7-0.4-2.4-0.4-3.5c0-1.1-1.5-0.8-1.1-0.1c0.4,0.7-0.8,0.1-0.9,0.8
	c-0.1,0.7-1,0.1-0.9,0.7c0,0.6-0.9,0-1.4-0.3c-0.5-0.3-1.1,0.9-1.8,1.1c-0.7,0.2-1.1,1.7-0.6,1.6c0.6,0,0.8-0.8,1.4-0.8
	c0.6,0,0.4-0.6,1.2-0.4c0.8,0.1,0.2,2.5,1.3,2.7c1.1,0.2,1.1,0.8,1.6,0.8c0.5,0-0.1-1.5,0-2C214.5,192.7,215.6,193.2,216.2,192.5z"
	/>
<path class="st0" d="M144.2,188.4c-0.4,0-0.3,0.9-0.6,1.5c-0.2,0.6-0.2,1.2-0.1,2.1c0.1,0.9,0,1.8,0.8,2.3c0.9,0.6,2.4-0.9,2.4-2.3
	C146.8,190.8,144.5,188.4,144.2,188.4z"/>
<path class="st0" d="M97.2,173.3c-0.8,0.2-2.9,0-3.1,0.2c-0.3,0.1-2.2,1.5-2.5,2.1c-0.3,0.6-0.7,0.7-1.1,0.4
	c-0.4-0.3-2.1-0.2-2.2-0.4c-0.1-0.1-1.4-0.3-2-0.2c-0.6,0.1-0.9-0.3-1.2-0.2c-0.3,0.1-0.5,0.4-0.7,0.6c-0.1,0.2,0.1,0.7,0,0.9
	c0,0-0.3,0.2-0.7,0.4c0.1,0.4,0.2,0.7,0.1,1c-0.2,0.5,0,1.8,0.5,2.5c0.5,0.7,0.3,2.1,0.5,2.3c0.2,0.3,2.1,0.2,2.9-0.3
	c0.8-0.5,1.4-0.6,2-0.6c0.7,0,1.5-0.6,1.7-0.8c0.2-0.3,1.2-0.3,1.6-0.3c0.4,0,0.8-0.4,1.2-0.8c0.4-0.4,1.9-0.6,3.4-1.1
	c1.5-0.5,1.2-1.2,1.5-1.6c0.3-0.4,0.7-0.3,1.4-0.5c-0.7-1.5-1.5-3.2-1.9-4C98.1,173.1,97.5,173.3,97.2,173.3z M101.1,183.8
	c0.5,0.5,1.6-0.1,1.6-0.3C102.8,183.3,100.5,183.2,101.1,183.8z"/>
<path class="st0" d="M122.6,139.9c0,0-1-0.5-1.4-0.5c-0.4,0-1-0.8-1.6-1.1c-0.7-0.2-1.6-0.7-1.8-1.1c-0.3-0.4-1.5-0.8-1.6-1.2
	c-0.1-0.3-0.4-0.9-0.7-1.3c-0.3-0.4-0.3-1-0.7-1c-0.3,0-2.3,0-2.3-0.3c0-0.3-0.1-1.6-0.6-1.7c-0.4-0.1-1-0.2-1.2-0.4
	c-0.2-0.2-1-0.5-1.1-0.3c-0.1,0.2-0.5,0.3-0.7,0.3c-0.1,0-0.1,0.7-0.6,0.6c-0.5,0-1.1,0.5-1.1,0.8c0,0.3,0,0.8-0.6,0.8
	c-0.3,0-0.7-0.1-1.1-0.3c-0.1,0.1-0.6,0.4-1.1-0.3c-0.6-0.8-1.4-1.5-1.9-1.5c-0.5,0-2,0-1.6,0.9c0.1-0.2,0.3-0.3,0.7-0.3
	c1.1,0.1,0.6,1.4,1.2,1.5c0.6,0,1.3,1,0.8,0.9c-0.6,0-1,0.5-1.6,0.3c-0.6-0.2-1.3-0.7-1.5,0c-0.2,0.7-0.4,1.4,0.3,1.3
	c0.8,0,0.6,0.5,0.1,1c-0.5,0.5,0.8-0.1,0.9,0.4c0.1,0.5,0.5,0.5,0.3,1.3c-0.1,0.5,0,1.4,0,2.1c0.5,0,1.2,0,1.3-0.2
	c0.2-0.3,1-1,1.4-1c0.4,0,0.9,0.2,1.1-0.1c0.2-0.3,1.6-0.2,1.8,0c0.2,0.3,1,0.5,1.2,0.5c0.2,0,0.3,0.4,0.8,0.4
	c0.5,0,1.4,0.1,1.4,0.4c0,0.3,0.3,0.6,0.7,0.6c0.4,0,0.7,0.9,1.1,0.9c0.4,0,1.1,0,1.1,0.2c0,0.2,0.1,1.3,0.3,1.9
	c0.1-0.1,0.3-0.1,0.3,0c0.2,0.1,1-0.1,1.1,0.3c0.1,0.4,1.4,0.2,1.4-0.5c-0.1-0.7,2.1-0.7,2.3-1.3c0.2-0.6,0.4-1.8,0.9-1.6
	c0.5,0.2,0.8-0.8,1.3-0.8c0.4,0.1,0.7,0.4,1.2,0.3L122.6,139.9z"/>
<path class="st0" d="M134.2,141c0.3,0.2,0.3,0.5,0.6,0.4c0.3,0,0.8,0.1,1.1,0.4c0.3-0.1,0.5-0.1,0.5-0.1s-0.3-1.6-0.3-2.1
	c-0.1-0.5-1.6-1-1.6-1l-0.3-1.4c0,0-1.8,0.3-2.1,0.1c-0.3-0.1-1,0.2-1.3-0.3c-0.3-0.4-0.9,0.3-1.4-0.1c-0.6-0.4-2.2,0.1-2.3-0.2
	c-0.1-0.3,0.7-1,1.1-0.9c0.1,0,0.3,0,0.5,0c0.2-0.3,0.7-1.1,0.6-1.3c-0.1-0.2-0.7,0-1.1,0.2c-0.4,0.3-1.1-0.1-1.2,0.3
	c-0.1,0.4-0.3,0.8-0.8,0.8c-0.4,0-0.1,0.7-0.5,0.9c-0.4,0.2-1.4,0.1-1.5,0.6c-0.1,0.4,1.1,0.7,1,1.2c-0.1,0.5,0.6,1.1,0.2,1.4
	c-0.4,0.3-0.7,0.7-0.7,1.7c0.3,0.2,0.6,0.4,0.7,0.1c0.2-0.5,1.6,0,1.6-0.4c0-0.4,1.5-0.3,1.5-0.8c0-0.4,0.9-1.4,1.4-1.4
	c0.6,0.1-0.1,1,0.6,1.3c0.7,0.3-0.3,1.4,0.1,1.9c0.1,0.2,0.4,0.1,0.8,0c0.3-0.1,0.6-0.2,0.8-0.3C133.1,141.5,133.9,140.8,134.2,141z
	"/>
<path class="st0" d="M90.1,137c0-0.4-1-0.7-1-1.2c0-0.5-0.7-0.9-0.6-1.3c0.1-0.3-0.3-0.6-0.4-0.9c-0.4-0.1-1-0.2-1.4-0.1
	c-0.6,0.1-1,0.2-1.6,0.3c0.3,0.5,0.1,0.6,0.4,1.3c0.3,0.7,1,0.3,1.2,0.5c0.1,0.1,0.2,0.3,0.3,0.6c0,0,0.1,0,0.2,0
	c0.3,0,0.4,0.2,0.4,0.3c0.3,0.1,0.6,0.3,0.8,0.4c0.2,0.1,0.3-0.2,0.7,0.3c0.4,0.4,0.4,0.5,0.3,0.8c0.4,0,0.7-0.1,1-0.2
	C90.3,137.5,90.1,137.2,90.1,137z"/>
<path class="st0" d="M95,134.6c-0.2-0.3-0.8-1.1-1.4-1.8c-0.2,0.6-0.9,0.4-1,0.8c-0.1,0.4-0.5-0.1-0.7,0c-0.2,0.1-0.7-0.8-1.2-0.8
	c-0.2,0-0.3-0.1-0.5-0.2c-0.2,0.2-0.4,0.5-0.3,0.6c0.1,0.2,0.8,0.5,0.5,0.7c-0.2,0.2-1,0.1-1.2-0.1c-0.2-0.2-0.9-0.6-1.1-0.3
	c-0.1,0.3,0.6,0.9,0.5,1.3c-0.1,0.4,0.6,0.8,0.6,1.3c0,0.5,1,0.8,1,1.2c0,0.2,0.2,0.5,0.3,0.8c0.8-0.3,1.4-0.9,1.9-1.2
	c0.8-0.4,0.4,1.2,0.3,1.4c-0.1,0.2,0.5,0.6,1.1,0.8c0-0.3,0.1-0.7,0.3-0.9C94.9,137,95.5,135.4,95,134.6z M88.3,136.9
	c-0.2-0.1-0.4-0.3-0.8-0.4c0.1,0.3,0.1,0.6,0.5,0.8c0.7,0.3-0.3,0.4,1.1,0.6c0.1,0,0.2,0,0.3,0c0-0.3,0-0.5-0.3-0.8
	C88.7,136.7,88.5,137,88.3,136.9z"/>
<path class="st0" d="M134.8,141.4c-0.3,0-0.3-0.2-0.6-0.4c-0.3-0.2-1.1,0.6-1.7,1.1c-0.3,0.1-0.6,0.2-0.8,0.3
	c-0.3,0.1-0.6,0.1-0.8,0c-0.4-0.4,0.6-1.6-0.1-1.9c-0.7-0.3-0.1-1.3-0.6-1.3c-0.6-0.1-1.4,0.9-1.4,1.4c0,0.4-1.5,0.3-1.5,0.8
	c0,0.4-1.4-0.1-1.6,0.4c-0.3,0.5-0.9-0.4-1.4-0.4c-0.4,0-0.8-0.6-1.3-0.4c-0.6,0.2-0.9-0.2-1.3-0.2c-0.4-0.1-0.8,0.9-1.3,0.8
	c-0.5-0.2-0.8,0.9-0.9,1.6c-0.2,0.6-2.3,0.6-2.3,1.3c0.1,0.7-1.3,0.9-1.4,0.5c-0.1-0.4-0.9-0.2-1.1-0.3c-0.2-0.1-0.8,0.1-0.7,0.8
	c0.1,0.6-0.6,1-0.6,1.3c-0.1,0.2-0.4,1-0.2,1.4c0.3,0.4-0.3,1,0,1.7c0.3,0.7,0.1,1.6,0.3,1.8c0.1,0.2,1.3,0.1,1.6,0.8
	c0.2,0.7-1.6,1.9-1.6,2.3c0,0.2,0.1,0.3,0.3,0.5c0.7,0,1.6,0.1,2.4,0.3c1,0.2,6.3-0.6,6.4-0.8c0.1-0.2-0.2-1.4-0.1-1.6
	c0-0.2,0.7-0.8,1.3-0.8c0.6,0,1.1,0.1,1.1-0.3c0-0.4,1.6-0.9,1.7-0.6c0.1,0.4,0.7,0.2,0.8-0.7c0-0.9,0-1.6,0.5-1.7
	c0.6,0,1.1-0.4,1.1-0.7c0-0.3-0.7-0.8-0.5-1c0.2-0.2,1.6,0.5,1.8,0.1c0.2-0.4-0.1-0.9,0.1-1.3c0.2-0.4,0.8-0.8,0.8-1.1
	c0-0.4,0-0.6-0.3-0.9c-0.3-0.3-0.2-0.8,0.2-0.8c0.1,0,0.2,0,0.2-0.1c0.3-0.1,0.6-0.1,0.8-0.3c0.6-0.4,1.7-0.8,2.1-0.6
	c0.4,0.1,1.1,0,1.6-0.5C135.4,141.4,135,141.4,134.8,141.4z"/>
<path class="st0" d="M138.7,144c-0.7-0.4-0.8-1-0.8-1.2c0-0.2-0.8-0.7-1.4-1.2c-0.1,0-0.3,0-0.5,0.1c-0.1-0.1-0.2-0.1-0.3-0.2
	c-0.5,0.5-1.3,0.6-1.6,0.5c-0.4-0.2-1.6,0.2-2.1,0.6c-0.2,0.2-0.5,0.2-0.8,0.3c-0.1,0.1-0.2,0.1-0.2,0.1c-0.4,0-0.6,0.5-0.2,0.8
	c0.3,0.3,0.2,0.6,0.3,0.9c0,0.4-0.5,0.8-0.8,1.1c-0.2,0.4,0,0.8-0.1,1.3c-0.2,0.4-1.6-0.2-1.8-0.1c-0.2,0.2,0.5,0.8,0.5,1
	c0,0.3-0.5,0.6-1.1,0.7c-0.6,0-0.5,0.8-0.5,1.7c0,0.9-0.6,1.1-0.8,0.7c-0.1-0.4-1.7,0.1-1.7,0.6c0,0.4-0.5,0.3-1.1,0.3
	c-0.6,0-1.2,0.5-1.3,0.8c0,0.2,0.2,1.4,0.1,1.6c-0.1,0.2-5.4,1-6.4,0.8c-0.8-0.2-1.7-0.2-2.4-0.3c0.3,0.3,0.6,0.6,0.7,0.9
	c0.2,0.6,0.9,1.1,1.6,1.4c0.8,0.3,0.4,1.6,0.8,1.8c0.4,0.1,0.9,1.1,0.4,1.2c-0.5,0.1-0.9,0.2-1.4,0.4c-0.5,0.3-1.1,0.9-1,1.6
	c0,0.1,0,0.2,0,0.4c1.3,0,2.8,0,3-0.2c0.3-0.3,0.9-0.4,1.2-0.2c0.3,0.2,1.9,0.3,2.6,0c0.8-0.4,1.2,0,1.3,0.4c0,0.4,0.4,0.5,0.7,0.9
	c0.3,0.3,0.1,0.7,0.3,1.1c0.2,0.4,0.7,0.3,1.4,0.6c0.1,0,0.2,0.1,0.3,0.2c0,0,0.1-0.1,0.1-0.1c0.4-0.4,0.4-1.2,1.4-1
	c1,0.2,0.9-0.2,1.5-0.1c0.6,0.1,0.9,0.1,1.2-0.3c0.2-0.4-0.2-1.1-0.6-1.4c-0.3-0.3-0.8-1-0.7-1.6c0.1-0.6-1-0.6-1-1.1
	c0-0.5,1-1.3,1.2-1.5c0.2-0.2,1,0.5,1.2,0.1c0.2-0.4,0.8-0.1,1.1-0.1c0.3,0.1,0.8-0.6,0.9-1.2c0.1-0.6,1.1-0.6,1.3-0.8
	c0.2-0.2,0.5-1.4,0.6-1.7c0.1-0.3,0.9-0.1,0.9-0.8c0-0.7,0.4-0.8,0.8-0.9c0.4-0.1,0.2-0.7,0.3-1.2c0.1-0.5,0.3-1.1,0.8-1.2
	c0.5-0.1-0.2-0.8-0.8-0.7c-0.6,0.1-0.9-1.5-0.9-1.5s0.1-1.3-0.2-1.5c-0.3-0.2,0.1-0.9,0.8-0.9c0.7,0,1.9,0.8,2.4,0.4
	c0.4-0.3,1.3-0.5,1.6-0.6c0.2-0.1,0.5-0.7,0.6-1C139.6,144.5,139.1,144.3,138.7,144z"/>
<path class="st0" d="M171.6,205.7c-0.1,0.2,0.4,1.2,0.8,0.9C172.7,206.4,171.9,205,171.6,205.7z M187,208.6c0-0.4-1.2-0.2-0.8,0.4
	C186.5,209.6,187,209,187,208.6z M169.3,201.7c-0.1,0.5,0.4,1.8,1,1.3C170.8,202.4,169.4,201.2,169.3,201.7z M204.8,209.7
	c0.7,0.1,0.6,1.1,0.5,1.7c-0.1,0.6-0.4,2.1,0.2,1.8c0.8-0.3,1.2-1.2,0.8-1.6c-0.4-0.3-0.4-2.4-0.2-2.9c0.2-0.5,1.5-0.1,1,0.7
	c-0.4,0.8,0.8,0.7,0.8,1.6c0,0.9,0.7,0.4,1.5,0.2c0.8-0.2,0.6-0.7,0.1-1.2c-0.5-0.6,0.4-1.4-0.3-1.8c-0.7-0.5-1.2-1.2-0.5-1.3
	c0.7-0.1,2.6-1.3,2.4-1.7c-0.2-0.5-3,0.1-3.2,0.9c-0.2,0.8-2.2-0.1-2-1.6c0.2-1.5,4.1-1.7,5.3-1.2c1.1,0.5,2.3-0.8,2.8-1.6
	c0.4-0.8-0.9,0.1-1.7,0.7c-0.8,0.5-2.9,0-4-0.4c-1.1-0.4-1,0.7-1.9,0.8c-0.9,0.1-0.7,2.1-1.1,2.3c-0.4,0.2-0.4,1.7-1.3,3.1
	C202.9,209.5,204.1,209.7,204.8,209.7z M183.3,211c0-0.7,0.2-1.3,0.2-1.6c0-0.3,0.2-0.5,0.7-0.4c0.4,0.1,0.4-0.9,0-1
	c-0.3-0.1-0.5-1.3-1.3-1.3c-0.8,0-0.7,0.7-0.2,0.7c0.5,0,0.8,0.4,0.6,0.8c-0.1,0.3-0.3-0.3-1-0.3c-0.7,0-0.2-0.8-1-0.8
	c-0.8,0-0.6-1.4-1.4-1.4c-0.8,0-0.8-0.7-0.3-1.1c0.5-0.5-0.8-0.9-0.8-1.5c0-0.6-0.8-0.2-0.8-0.7c0-0.5-0.4-0.2-0.8-0.8
	c-0.4-0.6-0.6,0-1-0.5c-0.4-0.4-0.9-0.7-1.2-0.5c-0.3,0.1-1.1-0.6-1.4-1.4c-0.2-0.6-2.4-1.6-2.7-2.4c-0.3-0.8-1-1.1-2.3-1.1
	c-1.3,0-1.8-1.2-2.1-0.6c-0.4,0.8,1.4,2.6,2.2,3.1c0.8,0.5,1.2,2.2,2.2,2.3c0.9,0.1,1,3.1,1.7,3.2c0.7,0.1,2.2,2.4,2.4,3.7
	c0.2,1.2,1.8,1.8,2.3,2.7c0.5,0.9,2.6,2.1,2.9,2.5c0.3,0.4,0.6,1.2,0.8,0.8c0.2-0.4,1.2,0,1.7,0C183.2,213.4,183.3,211.6,183.3,211z
	 M219.2,203.4c1,0.1,0.6-0.5,0.6-1.2c0-0.7-0.9-0.1-0.9-0.4c0-0.3-0.3-1.6-1.1-0.6c-0.8,1,0.2,3.6,0.8,3.5
	C219.1,204.6,218.2,203.4,219.2,203.4z M215.3,209.3c0.2,0.8,1.5,1.2,1.9,0.5C217.6,209.2,215.1,208.4,215.3,209.3z M211.6,217.3
	c-1.3-0.2-2.1,0.8-3.4,0.3c-1.3-0.5-3.2,0-3,0.4c0.2,0.4,1.3,0.4,2.6,0.5c1.3,0,2.4-0.7,3.2-0.7C212,217.7,212.9,217.4,211.6,217.3z
	 M221.7,208.7c-1.2-0.4-3.3-0.1-3.1,0.6c0.2,0.6,1.2,0.3,2.2,0.3c1,0,1.5,0.7,2,0.7C223.3,210.3,222.9,209,221.7,208.7z
	 M196.9,216.7c0-0.6-1.9,0-2.8-0.4c-0.9-0.4,1-0.7,1.6-1.1c0.6-0.4-0.4-0.5-1.9,0c-1.5,0.5-3.2-1-3.3-0.4c0,0.7-2.7-0.3-3.4-0.8
	c-0.7-0.5-3.2-1.1-3.7-0.2c-0.5,0.9-1,0.1-0.8,0.9c0.1,0.6,0.8,0.2,1.2,0.2c0.4,0,0.2,0.8,0.8,0.9c0.6,0.1,2.6,0.7,2.8,0.2
	c0.2-0.4,2.1,0,3,0.8c0.9,0.8,3.1,0.8,3.9,0.7c0.8-0.1,1.8,0.6,2.1,0.1c0.3-0.5,0.9,0.8,1.9,0C199.5,217,197,217.3,196.9,216.7z
	 M233.9,206.5c-0.7,0-0.8,1.3-1.4,1.3c-0.6,0-1.5,1.3-2.6,1.6c-1.1,0.4-1.2-3.2-1.7-3.9c-0.5-0.7-3.3-1.3-3.6-0.5
	c-0.3,0.8-1.3,0.4-1.4,1c-0.1,0.6,0.2,0.4,0.8,0.4c0.6,0,0.6,0.5,0.9,1.1c0.3,0.6,2,0.2,2.5,0.1c0.6,0,0.7,0.8-0.1,0.5
	c-0.8-0.3-0.8,0.4-1.4,0.2c-0.6-0.1-1.3-0.1-0.9,0.2c0.4,0.3,1,0.7,1,1.4c0,0.8,1.1,0.6,1.1,0c0-0.6,0.6,0.2,1.6,0.5
	c1.1,0.3,0.3,0.7,1.4,0.8c1.1,0,3.5,0.8,4.5,1.5c0.9,0.7,0.3,1.2,0.9,1.8c0.6,0.7,0.8,1.4,0,1.4c-0.8,0-1.7,0.8-1.5,1.3
	c0.2,0.4,3-0.2,3.7-0.2c0.4,0,0.9,0.8,1.7,1.3v-10C237.3,207.7,234.5,206.5,233.9,206.5z M213.6,218.4c-0.1,0.1-0.3,0.2-0.5,0.2
	c-0.1,0.2-0.1,0.4-0.2,0.5c-0.1,0.1-0.4-0.1-0.5-0.3c-0.9,0.4-1.4,1.5-0.8,1.8c0.6,0.3,1.5-0.5,2-1.1c0.1-0.1,0.2-0.2,0.2-0.3
	c0,0,0.1-0.1,0.2-0.1c0,0,0.1-0.1,0.2-0.1C213.9,218.7,213.7,218.5,213.6,218.4z M200.5,206.3c0.8-0.5,1-1.5,0.9-2.4
	c-0.1-0.9,2.1-1,2.4-1.4c0.3-0.4-0.5-1-1.1-1.3c-0.6-0.3-0.1-0.9-0.5-1.3c-0.4-0.4-1.1-1.4-0.5-1.4c0.6,0-0.4-0.9,0.1-1.2
	c0.1,0,0.2-0.1,0.2-0.1c-0.3-0.2-0.6-0.3-0.8-0.3c-0.8,0-2.5-0.2-2.4,1c0.1,1.2-1,0.8-0.9,1.4c0.1,0.7-0.6,0.7-0.5,1.5
	c0.1,0.8-0.5,0.5-1.4,0.9c-0.9,0.5-0.6-0.3-1.5-0.3c-0.9,0-1,0.5-1.6,0.7c-0.6,0.2-1.7-0.1-2.1,0.2c-0.4,0.3-0.9-0.7-1.3-0.7
	c-0.2,0-0.4-0.5-0.5-1c-0.1,0-0.1,0-0.2,0c-0.6,0-1.6,1.7-1,2.2c0.7,0.7,0.5,1.7,0.8,2.2c0.3,0.5,1.4,0.6,1.4,1.6
	c0,1,0.9,2.5,1.5,2.1c0.6-0.4,1.1,0.2,1.3,0.6c0.2,0.4,1.6-0.3,2.1-0.2c0.5,0.1,1.9,0.4,2,0.9c0.1,0.6,1.4,0,2.3-0.4
	C200.2,209.5,199.6,206.8,200.5,206.3z M204,219.5c0.3,0.4,1.1,0.4,1.4,0.7c0.3,0.3,1.5,0.9,1.5,0.1S203.7,219,204,219.5z
	 M201.7,217.2c-0.2,0.4-1,0.5-1.5,0.2c-0.5-0.3-1.1,0.4-0.8,0.8c0.1,0.2,1.1,0.9,2.3,0.4c1.2-0.6,2,0,2.3-0.7
	C204.3,217.3,201.9,216.7,201.7,217.2z"/>
<path class="st0" d="M212.8,218.7c-0.2,0-0.4,0.1-0.5,0.1c0.2,0.2,0.4,0.4,0.5,0.3c0.1-0.1,0.2-0.3,0.2-0.5
	C213,218.6,212.9,218.7,212.8,218.7C212.8,218.7,212.8,218.7,212.8,218.7z M215.1,217.4c-0.6,0-0.9,0.5-1.4,0.9c0,0-0.1,0.1-0.1,0.1
	c0.2,0.1,0.4,0.3,0.5,0.5c0.9-0.5,3.2-1.2,3.3-1.5C217.5,217,216,217.5,215.1,217.4z"/>
<path class="st0" d="M116.8,159c-0.4-0.1,0-1.4-0.8-1.8c-0.8-0.3-1.4-0.8-1.6-1.4c-0.2-0.5-1.1-1-1.1-1.4c0.1-0.4,1.9-1.6,1.6-2.3
	c-0.2-0.7-1.4-0.6-1.6-0.8c-0.1-0.3,0.1-1.1-0.3-1.8c-0.3-0.7,0.3-1.3,0-1.7c-0.2-0.4,0.1-1.1,0.2-1.4c0.1-0.2,0.7-0.6,0.6-1.3
	c0-0.4,0.2-0.6,0.4-0.7c-0.2-0.6-0.3-1.7-0.3-1.9c0-0.2-0.8-0.2-1.1-0.2c-0.4,0-0.7-0.9-1.1-0.9c-0.4,0-0.7-0.3-0.7-0.6
	c0-0.3-0.9-0.5-1.4-0.4c-0.5,0-0.6-0.4-0.8-0.4c-0.2,0-0.9-0.2-1.2-0.5c-0.2-0.3-1.6-0.4-1.8,0c-0.2,0.3-0.7,0.1-1.1,0.1
	c-0.4,0-1.2,0.7-1.4,1c-0.1,0.2-0.8,0.2-1.3,0.2c0,0.4,0,0.7,0,0.8c-0.2,0.4-2.1,0.7-3.4,0.8c-1.4,0-1.5-1.7-2.9-1.7
	c-1.1,0-1.9-1-1.9-1.9c-0.6-0.2-1.2-0.6-1.1-0.8c0.1-0.3,0.4-1.8-0.3-1.4c-0.8,0.4-1.8,1.6-3.2,1.4c-1.4-0.2-0.4-0.3-1.1-0.6
	c-0.7-0.3-0.2-1.1-0.9-1.2c-0.7-0.1-0.2,0.8-0.6,0.8c-0.4,0-0.1,1.1,0.1,1.3s-0.2,1.6,0,1.7c0.3,0.1,0.8,1.1,0.8,1.3
	c-0.1,0.2,0.6,0.8,0.6,1.3c0,0.4,0.6,0.9,0.9,0.9c0.3,0,0.8,0.2,0.6,0.6c-0.1,0.4,0.2,0.9-0.2,0.9c-0.4,0-0.3,1.1-0.6,1.3
	c-0.3,0.2-0.1,1.3,0.2,1.4c0.3,0.1,0.8,0.4,0.8,0.9c-0.1,0.4,1.3,1.1,1.8,1.2c0.4,0.1,0.5,0.7,0.8,0.9s-0.2,0.8-0.1,1.1
	c0.1,0.3,0.6,0.6,0.6,1.1c0,0.3,0.5,0.8,0.9,1.2c0.1,0,0.3-0.1,0.4-0.1c0.4,0,0.4-0.5,0.7-0.2c0.3,0.3,0.8,0,1.1,0
	c0.3,0,1.2,1.7,1.6,2.5c0.4,0.8,0.4,1.1,0.9,1.5c0.5,0.4,1.2,0.2,1.9,1c0.8,0.8,2.8,1.3,3.6,1.4c0.8,0,1.5-0.9,2.6-0.7
	c1.1,0.2,0.8,1.6,1.2,2.1c0.4,0.5,4.8,0.8,5.5,1c0.3,0.1,0.9,0.1,1.7,0.1c0-0.2,0-0.3,0-0.4c-0.1-0.8,0.5-1.4,1-1.6
	c0.5-0.3,0.9-0.4,1.4-0.4C117.6,160.1,117.1,159.1,116.8,159z"/>
</svg>
