<?xml version="1.0" encoding="utf-8"?>
<!-- Generator: Adobe Illustrator 23.0.1, SVG Export Plug-In . SVG Version: 6.00 Build 0)  -->
<svg version="1.1" id="图层_1" xmlns="http://www.w3.org/2000/svg" xmlns:xlink="http://www.w3.org/1999/xlink" x="0px" y="0px"
	 viewBox="0 0 310 236" style="enable-background:new 0 0 310 236;" xml:space="preserve">
<style type="text/css">
	.st0{fill:#262418;stroke:#3D3B26;stroke-width:0.5;stroke-miterlimit:10;}
</style>
<path class="st0" d="M18.8,105c-0.2,0.1-0.8-0.1-1-0.4c-0.1-0.2-0.6-0.1-1-0.1c0.1,0.1,0.2,0.1,0.2,0.2c0.2,0.4-0.8,0.4-0.5,0.9
	c0.3,0.4-0.8,0.5-0.8,0c0-0.5-1.1-0.2-1.1,0.1c0,0.1,0,0.2-0.1,0.4c0.3,0.1,0.7,0.2,0.8,0.3c0.2,0.1,3,0.4,4.1,0.2
	c-0.1-0.2,0.1-0.8,0.1-1.1C19.7,105.2,19.1,104.9,18.8,105z M86.8,32.6c1.8-0.2,1.7-1.2,0.8-1.4c-0.9-0.2-1.1,0.6-1.5,0.5
	c-0.5,0-2.2,0.3-1.9,0.7C84.6,33,85.9,32.7,86.8,32.6z M133.1,36.1c0,0.5-1.5,1-1.1,1.4c0.4,0.3,0.7,0.2,1.2,0.3
	c0.5,0.1,0.7,1.3,1.5,1.1s3.1,0.9,4.5,0.9s1.5-1.1,1.1-1.2c-0.4,0,0-0.7,0.7-1.8c0.8-1.1-2.3-1.9-2.3-1c0,0.8-0.9-0.2-1.2-0.7
	C137.2,34.6,133.1,35.5,133.1,36.1z M95.9,58.8c0.6,0.1,2.3-0.2,2.4-0.6c0.2-0.3-0.7-0.7-1.7-0.7C95.5,57.5,95.4,58.7,95.9,58.8z
	 M140.4,42.7c0.7,0.4,2.8-0.5,4.2-0.4c1.4,0,5.4-1.1,5.5-1.8c0.1-0.8-1.5-0.7-2.1-1.4c-0.6-0.7-2-0.1-2.3,0.5
	c-0.3,0.6-0.7,0,0.2-0.8c0.9-0.9-0.9-1.6-0.9-1c0,0.6-1.7,0.1-1.7,0.6c0,0.5-0.6,0.8-0.6,1.3c0,0.5-1.1-0.3-1.2,0.9
	C141.5,41.6,139.7,42.3,140.4,42.7z M109.6,59.5c0.8,0.4,1.3,0.2,1.2-0.5C110.7,58.2,109,59.2,109.6,59.5z M129.4,31.4
	c0.2-0.7-2.9-0.4-2.1,0.3C127.6,31.9,129.2,32.1,129.4,31.4z M130.6,34.7c0.9,0.4,0.6,0.6-0.4,0.6c-0.9,0-1.7,0.3-1.1,0.6
	c0.5,0.2,0.4,0.7,1.4,0.9c1,0.2,2-0.6,1.9-1.1c-0.1-0.6,3.4-1.1,4.4-1.3c0.9-0.2-0.6-1.2,0.4-1.3c1-0.1,0.6-0.6-0.7-0.8
	c-1.3-0.2-0.8-1.3-1.2-1.6c-0.4-0.4-0.7,0.5-2.3,0.8c-1.6,0.3-2.4,0.8-1.8,1.1c0.7,0.3,0,1.1-0.7,1.1
	C129.9,33.6,129.7,34.4,130.6,34.7z M267.6,65.5c0.9,0.5,1.5-0.6,2.3,0c0.8,0.5,2.6-0.2,3.3-0.4c0.8-0.1,0.4-1.1-1.7-1.4
	C269.4,63.4,266.6,65,267.6,65.5z M215.2,52.3c1.1,0.1,1.7,1.2,3.9,1.3c2.2,0.1,3.8-0.3,3.8-0.8c0-0.5-2-1.2-2.6-0.8
	c-0.6,0.4-1.1-0.6-1.8-0.4c-0.8,0.2-1.8,0.2-2.2-0.5C215.9,50.6,214.7,52.3,215.2,52.3z M210.8,58.4c0.8-0.2-0.6-1.7-2.1-2
	c-1.5-0.2-2.8,1-2.6,1.2C206.5,58.2,210,58.6,210.8,58.4z M207,55.3c0-0.7-2.6,0.3-1.5,0.6C206.1,56.1,207,56,207,55.3z M201,52.4
	c0.7,0.3,0.9,0.7,1.3,1c0.4,0.4,1.8-0.2,2.4-0.4c0.6-0.2,0.6,0.8,1.5,0.3c0.9-0.6,1.8-0.3,2.8-0.3c1,0-0.2-1.3-0.1-1.8
	c0-0.6,1.2-0.2,0.8,0.3c-0.4,0.5,0.6,1.6,2.1,1.5c1.5-0.1,0.4-1,1.1-1.4c0.8-0.3,0.7-0.7-0.4-1.4c-1.1-0.7-2.5-0.2-3.4-0.7
	c-1-0.5-2.2-0.5-2.3,0.6c0,1-2-1.1-3.1-1.5C202.6,48.3,199.4,51.6,201,52.4z M62.7,32.8c0.7,0.5-1.8,0.3-2.2,0.8
	c-0.3,0.5-1.8,0.3-1.5,0.8c0.3,0.6,2.6,0.6,2.6,0.1c0-0.5,1.2,0,1.3-0.5c0-0.4,0.6-0.9,1.9-1c1.3-0.1,1.3-0.6,0.1-1.1
	C63.7,31.5,62,32.3,62.7,32.8z M83.4,32.9c0.3-0.4-0.6-0.4-0.7-0.8c-0.1-0.4-2.7-0.5-2.6,0c0.1,0.5-1.8,1-1.2,1.5
	C80,34.3,83.1,33.3,83.4,32.9z M210.4,112.6c-0.5-1.4,0.8-2.7-0.2-3.4c-0.9-0.7-0.6-2.2-1-1.9c-0.5,0.3,0,1.6-0.8,1.6
	c-0.8,0.1,0,0.8-0.3,1.7c-0.3,0.9,0.1,2.3,0.5,3.1c0.4,0.8-0.5,5.4-0.1,6.1c0.4,0.8-0.6,4.1-0.3,4.5c0.6,0.7,0.2-0.9,1-1
	c0.8-0.1,0.8,0.9,1.4,1.2c0.5,0.2,0.2-1.5-0.3-1.4c-0.5,0.1-0.8-1.1-1.1-1.9c-0.2-0.8,0.5-1.6,0.5-2.6c0-0.9,1.2-0.9,1.9-0.2
	c0.7,0.7,0.8,0.2,0.5-0.3C211.8,117.8,210.9,114,210.4,112.6z M58.3,33.2c1.1-1,2.5,0,2.7-0.5c0.2-0.5-2-0.6-2.8-0.2
	c-0.8,0.4-2.7,0.1-2.4,0.6C55.8,33.5,57.2,34.2,58.3,33.2z M285.7,78.8c-0.5-0.2-2-1.1-2.3-1.7c-0.4-0.5-2.2-0.8-2.2-0.5
	c0,0.3-0.6-0.1-0.7-0.4c-0.1-0.3-2-0.4-2.1,0c0,0.3,0.4,0.4,0.7,0.7c0.3,0.4-0.4,0.6-0.2,1c0.1,0.4-0.7-0.2-1-0.4
	c-0.3-0.2-0.2-1.2-0.1-1.6c0.1-0.5-0.5-0.4-0.6-0.8c-0.1-0.5-2.2-1.4-3.1-1.8c-0.9-0.4-2-0.7-2.3-1.2c-0.3-0.5-1.9-0.5-2.5-1.2
	c-0.6-0.6-3.3-1.8-4.4-1.8c-1.2-0.1-0.9-0.7-1.5-0.6c-0.6,0.1-3,0-3.7-0.1c-0.8-0.1-0.9,0.4-1.5,0.2c-0.5-0.2-3.3-1.2-3.7-0.8
	c-0.3,0.4-0.2,0.9-0.5,1c-0.3,0.1,0,0.6,0.8,1.3c0.8,0.7,0.3,1.2-0.4,1.6c-0.7,0.3-1.8-0.3-2.2-0.8c-0.4-0.5-1.3-0.3-1.5-1
	c-0.2-0.7,0.3-0.8,0.8-0.4c0.5,0.4,1.1,0.1,1.2-0.4c0.1-0.5-1.3-0.9-2-0.8c-0.7,0-1.1,1.1-1.9,1.5c-0.8,0.4-3.7-0.2-4-0.4
	c-0.3-0.3-4.4,0-4.8,0.3c-0.4,0.3-0.1,1.4-0.3,1.5c-0.2,0.1-0.4-1.3-0.4-1.5c0-0.3-0.5-0.4-1.2-0.4c-0.7,0-1.2,0-0.8-0.3
	c0.3-0.3-0.3-0.6,0.3-1c0.6-0.4-1-1.6-2.6-2.3c-1.5-0.6-5.1-0.3-6,0c-0.9,0.3-2.8,0.2-3.7,0.2c-0.9,0-0.2-0.4-0.4-0.8
	c-0.3-0.4-1.8-0.9-2-0.6c-0.2,0.4-0.6,0-0.6-0.3c0-0.3-1.4-0.8-2-0.7c-0.6,0.1-0.8-0.5-0.2-0.5c0.7,0,1.8,0.1,1.3-0.6
	c-0.5-0.8-4.7-1-5.1-0.8c-0.4,0.1,0,0.7-0.9,1.6c-0.9,0.9-1.8,0.3-1.7-0.1c0.1-0.4,1.2-0.4,1.2-0.8c0-0.4-1.5-0.2-1.8-0.5
	c-0.2-0.4,0.3-0.6,0.9-0.4c0.6,0.2,1.6,0.3,1.6,0c0-0.3-0.6-0.3-1.5-0.5c-0.9-0.2-3.2-0.7-4.4-0.6c-1.2,0.1-1.7-0.4-2.4-0.5
	c-0.7,0-0.7,0.4-0.4,0.7c0.3,0.4-0.6,0.6-1.4,0.5c-0.8-0.1-1.9,0.4-1.5,1c0.4,0.6,0.9-0.2,1.3,0c0.4,0.2-1,0.6-0.4,0.8
	c0.6,0.3,0.5,0.8,0.5,1.1c0,0.3-0.9,0.4-1.3,0c-0.4-0.4-0.8,0-1.5-0.1c-0.7,0-1.2,0.3-0.4,0.4c0.7,0.1,0.9,0.5,0,0.6
	c-0.9,0.1-0.7-0.9-1.3-0.8c-0.6,0.1-1.8-0.4-2.4-0.4c-0.7,0-1,0.5-1.8,0.6c-0.9,0.1-2-0.4-2.4-0.9c-0.4-0.5-0.5-0.6-0.9-0.1
	c-0.4,0.5-0.4,1.6-0.9,1.6c-0.4,0.1-0.6,1-1,1.2c-0.4,0.2-0.4-0.4-1-0.3c-0.5,0-2.3-1.6-2.4-2.1c-0.1-0.5-1.2-1.4-1.5-1.6
	c-0.3-0.2,0.3-0.3,0.6,0c0.4,0.3,0.8,0.3,1.2,0.1c0.4-0.2,0.3-1.1-0.3-1.1c-0.6,0-0.4-0.5-0.1-0.6c0.3-0.1-0.7-1-0.3-1.1
	c0.4-0.1,0.2-0.5-0.3-0.6c-0.5-0.1-1.1-0.5-1.1-0.8c0-0.3-2.2-0.4-2.1,0c0.1,0.4-0.7,0.3-0.6,0c0.1-0.3-0.8-0.2-1.8-0.5
	c-1-0.3-1.1-1-1.4-1.1c-0.4,0-0.2,1-0.8,0.8c-0.5-0.2-1.1,0.2-0.8,0.8c0.3,0.6,0,0.7,0,1.2c0,0.5-0.3,0.3-0.9,0.1
	c-0.6-0.2-0.6,0.5-1.9,0.2c-1.3-0.3-1.9,0-2.1-0.4c-0.2-0.4-0.6-0.5-0.7-0.1c0,0.4-2.1,0.2-2.2-0.3c-0.2-0.5,0.4-0.6,0.7-0.8
	c0.3-0.1-0.3-0.4-1.4-0.3c-1.1,0.1-1.8-0.6-2.9-0.4c-1.1,0.1-3.6,0.4-4,0.5c-0.4,0.2,0.3,0.8-0.2,0.8c-0.5,0-0.2-1-0.3-1.6
	c-0.1-0.5-0.9-0.6-0.8-0.2c0.1,0.4-1.3,0.5-1.6,0.2c-0.3-0.3-0.9-0.7-1.8-0.9c-0.9-0.2-2,0.8-1.8,1c0.3,0.3,0.9,0.1,1,0.3
	c0,0.4-1.9,0.2-1.9,0.6c0,0.3-1.9,0.8-2.4,0.8c-1.5,0.2-1.9,0.2-2.6,0.8c-0.7,0.6-0.2-0.5,0.4-1.1c0.6-0.6,1.2-0.3,1.5-0.8
	c0.3-0.4,0.8-0.4,1.7-0.5c0.9-0.1,0.8-0.7,1.3-0.8c0.4-0.2,1.5-0.6,1.6-1c0.2-0.4,2.3-1.1,2.7-1.1c0.4,0,0.5-0.8,0.8-0.8
	c0.2,0,1.5-0.5,1.9-0.8c0.5-0.2,0.7-0.7,0.7-1c0-0.3-0.6-0.3-0.7-0.5c-0.1-0.3,0.3-0.1,0.8-0.3c0.5-0.2,0-0.8-0.4-0.7
	c-0.4,0.1,0.2-0.4-0.1-0.8c-0.4-0.4-1.1,0.3-1-0.2c0-0.4,0-1-0.3-1.3c-0.3-0.3-0.8,0.5-1.4,0c-0.6-0.4-2.3-0.7-2.3-0.5
	c0,0.2-0.8-0.3-1-0.1c-0.2,0.2-1.5,0.2-1.9,0c-0.4-0.1-1,0.2-1,0.6c0,0.4-1.7,0.3-2,0.2c-0.3-0.1,1.2-1.3,1.2-1.5
	c0-0.2-2.5,0-2.6-0.2c-0.1-0.2-1.3-0.3-1.9-0.3c-0.5,0,0-0.1,0.5-0.2c0.5,0,0.9-0.5,1.5-0.6c0.5-0.1,0.4-0.3,0.2-0.6
	c-0.2-0.3-0.8-0.2-1.3-0.3c-0.5-0.2-1.2-0.4-1.7-0.4c-0.5,0-1,0.2-2.1,0.4c-1.1,0.2-1.2,1.1-1.8,1.3c-0.6,0.3-1.5,1.3-1.1,1.4
	c0.5,0.1,0.2,0.4,0.3,0.7c0.1,0.3-0.4,0.4-0.9,0.3c-0.5-0.1-2.4-0.1-2.4,0.3c0,0.4,1.1,0.6,1,0.8c-0.1,0.2-0.8,0-1.2-0.2
	c-0.4-0.2-1.2-0.1-1.4,0.3c-0.2,0.4-0.8,0.3-1,0.2c-0.2-0.1-0.7,0.2-1,0.1s0.7-0.6,0.4-0.9c-0.3-0.3-1.4,0-1.5,0.4
	c-0.1,0.4-0.8-0.3-1.1-0.2c-0.3,0.1-0.5,0.3-1,0.5c-0.5,0.2-1.3-0.2-1.5,0.1c-0.2,0.4,0.9,0.5,1,0.7c0,0.2-2.6,0.1-2.6,0.4
	c-0.1,0.3-0.9,0.3-2,0.3c-1.1,0-0.6,0.5-1.5,0.7c-0.8,0.2-1.2,0.2-1.5,0.6c-0.3,0.4-0.9,0.5-1.2,0.2c-0.3-0.3-1.1,0.2-0.6,0.2
	c0.4,0,0,0.5-0.2,0.4c-0.3-0.1-1,0.4-0.6,0.4c0.4,0,0.6,0.3,0.4,0.6c-0.2,0.3-1.1-0.3-1.4-0.1c-0.2,0.2,0.4,0.5,0.9,0.5
	c0.4,0,0.7,0.2,0.7,0.5c0,0.3-1-0.2-1.2,0.1c-0.2,0.3,0.2,0.4,0.6,0.4c0.4,0,0.1,0.2,0.5,0.6c0,0,0.1,0.1,0.1,0.1
	c0.2,0.3-0.2,0.4-0.2,0.7c0,0.3-0.4,0.4-0.4,0.1c0-0.3-1.2-0.4-1.5-0.1c-0.3,0.3-0.4,0.5-0.8,0.3c-0.3-0.3-1.2,0.1-2.3,0.1
	c-1.2,0-3.5,0.1-4.1,0.4c-0.6,0.2-1.1,1-0.5,1.6c0.5,0.5,0,0.8,0,1.1c0,0.4,1.4,1.1,2.2,1.2c0.8,0.1,1.4,1,0.9,1.6
	c-0.4,0.6-1.8-0.2-2.7-0.9c-0.9-0.7-3-1-3.6-0.9c-0.7,0-0.3-0.6-1.2-0.6c-0.9,0-1.6,0.8-1,0.8c0.6,0,1,0,0.7,0.2
	c-0.3,0.3,0.2,0.2,0.9,0.5c0.7,0.3-0.6,0.7-1.3,0.2c-0.7-0.5-1.5,0-1.7,0.4c-0.2,0.4,0.8,1.5,2.1,1.6c1.3,0.2,0.8,0.6,1.4,0.8
	c0.6,0.2,0.2,0.4-0.2,0.5c-0.4,0-1.2-0.6-1.8-0.9c-0.6-0.3-2.3,0.1-2.7-0.2c-0.4-0.4,0.2-0.8-0.1-1c-0.3-0.3,0-0.9,0.4-1.6
	c0.4-0.7-0.1-1.8-0.7-2c-0.6-0.2-0.6,0.4-0.4,0.6c0.1,0.2,0.1,1.1-0.4,1.7c-0.5,0.6-1.9,0.6-1.9,1c0,0.4-1,0.7-0.6,1
	c0.3,0.3,1.6,1.7,1.8,2.2c0.2,0.4-1.2,1.9-0.9,2.7c0.2,0.8-0.2,1.2,0.1,1.6c0.3,0.4,0.8,0,1.2,0.2c0.4,0.2,1-0.2,1.9-0.4
	c0.9-0.2,2.5,0.8,3.1,1c0.6,0.3,0.3,0.8,0.6,1.2c0.3,0.5-0.7,0.5-0.7,1.2c0,0.7,1.8,1,1.8,1.2c0.1,0.2-1.3,0-1.8-0.1
	c-0.5-0.2-0.6-0.9-0.7-1c-0.2-0.1,0.4-0.7,0.4-1.2c0-0.4-0.6-0.7-0.8-1c-0.2-0.3-0.6-0.8-1-0.7c-0.4,0.1-2,0.2-2.4,0.7
	c-0.5,0.4,0.1,1.6,0.3,2.2c0.3,0.6-1.4,1.4-1.3,1.9c0,0.5-0.5,0.7-1.2,1.1c-0.7,0.4-1.5,0.7-1.5,1.3c0,0.6-0.9,0.3-1.4,0
	c-0.5-0.3-1.1,0.2-1.8,0.1c-0.7,0-0.7-0.6-1.3-0.4c-0.6,0.2-0.9-0.3-0.8-0.7c0.2-0.4,0.8-0.1,0.8,0.2c0,0.3,0.4,0.2,0.9-0.1
	c0.5-0.3,0.2,0.3,0.9,0.4s0.3-0.4,0.8-0.3c0.5,0,0.5-0.1,0.4-0.4c-0.2-0.3,0.4-0.4,0.7-0.6c0.4-0.2,0.2-0.7,0.5-0.8
	c0.3-0.2,0.1-0.5,0.4-0.5c0.3,0,0.5-0.5,0.8-0.5c0.3,0,0.5-0.5,0.3-0.8c-0.2-0.3,0.1-1,0.4-1.1c0.3-0.1,0.3-0.4,0-0.6
	c-0.3-0.2-1.3-0.9-1.2-1.4c0.1-0.4-0.2-1.3,0-1.6c0.1-0.4,0-1.1,0-1.5c0-0.4,0.3-0.9,0.4-1.7c0.1-0.8-0.8-1.6-1.3-1.8
	c-0.5-0.2-0.2-0.6,0.5-1.2c0.7-0.6,0.7-2.3,0.7-2.7c0-0.4-1.4-0.7-2-0.7c-0.5,0-2.5,0-3-0.1c-0.5-0.1-0.7,0.4-0.9,0.9
	c-0.2,0.5-0.8,1.2-1.1,2.3c-0.3,1.1-1.6,1.4-2.1,1.6c-0.6,0.2-0.9,1-0.7,1.4c0.3,0.4,0.6,0.1,0.9,0.2c0.3,0.1,0,1.1-0.2,1.3
	c-0.2,0.1,0.3,0.5-0.1,0.8c-0.4,0.3-0.8,0.8-0.5,1.1c0.2,0.3,1.4,0.4,1.9,0.7c0.5,0.3,0.3,0.8,0.7,1.3c0.4,0.5,0.8,0.2,1,0.5
	s-0.7,1.5-1,1.6c-0.3,0-1.6-1.2-1.9-1.5c-0.4-0.3-1.8-0.7-2.6-1.1c-0.7-0.4-1.3-0.3-2.1-0.9c-0.8-0.5-1.5-0.8-2.9-0.8
	c-1.5,0-2.4-0.3-2.9-0.3c-0.5,0.1-0.3-0.5-1.2-0.9c-0.9-0.4-1.4-0.9-1.9-0.6c-0.5,0.3-0.3,1.2,0.4,1.3c0.8,0.1,0.4,0.5,1.2,0.5
	c0.8,0,1,0.2,1,0.7c0,0.5,0.4,1,0.7,1.3c0.4,0.3,0.1,0.9-0.5,0.9c-0.6,0-1.4,0.1-1.1,0.5c0.3,0.4-0.2,0.6-0.8,0.3
	c-0.6-0.2-0.3-0.7,0-0.9c0.3-0.3-0.6-0.6-1-0.7c-0.4-0.1-2,1-2.4,1.2c-0.4,0.2-1.5-0.3-2.7,0c-1.1,0.3-1.1,1.2-1.5,1.1
	c-0.4-0.1-1.7,0.1-2.1-0.2c-0.5-0.3-0.1-0.4,0.4-0.4c0.5,0,0.7-0.1,0.4-0.5c-0.3-0.3,0.4-0.8,0.4-1.1c0-0.2-1.9,0.4-2.2,0.6
	c-0.3,0.3,0,0.7-0.3,0.9c-0.3,0.2-0.3-0.3-0.7-0.4c-0.4-0.1-3.1,0.5-3.6,1.1c-0.5,0.6-1.5,0.6-1.5,0.9c0,0.3-1.2,0.3-1.7,0.5
	c-0.5,0.2-0.2,1.2-0.4,1.7c-0.2,0.5-2.1,0.3-2.7,0.4c-0.6,0-0.8-1.1-1.3-1.2c-0.5-0.1-0.2-0.7,0-1c0.1-0.3,0.5,0,1.1-0.4
	c0.6-0.4,1.2,0.2,1.4-0.1c0.2-0.3-0.9-0.9-1-1.5c-0.1-0.6-1.3-0.8-2-0.6c-0.7,0.2-1.5,0-2-0.2c-0.5-0.2-0.4,0.4,0.3,0.6
	c0.7,0.2,0.4,0.8,0.5,1.1c0.1,0.4-0.2,1.2-0.6,1.8c-0.4,0.6-0.1,0.6,0.5,0.6c0.6,0,0.6,0.8,0.6,1.4c0,0.6-0.5,0.8-0.5,1.2
	c0,0.4-0.5-0.2-0.7,0c-0.2,0.2-0.4-0.1-0.5-0.5c-0.1-0.4-1.1-0.2-1.6-0.3c-0.5-0.1-0.8,0.1-1,0.5c-0.3,0.4-1,0.6-1.4,0.6
	c-0.4,0.1-1.1,0.8-1.5,1.1c-0.4,0.3-0.5,0.8,0.1,1.4c0.6,0.6,0.7,0.9,0.7,1.2c0,0.3-1.6,0.2-1.9-0.1c-0.3-0.3-1.3-0.4-1.6-0.4
	c-0.4,0.1-1.3-1.1-1.8-1.1c-0.5,0-0.8,0.6-1,0.9c-0.2,0.3,0.2,0.4,0.5,0.9c0.2,0.5,1.1,0.5,1.6,0.5c0.4,0,0.3,0.7,0.1,1
	c-0.1,0.3-1,0.5-1.2,0.2c-0.2-0.3-1.2,0-1.2-0.4c0-0.4-0.7-0.9-1.5-0.8c-0.7,0.1-0.9-0.4-0.8-0.9c0-0.6-0.4-0.9-0.4-1.2
	c0-0.3-0.3-0.8,0-1c0.4-0.3,0.1-0.7,0.1-1c0-0.4-0.6-0.9-1.2-0.9c-0.6,0-0.5-0.6-1-0.7c-0.5-0.1-1.5-0.9-1.5-1.3
	c-0.1-0.4-0.8-0.4-0.6-0.5c0.3-0.1,0.8,0,1.3,0.5c0.4,0.4,1.1,0.8,2.2,0.9c1.1,0.1,1.6,0.7,2.8,0.9c1.2,0.2,1.9,0.3,3.7,0.6
	c1.8,0.3,4.1-1.5,4.6-2c0.5-0.5-0.1-1.5-0.1-1.9c0-0.4-0.8-0.4-0.9-0.7c-0.1-0.3-0.6-0.8-1.3-0.8c-0.7,0-0.8-0.8-1.3-0.7
	c-0.5,0-0.9-0.2-2.3-1.2c-1.4-0.9-3.4-1.6-3.7-1.5c-0.4,0.2-0.6,0.3-0.8-0.1c-0.2-0.4-0.8-0.3-1.2,0c-0.4,0.3-0.8-0.3-1.5-0.1
	c-0.7,0.2-1.1-0.3-0.9-0.5c0.2-0.2,1.2,0,1.2-0.4c0-0.4-0.4,0-1.1-0.4c-0.6-0.4-1-0.1-1.1,0.2c-0.1,0.4-0.6,0.3-1,0
	c0,0-0.1-0.1-0.1-0.1c-0.1,0.6-0.5,0.6-0.8,0.6c-0.4-0.1-0.8,0.6-1.3,0.6c-0.5,0-1,0.5-1.1,0.9c-0.1,0.4-0.6,0.2-0.6,0.5
	c0,0.3,0,0.6-0.2,0.8c-0.2,0.3,0,0.4,0.2,0.9c0.2,0.5,0.8,0.4,1,0.6c0.2,0.1,1.1,0.9,1.1,1.2c0,0.3-0.7,1-1,1.2
	c-0.3,0.2-0.7,0.7-0.5,0.9c0.2,0.3,1,1.5,1.5,2.4c0.5,0.9-0.2,0.5-0.5,0.9c-0.3,0.4,0.1,0.9,0.2,1.2c0.1,0.3-0.4,0.2-0.4,0.5
	c0,0.2,0.8,0.3,0.8,0.5c0,0.2-0.5,0.4-0.2,0.8c0.2,0.4,0.8,0.4,0.8,0.8c0,0.5-1,0.5-1,0.9c0,0.4,1.4,0.8,2,1.5
	c0.6,0.7,0.6,0.9,0.4,1.3c-0.3,0.8-2,1.4-2.3,2.3c-0.4,0.8-1.8,1.3-2.4,2c-0.3,0.3-0.5,0.6-0.8,1c0.3-0.1,0.5-0.2,0.7-0.2
	c0.4-0.2,0.6,0.7,1,1c0.4,0.3,1.1,0,1.4,0.3c0.3,0.3-0.2,0.3-0.8,0.2c-0.5-0.1-0.7,0.2-1.5,0.5c-0.6,0.2-0.6,0.4-0.8,0.6
	c0.4,0.6-0.1,0.6-0.3,1c-0.2,0.5-0.5,0.5-0.5,0.8c0,0.3,0.1,0.5,0.1,0.9c0,0.4,0.1,0.5,0.4,0.8c0.2,0.4-0.2,0.4-0.4,0.5
	c-0.2,0.2-0.1,0.6,0.2,0.8c0.3,0.3,0.3,0.6,0.2,0.9c-0.1,0.2,0.2,0.7,0.5,0.9c0.2,0.2,0.2,0.9,0.4,1.1c0.2,0.2,0.5,0.4,0.8,0.2
	c0.4-0.1,0.6,0.1,0.8,0.4c0.2,0.3,0.5,0.2,0.8,0c0.4-0.2,1.3,0.3,1.5,0.4c0.2,0.1,0.1,0.7,0.1,1.1c0,0.4-0.2,0.9,0.2,1.1
	c0.4,0.2,0.3,0.8,0.7,1c0.5,0.2,0.6,0.8,0.9,0.9c0.3,0.1,0.8,0.5,0.9,0.8c0.1,0.3-0.5,0.6-0.8,0.7c-0.3,0.1-0.9-0.4-1.1-0.2
	c-0.2,0.2,0.1,0.7,0.2,1.5c0.2,0.8,0.3,0.8,0.7,0.8c0.4,0,0.5-0.2,0.7-0.4c0.2-0.1,0.8,0.1,1.1,0c0.2-0.1,1.1-0.1,1.3,0.1
	c0.2,0.3,0.4,1,0.2,1.2c-0.1,0.2,0.2,0.5,0.4,0.9c0.2,0.4,0.9,0.2,1.2,0.3c0.2,0.1,0.8,0.9,0.7,1.2c-0.1,0.4,0.4,0.4,0.6,0.3
	c0.2-0.1,0.5,0.2,0.8,0.4c0.3,0.2,0.5,0.1,0.8-0.1c0.3-0.2,0.7-0.3,0.9-0.1c0.1,0.2,0.7,0.7,0.7,0.8c0,0.1,0.9,0,1.3,0.2
	c0.4,0.2,0.9,0.1,1.3,0.4c0.5,0.2,0.9,0.3,0.9,0.6c0,0.3-0.5,0.5-0.5,0.7c0,0.1,0.4,0.2,0.4,0.5c0,0.2-0.5,0.2-0.6,0.4
	c-0.1,0.2,0.3,0.4,0.4,0.6c0.1,0.2-0.3,0.8-0.3,1c0,0.2-1.1,0-1.3,0c-0.2,0-1,0.8-1.2,0.8c-0.2,0-0.1,0.4,0,0.8
	c0.8-0.1,1.5-0.2,1.6,0c0.1,0.3-1.6,1-2,1.2c-0.3,0.1,0.6,0.6,0.6,0.9c0,0.3-1,0.4-0.9,0.9c0.1,0.6-0.3,0.7-0.9,0.7
	c-0.5,0-0.7,0.3-0.4,0.4c0.3,0,0.2,0.8,1.2,1c1,0.3,2.1,1.2,3,2.1c0.1,0.1,0.3,0.2,0.4,0.3c0.2-0.1,0.5-0.3,0.6-0.3
	c0.5-0.1,1.4,0.2,1.9,0.6c0.5,0.4,2.3-0.1,2.5,0.2c0.2,0.3,0.6,0.6,1,0.6c0.4,0,0.7,0.7,1,0.5c0.3-0.2,1.3-0.2,1.6-0.2
	c0.3,0,0.3,0.2,0.6,0.2c0.3,0,0.3,1.1,0.5,1c0.2-0.1,1,0.6,1.5,0.7c0.5,0.1,1,0.9,1.2,0.8c0.2-0.1,0.6,0.4,0.7,0
	c0.1-0.3,0.8-0.2,1-0.8c-0.9-1.1-1.8-2.3-1.8-2.8c0-0.8,0.4-1.3-0.6-2.2c-1-0.8,0.1-1.4,0.8-2.3c0.6-0.8,2-1.1,2.8-1.7
	c-0.2-0.1-0.3-0.2-0.5-0.3c-0.6-0.3-0.8-0.6-0.4-0.7c0.5-0.1,0.3-0.4-0.2-1c-0.5-0.6-0.7-1.1-1-1.1c-0.3,0-0.7-0.1-1.1,0.1
	c-0.4,0.1-0.4-0.3-0.3-0.8c0.1-0.5-0.8-0.4-0.9-0.6c-0.1-0.2,0.2-0.9,0.4-1c0.1-0.1,0.6-0.3,0.6-0.5c0-0.2-0.8-0.3-0.5-0.8
	c0.3-0.5,0.8-0.5,0.8-1c0-0.5,0.4-0.9,0.9-0.6c0.5,0.4,0.7,1.3,1.3,1.1c0.6-0.2,0.2-0.7,0.1-1c-0.1-0.3-0.2-0.7,0.4-0.8
	c0.6-0.1,0.4-0.8,0.8-0.8c0.5,0,1.4-0.6,1.7-0.8c0.3-0.1,0.9-0.5,1.2-0.4c0.3,0.1,0.6,0.5,0.8,0c0.2-0.5,1.1-0.3,1.1,0
	c0.1,0.3,1.4,0.3,1.8,0.6c0.4,0.3,1.3,0.8,1.3,1.1c0,0.3,0.4,0.7,0.4,0.2c0-0.5,0.4-0.4,0.9,0c0.6,0.3,1.3,0.2,1.5-0.1
	c0.1-0.4,1.2-0.8,1.5-0.5c0.4,0.3,0.5,0.5,0.9,0.1c0.4-0.4,1.4-0.4,1.6,0.1c0.1,0.4,0.6,0.5,1.1,0.5c0.4,0,0.5,0.6,0.8,0.5
	c0.3-0.1,0.2-0.8,0.6-0.8c0.4,0.1,0.6,0.5,1.2,0.5c0.6,0,1-0.1,1-0.6c0-0.4-0.1-1.1-0.4-1.1c-0.4,0-0.7-0.4-1.1-0.4
	c-0.4,0-0.8-0.7-0.4-0.8c0.4-0.1,1.1-0.5,1-0.8c-0.1-0.4-0.3-1.1,0.3-1.1c0.6-0.1,1.8-0.1,1.7-0.3c-0.1-0.2-1.2-0.4-1.4-0.7
	c-0.2-0.4-0.3-1.2-0.1-1.3c0.2-0.1,0.9,0.1,1.3-0.1c0.4-0.1,1.3,0.2,1.9-0.2c0.6-0.4,1.8-0.5,2.4-0.5c0.6,0,1.1-0.4,1.6-0.5
	c0.5-0.1,1.9-0.3,2.3-0.4c0.4-0.1,2.3-0.4,2.3-0.8c0.1-0.4,1.6-0.6,2-0.5c0.4,0.2,0.9,0.3,1.2,0.2c0.4-0.1,1.1,0.2,1,0.6
	c-0.1,0.4,0.3,0.8,0.3,1.1c0,0.3-0.4,0.4-0.2,0.7c0.2,0.2,1.2,0.1,1.4-0.2c0.3-0.3,0.6,0.1,0.6,0.4s0.5,0.4,0.5,0.1
	c0-0.3,0.6-0.1,0.7,0.1c0.2,0.2,0.8-0.2,0.8,0.1c0,0.4-1,0.6-0.6,1c0.4,0.4,0.7-0.5,1.2-0.3c0.5,0.2,1.2-0.6,1.7-0.7
	c0.5-0.1,1-0.6,1.4-0.8c0.4-0.2,1.3-0.2,1.1,0.1c-0.3,0.3-0.6,0.8,0.5,1.2c1.1,0.4,2.3,2.4,2.9,3.5c0.7,1,1.3,2.9,1.7,2.9
	c0.4,0,0.5-0.9,0.9-1c0.5-0.1,0.7,0.8,1.2,0.9c0.5,0.1,1.2,0.4,1.6,0.2c0.4-0.1,1.3-0.6,1.6-0.5c0.3,0.2,0.7,0.2,1,0.8
	c0.3,0.7,0.7,0.8,1,0.8c0.3,0,0.3,0.3,0.3,0.6c0,0.3,0.5,0.7,0.8,0.7c0.3,0,1-0.1,1.3-0.2c0.2-0.1,0.5-0.3,0.6,0
	c0,0.3,0.5,0.8,0.8,0.8c0.3,0,0.8,0.2,0.9,0c0-0.2,0.8-0.4,1.1-0.4c0.3,0,1.3-0.2,1.5-0.7c0.2-0.4,1-0.4,1.2-0.7
	c0.2-0.3,0.9-0.4,1-0.7c0.1-0.3,1-0.2,1.1-0.5c0.1-0.2,0.8-0.3,1.1-0.2c0.3,0.1,2,0.4,2.2,0.4c0.2,0,0.3,0.8,0.5,0.9
	c0.2,0,1.1,0.7,1.3,0.5c0.2-0.2,0.8-0.4,1.3-0.1c0.5,0.3,0.9,0.7,1.1,0.3c0.2-0.3,1.2-0.5,1.3-0.7c0.1-0.2,0.3-0.8,0-0.9
	c-0.2-0.2-0.5-0.9-0.6-1.3c-0.1-0.4,0.6-0.5,0.7-0.8c0.1-0.3,0.7-0.4,0.8-0.6c0.2-0.2,0.2-0.6,0.6-0.5c0.3,0.1,1,0.3,1.2,0.5
	c0.1,0.1,0.7,0.2,1,0.2c0.3,0,0.8,0.3,1.2,0.5c0.3,0.2,1.4,0.2,1.5,0.5c0.2,0.3,0,1.1,0.2,1.4c0.2,0.3,0.8,0.9,1,0.8
	c0.2-0.1,1.1,0.5,1.4,0.4c0.3,0,0.8-0.6,1.1-0.6c0.3,0,1.2-0.2,1.5-0.2c0.3,0,1.3,0.4,1.5,0.3c0.1-0.1,1.1,0,1.2,0.3
	c0.1,0.3,1.3,0.3,1.3,0.6c0,0.3,0.7,0.5,0.8,0.9c0.2,0.4,1.7,0.1,2,0.4c0.3,0.2,2.1,0.2,2.1,0c0-0.2,1.7-0.3,2.1-0.5
	c0.3-0.2,1.2-0.1,1.3-0.5c0-0.3,0.9-0.6,1.3-0.8c0.4-0.3,1.9-0.2,2,0.1c0.1,0.3,1,0.4,1.4,0.3c0.4-0.1,1.4,0,1.5,0.4
	c0.1,0.3,1.3,0.5,1.6,0.4c0.3-0.1,1.2-0.8,1.5-0.8c0.3,0,0.8-0.4,0.7-0.7c-0.1-0.3,0.7-1.3,0.8-1.6c0.1-0.4,0.8-1.4,1-1.5
	c0.2-0.1,0.8-0.5,0.7-0.8c0-0.3-0.2-1.1-0.5-1.1c-0.3,0-0.8,0-0.1-0.8s1.8-0.7,2-0.7s1.7-0.4,2.3-0.2c0.7,0.2,1.1-0.1,1.8,0.3
	c0.7,0.4,1.7,0.2,1.9,0.6c0.2,0.3,1.2,0.6,1,1.2c-0.1,0.6,0.5,0.2,0.8,1.5c0.2,1.2,0.8,1.3,0.9,1.9c0.1,0.6,0.9,1.6,0.8,1.9
	c-0.1,0.3-0.2,0.8,0.6,0.9c0.8,0,1.4,0.7,1.6,0.6c0.2-0.1,1.1,0.2,1.6,0.7c0.5,0.5,1.2,0.2,1.1,0.8c0,0.5,0.4,0.9,0.3,1.4
	c0,0.4,0.9,0.7,1.5,0.6c0.7-0.1,1.1,0.2,1.4-0.3c0.3-0.6,1.2-0.3,1.6-0.6c0.3-0.2,1.3-0.5,1.3,0.3c0,0.8,0.5,1,0,1.3
	c-0.5,0.3-0.7,1.5-0.8,2c-0.1,0.5-0.8,0.7-0.9,1.2c-0.1,0.6-0.8,0.6-0.8,1c0,0.4-0.9,0.3-1.4,0c-0.5-0.3-0.9,0.6-1.3,0.6
	c-0.4,0-0.3,0.8-0.2,1.1c0.1,0.3-0.1,0.8,0.1,1.3c0.1,0.3,0,0.9,0.1,1.5c0.6-0.4,1.1-0.7,1.3-0.7c0.6,0,1.2,1,1.8,1
	c0.7,0,3.6-2,3.7-2.3c0-0.3,1.8-2,2.6-2.9c0.8-0.9,1.9-2.1,2.3-3.1c0.3-0.6,1.4-1.8,1.7-2.3c0.3-0.5,0.5-0.5,1-1.6
	c0.5-1.1,0.5-4,0.7-4.2c0.2-0.2,0.1-0.7,0.3-1c0.2-0.3,0.1-0.7,0.6-1.1c0.5-0.4,0.4-0.8,0.3-1.1c-0.1-0.3,0-1-0.1-1.2
	c-0.1-0.2-0.1-0.3,0.2-0.5c0.3-0.2-0.2-0.6-0.6-0.8c-0.4-0.2-0.9-0.4-1-0.8c0-0.4-0.7-1-1.2-0.9c-0.5,0-1.5-0.3-1.4,0
	c0.1,0.3,0,0.6-0.3,0.5c-0.3-0.1-0.4,0.1-0.7,0.6c-0.3,0.5-1.4,0.5-0.9,0.1c0.5-0.4-0.2-0.5-0.1-0.9c0.1-0.5,0.5-0.9,0-0.6
	c-0.5,0.3-0.5,1-1,1.1c-0.4,0.1-0.3-1.3-0.2-1.6c0.1-0.4-0.8,0-1.8,0c-1-0.1-0.7-0.8,0.1-1.2c0.8-0.4,0.7-0.8,1.1-1
	c0.4-0.2,1.4-0.8,2-1.2c0.6-0.4,0.7-0.8,0.9-1.2c0.1-0.4,1.3-0.9,2.3-1.7c1-0.8,1.5-1.3,1.7-1.8c0.2-0.5,1.7-1.1,1.8-1.5
	c0-0.4,1.8-1.3,3-1.6c1.2-0.2,3.1,0.1,3.5,0.4c0.4,0.4,0.6,0.2,0.8,0c0.2-0.2,0.7-0.1,1.5,0c0.8,0.1,1-0.4,1.5-0.2
	c0.5,0.2,1,0.3,1.3-0.4c0.3-0.6,1.9-0.5,2.2-0.3c0.4,0.3,0.6,0.6,1.2,0.2c0.6-0.4,0.6,0.5,1.1,0.6c0.5,0.1,0.2,0.5-0.3,0.5
	c-0.5,0-1.1,0.2-0.5,0.5c0.5,0.3,1.2-0.3,1.6-0.2c0.4,0,1.1,0.1,1.7-0.3c0.6-0.4,0.8,0.3,1.1,0c0.4-0.3,1.2-0.4,1.6-0.4
	c0.4,0,0.1-0.5-0.6-0.5c-0.7,0-0.7-0.4-0.1-1.3c0.6-1,1.6-1.5,2.3-2.1c0.7-0.6,1.2-0.3,1.2-0.7c0-0.4,0.3-1.4,0.8-1.5
	c0.5,0,1.8,0.2,2.6-0.2c0.8-0.4,0.7,0.3,1.1,0.4c0.3,0.1,0.8-0.7,1.2-0.4c0.4,0.2-0.6,0.8-0.8,1.5c-0.2,0.7,0.5,0.4,0.9,0.6
	c0.4,0.2-0.5,0.5-0.4,0.7c0.1,0.2,0.9,0.2,1.9-0.8c1-1,2-1.3,2.6-1.2c0.7,0.1,0.3-0.6,0.3-1.6c0-1,2.1-1.2,2.7-1
	c0.7,0.3,0.6,0.5,0,0.4c-0.6-0.2-1.2,0.4-1.2,1.2c0,0.8-0.6,1.1-0.3,1.4c0.3,0.3-0.4,0.4-0.5,0.7c0,0.3,0,0.6-0.5,0.7
	c-0.5,0.1-2,0.3-2.1,0.9c0,0.6-0.9,0.7-1.3,1.4c-0.4,0.8-1.9,1.2-2.9,2.7c-1,1.5-2.6,1.5-2.6,1.8c0,0.3-1.1,0.3-1.5,0.3
	s0.4,1-0.5,1.9c-0.9,1-1.5,2.3-1.5,3.6c0,1.3,0.5,5.2,0.9,5.9c0.4,0.7,0.2,2.3,0.5,2.7c0.3,0.4,0.2,0.9,0.4,1.2
	c0.2,0.2,1.1-0.9,1.7-1.4c0.6-0.5,0.4-0.7,0.8-0.9c0.4-0.3,0.2-1.3,0.4-1.6c0.1-0.3,0.8-0.4,1.1-0.7c0.2-0.3,0.8-0.1,1.2-0.2
	c0.3-0.1,0-0.9-0.1-1.3c-0.1-0.4,1-1.1,1.5-1.5c0.6-0.4,1.3,0.3,1.9-0.3c0.6-0.6,0-1.3-0.3-1.6c-0.2-0.3,0.6-1.8,1.1-1.9
	c0.5-0.1,0.8,0.4,1.2-0.1c0.5-0.4-0.4-1.1-0.8-1.1c-0.3,0-0.4-1.2,0.3-1.8c0.8-0.6,0.5-0.7,0-0.8c-0.5-0.1-0.6,0-1,0.1
	c-0.4,0-0.8-0.8-0.2-1.6c0.6-0.8,1.2-0.7,1.3-1.4c0.1-0.7,1-1.6,1.2-2c0.2-0.4,1.1,0,1.4-0.1c0.3-0.1,0.2,0.6,0.6,0.3
	c0.4-0.4,1.1-1.5,1.6-1.5c0.5,0,0.2,0.9,0.3,1.4c0.1,0.5,0.4-0.1,1.5-0.8c1-0.7,3.3-0.6,4-0.3c0.7,0.3,0.8,1.1,1.2,1
	c0.6-0.1,0.1-0.8,0.7-0.9c0.6-0.2,1.6-0.8,2.3-1.3c0.8-0.5,0.5-0.1,0.9-0.6c0.4-0.5,0.8-0.3,0.9-0.6c0.1-0.3,1.2-0.9,2.7-1.2
	c1.5-0.3,3.4-1.3,3.3-1.6c-0.1-0.3,0.6-0.4,0.6-0.1c0.1,0.3,0.6,0.2,1.4,0.4c0.8,0.2,1.1,0.5,1.7-0.1c0.6-0.6-0.1-0.8,0-1.3
	c0-0.5-1.1-1-0.9-1.5c0.1-0.5-0.8-1.8-1.1-1.5c-0.3,0.3-0.9-0.2-0.9-0.6c0-0.4,0-0.8-0.5-0.5c-0.4,0.3-1.2,0.1-1.3-0.3
	c-0.1-0.4,0.9-0.7,1.6-0.4c0.7,0.3,0.5,0.6,0.8,0.8c0.4,0.2,1.3,0.1,1.8-0.1c0.5-0.2,1.9-0.7,2.1-1.1c0.2-0.4,0-0.6,0.4-0.8
	c0.5-0.2,0.1-0.7-0.3-0.9c-0.4-0.2-0.3-0.8,0.1-0.8c0.4,0,0.3-0.5,0.6-0.5c0.3,0,0.3,0.2,0.8,0c0.5-0.3,0,0.4-0.2,0.8
	c-0.2,0.4,0.5,0.8,0.6,1.1c0.1,0.3,1.1,0.4,1.6,0c0.6-0.3,2.4,0.4,2.5,0.8c0.1,0.4,0.4,1,1.1,1.4c0.8,0.4,1.4,0.2,1.6,0.6
	c0.1,0.4,0.4,0.5,0.8,0.4c0.4-0.1,0.7,0.4,1,0.1c0.3-0.3,0.5,0.2,0.9-0.2c0.4-0.4-0.9-0.6-0.7-0.9c0.2-0.3,0.4,0.2,0.8,0.2
	c0.4,0-0.1-0.7,0.2-0.8c0.3-0.1,0-1.5-0.2-1.6c-0.3-0.1,0-0.6,0.5-0.2c0.5,0.4,1.4,0.4,1.8,0.4c0.4,0,0-0.4-0.4-0.4
	c-0.4-0.1,0.1-0.4,0.4-0.1c0.3,0.3,0.8,0.4,0.9,0.1c0-0.3,0.3-0.9,0.8-0.9C286,79.2,286.2,79,285.7,78.8z M154.6,109.6
	c-1.3,1.2-4,1.5-4,2.5c0,1-3.2,1.5-3.5,1.1c-0.2-0.4,2.4-0.5,3-1.9c0.6-1.4,3-2.1,4.2-4c0.8-1.3,1.6-3.4,2-3.2
	C156.9,104.1,156,108.4,154.6,109.6z M160.7,54.4c-0.2,0.4-1.2,0.4-0.9,0.8c0.5,0.6,2.8,0.3,2.9-0.5C162.7,54,160.9,54.1,160.7,54.4
	z M60.7,70.8c1.3,1.2,2.3-0.5,3-0.6c0.6-0.1-0.4-0.8-1.4-1C61.2,68.9,59.7,69.9,60.7,70.8z M75.4,33.8c0.1,0.4-0.2,0.4-1.2,0.4
	c-0.9,0-1.4,0.5-0.9,0.9c0.6,0.5,3.1,0.3,3.5-0.3c0.4-0.6,1.5-0.1,1.7-0.7C78.6,33.6,75.2,33.4,75.4,33.8z M69.3,34.4
	c0-0.8-2.4,0.1-2,0.2C67.8,34.7,69.3,35.1,69.3,34.4z M75.1,31.2c1.1,0,0.8-0.7,1.5-0.6c0.8,0.1,1.7,0,1.4-0.4
	c-0.4-0.5-3.1-0.3-2.8,0.1c0.3,0.4-2.2,0.2-2.2,0.4C73.2,30.9,74,31.2,75.1,31.2z M75.9,32.1c0.1-1-1.5-0.2-2.7-0.7
	c-1.2-0.5-1.9-0.5-1.1,0.2c0.4,0.3-2.1,0.6-1.7,1C71.3,33.5,75.8,33.1,75.9,32.1z M68.9,58.2c0,0.5-0.2,0.8-1.1,0.8
	c-0.9,0,0.4,0.6,0.5,1.1c0.1,0.5-0.9,0.1-0.9,0.9c0,0.8-1.7,0-2,1c-0.2,1,0.8,0.9,1.6,0.9c0.8,0-0.3,0.8,0.3,1.2
	c0.6,0.4,1,0.3,0.6-0.5c-0.4-0.8,2,0.3,1.3,0.9c-0.7,0.6,1.1,1.1,2,1.1c0.9,0,4.1,0.7,4.1,0c0-0.5-1.2-0.9-2.2-1.9
	c-1-1-1.7-2.7-0.6-3.4c1.1-0.7,0.1-1,1.3-1.8c1.1-0.8,0.5-1.6,1.4-1.6c0.9-0.1-0.1-0.9,0.8-1.1c0.9-0.1,1.1-1.2,1-1.5
	c-0.1-0.4,1,0,1.5-0.5c0.5-0.6,1.7-0.2,2.1-1c0.4-0.8,5.8-2.6,8.8-3.3c3.1-0.7,5.2-2,4.1-2.8c-1.1-0.8-4.1,0.3-4.9,0.9
	c-0.8,0.6-1.8,0.2-2.6,0.6c-0.8,0.4-2.3,0.8-3.1,0.3c-0.8-0.5-1.7,0.6-2.3,0.6c-0.6,0-1.3,0.6-2,0.6c-0.7,0-2,0.5-2.1,0.9
	c-0.1,0.4-1.2,0.3-1.2,0.8S74.5,52,74,51.6c-0.5-0.4-1,0.5-0.4,1.1c0.7,0.6-1.2,0.7-0.9,1c0.3,0.4-0.7,0.6-0.5,1
	c0.2,0.4-0.7,0.6-1.4,0.7c-0.7,0.1-1.1,1.1-0.2,1.1c0.9,0-0.5,0.2-0.4,0.9C70.4,58.2,68.9,57.7,68.9,58.2z"/>
<g>
	<defs>
		<path id="SVGID_1_" d="M196.2,120.6c0-0.8-0.9-0.6-1.3-0.3c-0.3,0.2-1.3,0-1.6,0.6c-0.3,0.6-0.8,0.2-1.4,0.3
			c-0.7,0.1-1.6-0.2-1.5-0.6c0-0.4-0.4-0.8-0.3-1.4c0-0.5-0.7-0.3-1.1-0.8c-0.5-0.5-1.4-0.8-1.6-0.7c-0.2,0.1-0.8-0.5-1.6-0.6
			c-0.8,0-0.7-0.6-0.6-0.9c0.1-0.3-0.7-1.4-0.8-1.9c-0.1-0.6-0.7-0.7-0.9-1.9c-0.2-1.2-0.9-0.9-0.8-1.5c0.1-0.6-0.8-0.8-1-1.2
			c-0.2-0.3-1.2-0.2-1.9-0.6c-0.7-0.4-1.1-0.1-1.8-0.3c-0.7-0.2-2.2,0.2-2.3,0.2s-1.4-0.2-2,0.7s-0.1,0.8,0.1,0.8
			c0.3,0,0.4,0.8,0.5,1.1c0,0.3-0.5,0.7-0.7,0.8c-0.2,0.1-0.9,1.1-1,1.5c-0.1,0.4-0.8,1.3-0.8,1.6c0.1,0.3-0.4,0.7-0.7,0.7
			c-0.3,0-1.2,0.7-1.5,0.8c-0.3,0.1-1.4-0.1-1.6-0.4c0-0.1-0.2-0.2-0.4-0.3l-1.3,2.5l-0.1,0.8c0,0-0.8,0.2-0.2,0.8
			c0.6,0.6,0.7,0.1,1.6,0.1c0.9,0,1.3,0.7,1.5,0.2c0.2-0.5,1-0.8,1.5-0.2c0.5,0.6,2.2,1.6,2,2.1c-0.1,0.5-1,0.4-1.6,0.2
			c-0.6-0.2-1.4,0.4-2,0.4c-0.6,0-1.3,0.2-1.9,0.8c-0.6,0.6-0.5,1.2-1.4,1.3c-0.9,0.1-1.3,0-2.4,0.7c-1,0.7-2.2,0.4-2.6,0.2
			c-0.4-0.2-1.1-0.3-1.5,0.4c-0.4,0.7,0.5,1,0.4,1.8c-0.1,0.8-1.1,0.6-1.9,1.5c-0.8,0.9-2.1,1.3-2.9,1.2c-0.7-0.1-2.2-0.5-3.6,0.1
			c-1.3,0.6-2.3,1.5-2.8,1.4c-0.5-0.1-0.5-0.7-1.2-0.6c-0.7,0.1-1.1-0.1-1.6-0.4c-0.5-0.3-0.9,0.2-1.7-0.4c-0.8-0.6-2.3-0.5-2.9-0.6
			c-0.6-0.1-3,0-3.8-0.1c-0.8-0.1-1.9,0.2-2-0.2c-0.1-0.4-0.7-0.7-0.9-1.6c-0.2-0.9-0.7-1.2-1.2-1.3c-0.5-0.1-0.6-0.6-1-0.7
			c-0.2,0-0.5-0.7-1.2-0.7c-0.7,0-3.2-0.3-3.6-0.9c-0.4-0.6,0.4-0.7,0.4-1.3s0.4-1.4,0.1-1.6c-0.3-0.2-0.8-0.7-0.8-1.2
			c-0.1-0.5-0.8-1.1-1.4-1.1c-0.5,0-0.9-0.4-1.4-0.8c-0.5-0.4-0.9-0.4-1.1-1.5c0-0.1,0-0.1-0.1-0.2c-0.2,0-0.4-0.1-0.6-0.1
			c-0.1,0-0.3-0.1-0.4-0.2c-0.1,0.4-0.6,0.7-0.6,1c0,0.4-0.2,0.9-0.7,0.9c-0.5,0-1,0.4-1,1.2c0,0.8,0.5,0.9,0.2,1.3
			c-0.2,0.4-1.2,0.7-1.5,0.6c-0.3-0.2-0.9-0.1-1.5-0.1c-0.5-0.1-0.9-0.7-1.1,0c-0.2,0.7-1.2,2.8-1,3.1c0.3,0.2,0.5,0.7,0,0.7
			c-0.5,0-0.9-0.1-1.1-0.3c-0.2-0.2-1,0.3-1.5,0.3c-0.2,0-1.3,0.4-0.9,0.6c0.4,0.2,0.4,1,0.4,1.4c0,0.4,0.8,1.4,0.6,1.8
			c-0.1,0.4-0.8,0.7-0.8,1.2c0,0.5,0.1,0.9-0.1,1c-0.2,0.1-1,0.4-1.4,0.7c-0.4,0.3-1,0.3-1.2,0.7c-0.2,0.4-0.5,0.8-1.3,0.7
			c-0.6-0.1-1-0.2-1.4,0.4c-0.5,0.6-0.6,0.4-1,0.6c-0.4,0.3-0.7-0.2-1-0.3c-0.3-0.1-0.7,0.3-1,0.3c-0.3,0-0.5,0.5-0.9,0.6
			c-0.4,0.1-0.7,0-0.7,0.4c0,0.3-0.1,0.6-0.3,0.8h0l0.3,1.4c0,0,1.5,0.5,1.6,1c0.1,0.5,0.3,2.1,0.3,2.1s0,0,0,0
			c0.6,0.5,1.4,1,1.4,1.2c0,0.2,0.1,0.8,0.8,1.2c0.5,0.2,0.9,0.5,1.2,0.7c0-0.1,0.1-0.1,0.1-0.1l0.6-0.1c0,0,0.2,0.1,0.4,0.3
			c0.2-0.5,1.2-1.1,1.8-1c0.6,0,2,1.1,1.8,1.5c-0.1,0.4-1.1,1.8-1.6,1.9c-0.2,0-0.4,0.1-0.7,0.1c0,0.2-0.1,0.4-0.1,0.6
			c0,0.3,0.6,0.8,0.9,1.4c0.3,0.6-0.5,0.9-0.9,0.6c-0.4-0.4-0.6,0.4-0.4,0.7c0.3,0.3,0.1,1.2,0.6,1.3c0.4,0.1,0.8,0.9,1.3,0.9
			c0.5,0,0.9,0.8,0.9,0.8s0.7,0.4,0.7,0.7c0,0,0,0.1,0,0.1c0.5-0.1,0.9-0.1,1-0.3c0.1-0.2,0.8-0.2,1.3,0.2c0.5,0.5,2.5,1.8,3.2,2.4
			c0.7,0.6,2.5,1.3,3.1,1.2c0.6,0,1.2,0.4,2.1,0.4c0.1,0,0.3,0,0.4,0c0.1-0.1,0.4-0.1,0.5-0.4c0.2-0.4,0.6,0.3,0.5,0.8
			c-0.1,0.2,0,0.5,0.1,0.7c0.1-0.2,0.3-0.4,0.4-0.7c0.3-0.8,0.8-0.7,1.1-1c0.3-0.2,0.6-0.1,1.3,0.2c0.6,0.3,0.9-0.4,1.8,0.5
			c0.2-0.1,0.4-0.2,0.6-0.2c0.2,0,0.4-0.4,0.8-0.7c0.3-0.3,0.2-0.7,0.6-0.6c0.4,0.1,0.6-0.4,1.4-0.9c0.8-0.4,1.5,0.2,1.9-0.1
			c0.4-0.3,0.8-0.4,0.8-0.1c0,0.3,0.5,0.7,0.6,1.1c0.1,0.3,0.8,0.5,0.9,0.5c0.1-0.1,0.2-0.1,0.3-0.2c0.4-0.3,1.1,0,1.1,0.5
			c0,0.4,0,0.9,0.4,0.9c0.3,0,0.6,0,0.6,0.8c0,0.8,0.3,1.7-0.4,2.3c-0.7,0.7-1.4,1.9-1.3,2.2c0.1,0.4-0.2,1,0.3,0.8
			c0.5-0.2,1.6,0,1.4,0.3c-0.2,0.3,0,1.3,0.5,1.3c0.5,0,0.7,0.3,0.6,0.7c-0.1,0.4-0.4,1.1,0,1.1c0.4,0,1,0,0.9,0.4
			c-0.1,0.4,0.3,0.8,1,0.5c0.4-0.2,0.6-0.3,0.7-0.2c0.3,0,0.3,0.6,0.8,0.8c0.5,0.1,0.3-1.1,0.1-1.3c-0.2-0.2,0.1-1,0.3-0.8
			c0.2,0.2,0.8,0,1.1-0.4c0.3-0.4,0.9,0.3,1.2-0.1c0.3-0.4,0.8,0.3,1.4,0c0.6-0.3,0.8,0.2,1.1-0.2c0.3-0.4,1.1-1,1.3-0.8
			c0.2,0.2,0.3,0.6,1.3,0.7c1,0.1,0.4,0.6,0.4,0.9s1.1,1.1,1.6,1.2c0.1,0,0.2,0.1,0.3,0.3c0.3-0.2,0.8,0.1,1-0.3
			c0.1-0.4,0.7-0.3,0.9,0c0.2,0.4,0.4,0.4,0.9,0c0.5-0.4,0.7,0.4,0.4,0.7c-0.3,0.2-0.1,1,0.3,1.4c0.4,0.4,0.5-0.3,0.4-0.7
			c-0.1-0.4,0.8-0.8,2.2-1.3c1.5-0.5,3.1-1.6,3.1-1.8c0-0.2,1.1,0.4,1.6,0c0.5-0.4,2.3-0.4,2.7-0.4c0.5,0,0.4-0.4,0.9-0.8
			c0.5-0.4,0.4-0.6,0.9-0.8c0.6-0.2,0.9-0.7,0.9-1c0-0.3,1.1-0.4,1.1-0.7c0-0.3,0.8-0.4,0.8-0.8c0-0.4,0.5-0.3,0.7-0.6
			c0.2-0.3-0.2-1.1,0.2-1.2c0.4-0.1-0.1-0.6-0.2-0.8c-0.1-0.2,0.7-0.3,1.1-0.5c0.4-0.3,0.7-0.7,0.7-1.1c0.1-0.4,0.7-0.8,1-1
			c0.3-0.1,0.4-0.8,0.3-1.3c-0.1-0.5,0.5-0.4,0.3-0.6c-0.3-0.2,0.1-0.8,0.7-1c0.6-0.2-0.4-0.4-0.7-0.2c-0.3,0.2-0.6-0.7-0.9-0.3
			c-0.3,0.4-1.1-0.2-0.6-0.3c0.5-0.1,1.3-0.7,1.7-0.8c0.4-0.1-0.5-0.9-1-0.9c-0.4,0-0.9-1-1.4-1c-0.5,0,0.4-0.3,0.9,0
			c0.5,0.3,1.2,0.5,1.4,0.3c0.2-0.2-0.9-1.2-1.3-1.5c-0.4-0.3,0-0.8-0.3-1c-0.3-0.2-0.8-1.4-1-1.9c-0.2-0.5-1.2-0.6-1.4-1
			c-0.2-0.4,0-1.2,0.8-1.5c0.7-0.3,0.4-0.9,0.8-0.8c0.3,0.1,0.6-0.1,0.9-0.6c0.3-0.5,0.7-0.2,1-0.5c0.3-0.3,1.4-0.3,1.8-0.5
			c0.4-0.3-0.4-1.2-0.9-1c-0.5,0.1-1.2-0.1-1.5-0.6c-0.4-0.6-1.4,1-2.1,1.4c-0.8,0.4-1.2-0.6-1-1.3c0.3-0.6-0.6-0.6-1.6-0.6
			c-1.1,0-0.7-1.9,0-2c0.6-0.1,1.6,0.6,2-0.6c0.4-1.2,1-0.3,1.9-1.3c0.9-1,1.9-1.7,2.7-1.1c0.8,0.6-0.8,1.6-1.1,2.2
			c-0.3,0.6,0.2,0.8-0.2,1.2c-0.5,0.4,0.2,0.6,1.1,0c0.9-0.6,2-1.3,2.9-1.6c0.2-0.1,0.5-0.1,0.8-0.1c0.1-0.3,0.3-0.6,0.4-0.7
			c0.6-0.3,2.7-1.2,3-1.6c0.3-0.4,0.6-1.1,1-1.1c0.4,0,0.4,0.4,1,0.4c0.6,0,1.3,0.2,1-0.3c-0.3-0.5-0.1-0.5,0.6-0.6
			c0.7-0.1,0.6-0.8,1.1-0.8c0.5,0,0.4-1.2,0.9-1.2c0.5,0,0.7,0.7,1.3,0.5c0.1,0,0.3,0,0.4,0.1c0.1-0.1,0.3-0.2,0.4-0.3
			c-0.1-0.6,0-1.2-0.1-1.5c-0.2-0.6,0-1-0.1-1.3c-0.1-0.3-0.1-1.1,0.2-1.1c0.4,0,0.8-0.9,1.3-0.6c0.5,0.3,1.4,0.4,1.4,0
			c0-0.4,0.7-0.5,0.8-1c0.1-0.6,0.8-0.7,0.9-1.2c0.1-0.5,0.4-1.7,0.8-2C196.8,121.7,196.2,121.5,196.2,120.6z M173.2,165.1
			c-0.5,1.9,0.7,2.8,0.8,2.7c0.5-0.3,2.4-4.4,2-4.9C175.6,162.3,173.7,163.2,173.2,165.1z M156.5,171.5c-0.6,0-2.2,0.9-1.6,2.2
			c0.6,1.3,2.6,0.4,2.7-0.1c0-0.6,1-1.4,0.8-1.9C158.3,171.3,157.1,171.5,156.5,171.5z"/>
	</defs>
	<use xlink:href="#SVGID_1_"  style="overflow:visible;fill:#262418;"/>
	<clipPath id="SVGID_2_">
		<use xlink:href="#SVGID_1_"  style="overflow:visible;"/>
	</clipPath>
	<use xlink:href="#SVGID_1_"  style="overflow:visible;fill:none;stroke:#3D3B26;stroke-width:0.5;stroke-miterlimit:10;"/>
</g>
<g>
	<defs>
		<path id="SVGID_3_" d="M170.8,120.9c-0.5-0.6-1.3-0.3-1.5,0.2c-0.2,0.5-0.6-0.2-1.5-0.2c-0.9,0-1,0.5-1.6-0.1
			c-0.6-0.6,0.2-0.8,0.2-0.8l0.1-0.8l1.3-2.5c-0.4-0.1-0.9-0.2-1.2-0.1c-0.4,0.1-1.3,0-1.4-0.3c-0.1-0.3-1.6-0.4-2-0.1
			c-0.4,0.3-1.2,0.5-1.3,0.8c0,0.3-0.9,0.2-1.3,0.5c-0.3,0.2-2,0.3-2.1,0.5c0,0.2-1.8,0.2-2.1,0c-0.3-0.2-1.8,0-2-0.4
			c-0.2-0.4-0.8-0.6-0.8-0.9c0-0.3-1.2-0.3-1.3-0.6c-0.1-0.3-1.1-0.4-1.2-0.3c-0.1,0.1-1.2-0.3-1.5-0.3c-0.3,0-1.2,0.2-1.5,0.2
			c-0.3,0-0.8,0.5-1.1,0.6c-0.3,0-1.2-0.6-1.4-0.4c-0.2,0.1-0.8-0.5-1-0.8c-0.2-0.3,0-1.1-0.2-1.4c-0.2-0.3-1.2-0.3-1.5-0.5
			c-0.3-0.2-0.8-0.5-1.2-0.5c-0.3,0-0.8-0.1-1-0.2c-0.1-0.1-0.8-0.4-1.2-0.5c-0.3-0.1-0.4,0.3-0.6,0.5c-0.2,0.2-0.8,0.2-0.8,0.6
			c-0.1,0.3-0.8,0.4-0.7,0.8c0.1,0.4,0.3,1.1,0.6,1.3c0.2,0.2,0.1,0.8,0,0.9c-0.1,0.2-1.1,0.3-1.3,0.7c-0.2,0.3-0.7,0-1.1-0.3
			c-0.5-0.3-1-0.1-1.3,0.1c-0.2,0.2-1.1-0.5-1.3-0.5c-0.2,0-0.3-0.9-0.5-0.9c-0.2,0-1.9-0.3-2.2-0.4c-0.3-0.1-1,0-1.1,0.2
			c-0.1,0.2-0.9,0.2-1.1,0.5c-0.1,0.3-0.8,0.4-1,0.7c-0.2,0.3-1,0.3-1.2,0.7c-0.2,0.4-1.2,0.6-1.5,0.7c-0.3,0-1,0.2-1.1,0.4
			c0,0.1-0.1,0.1-0.3,0.1c0,0.1,0,0.1,0.1,0.2c0.2,1.1,0.7,1,1.1,1.5c0.5,0.4,0.9,0.7,1.4,0.8c0.5,0,1.3,0.7,1.4,1.1
			c0.1,0.5,0.6,1,0.8,1.2c0.3,0.2-0.1,1-0.1,1.6s-0.7,0.7-0.4,1.3c0.4,0.6,2.9,0.9,3.6,0.9c0.7,0,1,0.7,1.2,0.7
			c0.5,0.1,0.5,0.6,1,0.7c0.5,0.1,1,0.4,1.2,1.3c0.2,0.9,0.8,1.2,0.9,1.6c0.1,0.4,1.2,0.1,2,0.2c0.8,0.1,3.2,0,3.8,0.1
			c0.6,0.1,2,0,2.9,0.6c0.8,0.6,1.2,0.1,1.7,0.4c0.5,0.3,0.9,0.5,1.6,0.4c0.7-0.1,0.7,0.5,1.2,0.6c0.5,0.1,1.4-0.8,2.8-1.4
			c1.3-0.6,2.9-0.2,3.6-0.1c0.7,0.1,2-0.3,2.9-1.2c0.8-0.9,1.8-0.7,1.9-1.5c0.1-0.8-0.8-1.1-0.4-1.8c0.4-0.7,1.1-0.6,1.5-0.4
			c0.4,0.2,1.5,0.5,2.6-0.2c1-0.7,1.4-0.6,2.4-0.7c0.9-0.1,0.8-0.7,1.4-1.3c0.6-0.6,1.3-0.8,1.9-0.8c0.6,0,1.4-0.6,2-0.4
			c0.6,0.2,1.5,0.3,1.6-0.2C173,122.5,171.3,121.5,170.8,120.9z"/>
	</defs>
	<use xlink:href="#SVGID_3_"  style="overflow:visible;fill:#262418;"/>
	<clipPath id="SVGID_4_">
		<use xlink:href="#SVGID_3_"  style="overflow:visible;"/>
	</clipPath>
	<use xlink:href="#SVGID_3_"  style="overflow:visible;fill:none;stroke:#3D3B26;stroke-width:0.5;stroke-miterlimit:10;"/>
</g>
<g>
	<defs>
		<path id="SVGID_5_" d="M121.6,117.1c0-0.3-0.3-0.2-0.6,0c-0.2,0.1-1,0.2-1.3,0.2c-0.3,0-0.8-0.4-0.8-0.7c0-0.3-0.1-0.6-0.3-0.6
			c-0.3,0-0.7-0.1-1-0.8c-0.3-0.7-0.7-0.7-1-0.8c-0.3-0.2-1.2,0.3-1.6,0.5c-0.4,0.1-1.1-0.1-1.6-0.2c-0.5-0.1-0.8-1-1.2-0.9
			c-0.5,0.1-0.6,1-0.9,1c-0.4,0-1-1.8-1.7-2.9c-0.7-1-1.9-3.1-2.9-3.5c-1.1-0.4-0.7-0.9-0.5-1.2c0.3-0.3-0.6-0.4-1.1-0.1
			c-0.4,0.2-1,0.7-1.4,0.8c-0.5,0.1-1.2,0.9-1.7,0.7c-0.5-0.2-0.8,0.7-1.2,0.3c-0.4-0.4,0.6-0.7,0.6-1c0-0.4-0.7,0.1-0.8-0.1
			c-0.2-0.2-0.7-0.4-0.7-0.1c0,0.3-0.5,0.1-0.5-0.1s-0.3-0.7-0.6-0.4c-0.3,0.3-1.2,0.5-1.4,0.2c-0.2-0.2,0.1-0.3,0.2-0.7
			c0-0.3-0.3-0.7-0.3-1.1c0.1-0.4-0.7-0.8-1-0.6c-0.4,0.1-0.8,0-1.2-0.2c-0.4-0.2-1.9,0.1-2,0.5c-0.1,0.4-2,0.6-2.3,0.8
			c-0.4,0.1-1.8,0.4-2.3,0.4c-0.5,0.1-1,0.5-1.6,0.5c-0.6,0-1.8,0.1-2.4,0.5c-0.6,0.4-1.5,0.1-1.9,0.2c-0.4,0.1-1.1-0.1-1.3,0.1
			c-0.2,0.1-0.1,1,0.1,1.3c0.2,0.4,1.3,0.5,1.4,0.7c0.1,0.2-1.1,0.2-1.7,0.3c-0.6,0.1-0.4,0.8-0.3,1.1c0.1,0.4-0.6,0.7-1,0.8
			c-0.4,0.1,0,0.8,0.4,0.8c0.4,0,0.8,0.4,1.1,0.4c0.4,0,0.4,0.7,0.4,1.1c0,0.4-0.4,0.6-1,0.6c-0.6,0-0.8-0.4-1.2-0.5
			c-0.4-0.1-0.3,0.6-0.6,0.8c-0.3,0.1-0.4-0.5-0.8-0.5c-0.4,0-0.9-0.1-1.1-0.5c-0.1-0.4-1.1-0.5-1.6-0.1c-0.4,0.4-0.6,0.2-0.9-0.1
			c-0.4-0.3-1.4,0.1-1.5,0.5c-0.1,0.4-0.9,0.5-1.5,0.1c-0.6-0.4-0.9-0.5-0.9,0c0,0.5-0.4,0.1-0.4-0.2c0-0.3-0.9-0.8-1.3-1.1
			c-0.4-0.3-1.8-0.3-1.8-0.6c-0.1-0.3-0.9-0.5-1.1,0c-0.2,0.5-0.6,0.1-0.8,0c-0.3-0.1-0.9,0.2-1.2,0.4c-0.3,0.1-1.2,0.8-1.7,0.8
			c-0.5,0-0.2,0.6-0.8,0.8c-0.6,0.1-0.5,0.6-0.4,0.8c0.1,0.3,0.4,0.8-0.1,1c-0.6,0.2-0.8-0.7-1.3-1.1c-0.5-0.4-0.9,0.1-0.9,0.6
			c0,0.5-0.6,0.5-0.8,1c-0.3,0.5,0.5,0.6,0.5,0.8c0,0.2-0.4,0.4-0.6,0.5c-0.1,0.1-0.5,0.8-0.4,1c0.1,0.2,1,0.1,0.9,0.6
			c-0.1,0.5-0.1,1,0.3,0.8c0.4-0.1,0.8-0.1,1.1-0.1c0.3,0,0.5,0.6,1,1.1c0.5,0.6,0.7,0.8,0.2,1c-0.5,0.1-0.3,0.4,0.4,0.7
			c0.2,0.1,0.3,0.2,0.5,0.3c0.1-0.1,0.2-0.1,0.3-0.2c0.8-0.7,2.3-1.4,3.3-1.1c1.1,0.3,2-0.2,2.4,0.5c0.5,0.7,0,1.9,0.2,2.3
			c0.2,0.5-0.8,0.5-1.6,0.4c-0.7-0.1-2.2,0.3-2,0.7c0.2,0.4,0.7,1.4-0.2,0.9c-0.9-0.5-1.3,0.5-0.8,0.5c0.5,0,1.2,0.6,1.2,1
			c0,0.4,0,1.4,0.5,1.2c0.5-0.1,0.5,0.7,1.1,0.7c0.7,0,1.3,0.2,0.8,0.8c-0.5,0.6,0.3,2.3,0.5,1.9c0.1-0.2,0-0.7,0.2-1.1
			c-0.4-0.9,1.2-0.9,1.6-0.9c0.5,0,1.4,0.8,1.9,1.5c0.6,0.8,1.1,0.2,1.1,0.2l0.2-7l4-1.1c0-0.1,0.1-0.2,0.1-0.3
			c0.5-0.8,1.2-0.1,1.5,0c0.2,0.1,0.1-0.8,0.7-0.8c0.6,0,0,0.9,0.4,0.9c0.3,0,1.1,1.2,0.8,2.1c0.6,0.5,1.8,1.7,1.9,2
			c0.1,0.4,1.8-0.2,2.1-0.1c0.3,0.1,2.8,0.1,3.2,0.1c0.4,0,0.8,0.8,1.3,0.9c0.5,0.1,0.3,0.9,0.4,1.5c0.1,0.6,0.8,1.1,0.9,1.6
			c0.1,0.5,0.9,0.3,1.4,0.4c0.5,0.1,1.3,0.3,1.3,0.8c0.1,0.5,0.7,0.1,0.8-0.3c0.1-0.4,0.7-0.9,1.6-1.3c0.4-0.2,0.7-0.2,0.9-0.1
			c0.2-0.5,0.4-0.8,0.5-0.9c0.3-0.1,0.9-0.6,1-1.1c0-0.5,1.3-0.5,2.2,0c0.8,0.4,1.4,0.4,1.4-0.2c0-0.7,1.3-0.8,1.6-0.7
			c0.4,0.2,1.5,0.8,2.1,0.6c0.6-0.2,3.4,0,4.1,0.2c0.7,0.2,0.9-0.3,1.5,0.4c0.5,0.6,0.8,0.1,1.3,0.5c0-0.2,0-0.4,0-0.6
			c0-0.5,0.7-0.8,0.8-1.2c0.1-0.4-0.6-1.4-0.6-1.8c0-0.4,0-1.2-0.4-1.4c-0.4-0.2,0.7-0.6,0.9-0.6c0.5,0,1.3-0.5,1.5-0.3
			c0.2,0.2,0.7,0.3,1.1,0.3c0.5,0,0.3-0.5,0-0.7c-0.3-0.2,0.8-2.3,1-3.1c0.2-0.7,0.6-0.1,1.1,0c0.5,0.1,1.1,0,1.5,0.1
			c0.3,0.2,1.3-0.2,1.5-0.6c0.2-0.4-0.3-0.5-0.2-1.3c0-0.8,0.5-1.2,1-1.2c0.5,0,0.7-0.5,0.7-0.9c0-0.4,0.4-0.6,0.6-1
			C121.8,117.5,121.7,117.2,121.6,117.1z M81.4,123.9c-0.2,0.3-2-0.2-2.2-0.6C79.1,122.9,81.8,123.4,81.4,123.9z M108.1,123.8
			c-1.3,0-4.2-0.7-5.4,0.6c-1.2,1.3-0.3,1.9-0.8,2c-0.6,0.1-0.8-1.9-0.2-2.6c0.7-0.7,2.8-0.9,4.1-0.6c1.3,0.3,3.7-0.3,4-0.2
			C110.1,123.1,109.4,123.8,108.1,123.8z"/>
	</defs>
	<use xlink:href="#SVGID_5_"  style="overflow:visible;fill:#262418;"/>
	<clipPath id="SVGID_6_">
		<use xlink:href="#SVGID_5_"  style="overflow:visible;"/>
	</clipPath>
	<use xlink:href="#SVGID_5_"  style="overflow:visible;fill:none;stroke:#3D3B26;stroke-width:0.5;stroke-miterlimit:10;"/>
</g>
<g>
	<defs>
		<path id="SVGID_7_" d="M124,165.5c-0.3-0.7-0.5-1.9-0.4-2.4c0.1-0.5,0.7-0.1,0.9-0.7c0.2-0.6-1.6-0.6-1-1.3c0.6-0.8,0.6,0,1.3,0
			c0.8,0,1,0.4,1,0.9c0,0.5,0.8,0.8,0.8,0.8s1.2-0.1,1.8-0.1c0.6,0,1.1,0,1.1,0.4c0,0.4-0.7,1.6-1.2,1.6c-0.6,0-0.6,1.6-0.1,1.7
			c0.5,0.1,0.9-1.2,1.1-1.2c0.2,0,0.4,1.5,0.6,3.1c0.1-0.1,0.2-0.2,0.2-0.2c0.4,0,0.2-1.3,0.4-1.7c0.2-0.4,0.1-1.6,0.3-1.6
			c0.2,0,1.3,0.4,1.3,0.1c-0.1-0.3,0.7-1.4,0.6-1.9c-0.1-0.6,0.4-1.3,0.4-1.9c0-0.7,0.6-0.9,1.1-1.3c0.4-0.4,1.2-0.9,1.3-0.6
			c0.1,0.3,1.1,0.6,0.7,0c-0.4-0.6-0.4-0.9-0.1-1.1c0.3-0.1,0.4-0.8,0.4-0.8s-0.8-0.1-0.9-0.5c-0.1-0.4-0.6-0.8-0.6-1.1
			c0-0.3-0.4-0.2-0.8,0.1c-0.4,0.3-1.1-0.4-1.9,0.1c-0.8,0.4-1,0.9-1.4,0.9c-0.4-0.1-0.3,0.3-0.6,0.6c-0.3,0.3-0.6,0.7-0.8,0.7
			c-0.2,0-0.8,0.3-0.8,0.3s0.4,0.9,0.2,1.4c-0.2,0.4-0.9,0-1.6,0.2c-0.7,0.2-1-0.2-1.5-0.1c-0.5,0.1-0.8-0.3-1.1-0.3
			c-0.2,0.1-0.6-0.6-0.5-1.1c0.1-0.5-0.3-1.2-0.5-0.8c-0.3,0.4-0.6,0.2-0.6,0.8c0,0.6,0.3,1.3-0.1,1.6c-0.4,0.4-2.4,0.6-2.8,0.3
			c-0.4-0.3-2-0.5-2.1-0.8c-0.1-0.3-0.6-0.9-0.9-0.9c-0.3,0-1.3,0.4-1.5,0.2c-0.3-0.2-0.9-0.7-1.3-0.8c-0.4-0.1-1.1-0.4-1.2-0.6
			c-0.1-0.2-1.1-0.4-1.3-0.6c-0.2-0.3-0.8-0.3-0.8-0.6c0-0.3,0.3-0.8,0.3-1.2c0-0.4,0.8-0.8,0.8-1c0-0.3-0.7-0.7-0.7-0.7
			s-0.4-0.8-0.9-0.8c-0.5,0-0.9-0.9-1.3-0.9c-0.4-0.1-0.3-0.9-0.6-1.3c-0.2-0.3-0.1-1.1,0.4-0.7c0.4,0.4,1.3,0,0.9-0.6
			c-0.3-0.6-0.9-1.1-0.9-1.4c0-0.3,0.4-1.3-0.1-1.5c-0.4-0.2-0.8-0.6-0.9-1.1c-0.1-0.4-0.6-0.8-0.6-0.8l-0.6,0.1c0,0-0.4,1-0.6,1.1
			c-0.3,0.1-1.1,0.3-1.6,0.6c-0.4,0.3-1.7-0.4-2.4-0.4c-0.7,0-1.1,0.7-0.8,0.9c0.3,0.2,0.2,1.5,0.2,1.5s0.4,1.6,0.9,1.5
			c0.6-0.1,1.3,0.6,0.8,0.7c-0.5,0.1-0.8,0.7-0.8,1.2c-0.1,0.5,0.1,1.1-0.3,1.2c-0.4,0.1-0.8,0.2-0.8,0.9c0,0.7-0.8,0.5-0.9,0.8
			c-0.1,0.3-0.4,1.5-0.6,1.7c-0.2,0.2-1.3,0.2-1.3,0.8c-0.1,0.6-0.6,1.3-0.9,1.2c-0.3-0.1-0.9-0.3-1.1,0.1c-0.2,0.4-1-0.3-1.2-0.1
			c-0.2,0.2-1.2,1-1.2,1.5c0,0.5,1.1,0.5,1,1.1c-0.1,0.6,0.4,1.3,0.7,1.6c0.3,0.3,0.8,1.1,0.6,1.4c-0.2,0.4-0.6,0.4-1.2,0.3
			c-0.6-0.1-0.5,0.3-1.5,0.1c-1-0.2-1.1,0.6-1.4,1c0,0-0.1,0.1-0.1,0.1c0.5,0.4,0.7,1,1.5,1.3c0.9,0.4,1.7-0.6,1.7,0.1
			c0,0.7-2.2,0.5-2.2,0.8c0,0.2,2.2,3,3.4,2.7c1.1-0.2,2-1.5,1.7-1.6c-0.3-0.2,0.2-1,0.5-0.8c0.3,0.1,0,1.4,0.4,1.6
			c0.4,0.3,0.2,0.8,0,1.5c-0.2,0.7,0.2,1.9,0.3,2.7c0.1,0.7,0.6,1.8,0.7,2.9c0.2,1.1,0.8,3.1,1.5,4.3c0.6,1.2,1.1,3.5,1.6,4.1
			c0.4,0.6,1.5,2.3,1.5,3.3c0,1.1,1.2,2.5,1.6,2.8c0.4,0.3,1.3-0.3,1.5-1c0.2-0.7,1.4-0.9,1.5-1.5c0.1-0.6,0.2-1,0.6-1.1
			c0.4-0.1,0.4-0.5,0.4-1.1c0-0.6,0-1.5,0.5-2c0.4-0.5,0.5-2,0.2-2.6c-0.3-0.6-0.1-1.4,0.1-2c0.2-0.6,0.1-1.3,0.6-1.3
			c0.4,0,1.1-0.4,1.6-1.1c0.5-0.6,1.9-1.5,2.4-1.9c0.5-0.4,2.1-1.8,2.6-2.6c0.5-0.8,1.8-1,2.4-1.7c0.6-0.6,0.4-1,0.5-1.6
			c0.1-0.7,2.1-1,2.8-1c0.2,0,0.3,0,0.4,0C124.6,167.3,124.3,166,124,165.5z"/>
	</defs>
	<use xlink:href="#SVGID_7_"  style="overflow:visible;fill:#262418;"/>
	<clipPath id="SVGID_8_">
		<use xlink:href="#SVGID_7_"  style="overflow:visible;"/>
	</clipPath>
	<use xlink:href="#SVGID_7_"  style="overflow:visible;fill:none;stroke:#3D3B26;stroke-width:0.5;stroke-miterlimit:10;"/>
</g>
<path class="st0" d="M40.9,146.8c0.3-0.3,0.5-1.3-0.8-1.2c0,0.1,0,0.1,0,0.2c0,0.5-0.8,1.5-1.2,2.4l0.8,0.3
	C40.1,147.8,40.7,147,40.9,146.8z"/>
<path class="st0" d="M40.9,146.8c-0.2,0.2-0.8,1-1.2,1.7l0.1,0l0.1,0.6l1.4,0.8c0,0,1.1-0.8,1.5-0.8c0.4-0.1,5.5-2.8,5.5-2.8
	s0.4-0.7,0.4-0.9c-0.1-0.3-0.1-0.9,0.1-1.3c0.3-0.3-0.3-0.8-0.1-1.3c0.2-0.5,1-0.8,1-0.8l0.9-0.7l-0.6-0.2c0,0-0.8,0.3-1.8,0.2
	c-0.9-0.1-1.1,0.6-2.1,0.6c-1,0-1.6,0.3-1.8-0.1c-0.2-0.3-0.3-0.1-1,0.2c-0.7,0.3-1.1,0.3-1.4,0c-0.3-0.3-0.6,0.1-0.6,0.4
	c-0.1,0.3,0,1-0.9,1.1c-0.1,0.3-0.2,0.6,0,0.8c0.2,0.3,0,0.7-0.1,1.2C41.4,145.5,41.2,146.5,40.9,146.8z"/>
<path class="st0" d="M184.2,139.8c-0.1,0.1-0.6,0.4-0.9,0.7c0.2,0.3,0.1,0.8,0.5,0.8c0.5,0,0.4,0.8-0.1,0.7
	c-0.5-0.1-0.5,0.7-0.1,1.5c0.5,0.7-0.9,1.6-0.5,1.9s0.1,0.8,0.2,1.1c0.2,0.2,2.2-0.1,3-1c0.9-0.9,1.1-0.8,1.6-0.7
	c0.4,0.1,0.9-0.3,0.7-0.7c-0.2-0.4-0.5-1.2-0.4-2.3c0-0.6-0.8-1.8-1.6-2.7c-0.3,0.2-0.5,0.3-0.8,0.3
	C185.1,139.5,184.4,139.5,184.2,139.8z"/>
<path class="st0" d="M130,168.2c-0.3-1.6-0.4-3.1-0.6-3.1c-0.3,0-0.7,1.3-1.1,1.2c-0.5-0.1-0.5-1.7,0.1-1.7c0.6,0,1.2-1.2,1.2-1.6
	c0-0.4-0.6-0.4-1.1-0.4c-0.6,0-1.8,0.1-1.8,0.1s-0.8-0.3-0.8-0.8c0-0.5-0.3-0.9-1-0.9c-0.8,0-0.8-0.8-1.3,0c-0.6,0.8,1.2,0.8,1,1.3
	c-0.2,0.6-0.8,0.2-0.9,0.7c-0.1,0.5,0.1,1.7,0.4,2.4c0.2,0.5,0.5,1.8,0.6,2.9c0.4-0.1,0.7-0.3,1.1-0.3c0.5,0,1.2-0.1,1.3-0.6
	c0-0.5,0.6-0.9,1-0.8c0.3,0.2,0.8,1.5,0.8,2.2c0,0.2,0.1,0.5,0.2,0.8c0.3-0.3,0.6-0.5,0.6-0.5S129.7,168.5,130,168.2z"/>
<path class="st0" d="M39.1,149.5c-0.2,0.1-0.3,1-0.3,1.2c0,0.1,0.1,0.6,0.6,1c0.1-0.7,0.1-1.6,0.2-1.9c0-0.1,0-0.2,0.1-0.3
	C39.4,149.5,39.2,149.5,39.1,149.5z"/>
<path class="st0" d="M38.5,154.7c0.1,0,0.1,0.1,0.2,0.1c0.1-1,0.3-2.1,0.5-2.3c0.1-0.1,0.2-0.4,0.2-0.8c-0.4-0.4-0.6-0.9-0.6-1
	c0-0.1,0.1-1.1,0.3-1.2c0.1,0,0.2,0,0.5,0c0-0.3,0.1-0.7,0.1-1.1l-0.8-0.3c-0.1,0.3-0.2,0.5-0.3,0.7c-0.1,0.8-0.9,2.2-1.3,2.8
	l1.1,2.8L38.5,154.7z"/>
<path class="st0" d="M44.9,148c-1,0.5-1.9,0.9-2,1c-0.4,0.1-1.5,0.8-1.5,0.8l-1.4-0.8l-0.1-0.6l0,0c-0.1,0.5-0.1,1.2-0.2,1.4
	c-0.1,0.4-0.1,2.3-0.4,2.6c-0.2,0.2-0.4,1.3-0.5,2.3c0.5,0.3,1.1,0.6,1.4,0.6c0.6,0.1,1.3-0.6,1.3-0.9c0-0.4,0.5-0.4,1-0.4
	c0.5,0,0.6-0.6,0.9-0.8c0.4-0.2-0.8-1.3-1.2-1.4c-0.4-0.1,0.3-0.9,1.6-1c1.3-0.1,0.9-0.5,1.6-0.5c0,0,0.1,0,0.1,0
	c-0.1-0.5-0.3-1.2-0.4-1.6C45,148.6,44.9,148.3,44.9,148z"/>
<path class="st0" d="M110.2,131.3c-0.6-0.7-0.8-0.2-1.5-0.4c-0.7-0.2-3.5-0.5-4.1-0.2c-0.6,0.2-1.7-0.4-2.1-0.6
	c-0.4-0.2-1.6,0-1.6,0.7c0,0.7-0.6,0.7-1.4,0.2c-0.8-0.4-2.1-0.4-2.2,0c0,0.5-0.7,0.9-1,1.1c-0.1,0.1-0.3,0.4-0.5,0.9
	c0.3,0.1,0.4,0.3,0.6,0.5c0.3,0.4,1.1,0.3,1.3-0.1c0.1-0.4,1.4,0.4,2.2,1c0.8,0.6-0.4,0.2-0.7,0.8c-0.3,0.6-1.3,0-1.5,0.3
	c-0.2,0.2-1.9,0.4-2.3,0.3c-0.4-0.1-1.2,0.6-1.1,0.9c0.1,0.3,1.7-0.2,2.3,0.2c0.6,0.4,1.1-0.4,1.4,0.1c0.3,0.4,1,0.1,1.3,0.3
	c0.3,0.1,2.1-0.1,2.1-0.1c0.2-0.2,0.3-0.5,0.3-0.8c0-0.4,0.4-0.3,0.7-0.4c0.4-0.1,0.6-0.6,0.9-0.6c0.3,0,0.7-0.4,1-0.3
	c0.3,0.1,0.6,0.6,1,0.3c0.4-0.3,0.5,0,1-0.6c0.5-0.6,0.8-0.5,1.4-0.4c0.7,0.1,1.1-0.3,1.3-0.7c0.2-0.4,0.8-0.4,1.2-0.7
	c0.4-0.3,1.2-0.6,1.4-0.7c0.1-0.1,0.1-0.2,0.1-0.3C111,131.4,110.7,131.9,110.2,131.3z"/>
<path class="st0" d="M50.9,132.8c0.5-0.2,0.7,0.3,1.1,0.9c0,0,0,0.1,0.1,0.1c0.6-0.1,1-0.3,1.6-0.3c0.4,0,1,0,1.4,0.1
	c-0.1-0.1-0.1-0.3-0.1-0.3c0.1-0.3,0.8,0.1,1.1,0.3c0.2,0.2,1,0.3,1.2,0.1c0.2-0.2-0.4-0.5-0.5-0.7c-0.1-0.1,0.1-0.4,0.3-0.6
	c-0.4-0.2-0.8-0.6-1-0.5c-0.2,0.1-0.2-1-0.5-1c-0.3,0-0.3-0.2-0.6-0.2c-0.3,0-1.3,0-1.6,0.2c-0.3,0.2-0.6-0.5-1-0.5
	c-0.4,0-0.8-0.4-1-0.6c-0.2-0.3-2,0.1-2.5-0.2c-0.5-0.4-1.4-0.6-1.9-0.6c-0.1,0-0.3,0.1-0.6,0.3c0.9,0.5,2.3,0.4,2.5,1.4
	c0.2,1.1,0.8,0.7,0.6,1.6c0,0.2-0.2,0.4-0.4,0.5C50,132.9,50.7,132.9,50.9,132.8z"/>
<path class="st0" d="M53.6,140c-0.2-0.1,0.1-1.4,0-1.7s-0.4-1.3-0.1-1.3c0.3,0,0-0.8,0.4-0.8c-0.1-0.3-0.2-0.5-0.3-0.6
	c-0.2-0.2-0.9,0.2-1.2-0.5c-0.3-0.7,0-0.8-0.4-1.4c-0.4-0.6-0.6-1.1-1.1-0.9c-0.2,0.1-0.9,0.1-1.7,0c-0.8,0.7-2.4,1.2-2.9,1
	c-0.6-0.2-1.9,0.1-2.8,0.1c-0.9,0-1.2-0.7-1.9-0.6c-0.7,0-0.7-0.6-1.4-0.6c-0.7,0-0.2-0.4-2.4-0.6c-2.2-0.3-4.1,0.9-4.8,1.5
	c-0.7,0.6-3.2,0-3.5,0.2c-0.2,0.2,0,0.9-0.8,1.2c-0.8,0.3-2.7,0-3.3,0.3c-0.6,0.3-0.9,1.2-0.3,1.2c0.5,0,0.8,0.2,0.7,0.4
	c-0.2,0.2,0.4,0.9,0.1,1.2c-0.3,0.3-0.3,0.8,0,1.1c0.4,0.3,0.4,0.8,0,0.9c-0.4,0.1,0.8,0.6,0.8,0.8c0,0.2,1,0.4,1,0.6
	c0,0.3,0.3,0.4,0.8,0.2c0.5-0.1,0.7,0.5,1,1c0.3,0.5,2,0.1,2-0.4c0-0.5,0.5-0.7,1.3-0.6c0.8,0.1,1.8,1.1,2.2,1.3
	c0.4,0.1,1.2-0.3,1.6-0.3c0.5,0,1.2-0.8,1.5-0.9c0.3-0.2,0.8,0.5,1.2,0.3c0.4-0.2,0.9-0.5,1.2-0.3c0.3,0.2-0.7,0.9-0.4,1.3
	c0.1,0.2,0.1,0.3,0,0.5c1-0.1,0.9-0.8,0.9-1.1c0.1-0.3,0.3-0.6,0.6-0.4c0.3,0.3,0.8,0.3,1.4,0c0.7-0.3,0.8-0.5,1-0.2
	c0.2,0.3,0.8,0.1,1.8,0.1c1,0,1.2-0.7,2.1-0.6c0.9,0.1,1.8-0.2,1.8-0.2l0.6,0.2c0.2-0.2,0.2-0.5,0.7-0.5c0.8-0.1,1,0.5,1.4,0.3
	c0.4-0.2,1.6,1.1,1.7,0.3C54.5,141.1,53.9,140.1,53.6,140z M27.2,134c0.6-0.2,1.8,0.1,2.1-0.2c0.3-0.3-0.8-0.6-1.2-1
	c-0.2-0.2-0.3-0.5-0.4-0.8c-0.2,0.1-0.4,0.2-0.6,0.1c-0.4-0.2-1.4-0.1-1.6,0c-0.2,0.1,0.1,0.7,0.1,1.1c0,0.4-0.5,0.5-0.5,0.7
	c0,0.2-0.2,0.3-0.4,0.5c0.3,0.2,0.6,0.5,0.9,0.5C26.4,134.9,26.6,134.2,27.2,134z"/>
<path class="st0" d="M109.8,143.7c-0.6,0-1.6,0.5-1.8,1c0.1,0.1,0.2,0.3,0.3,0.4c0.1,0.4,0.5,0.8,0.9,1.1c0.3,0.2,0.2,0.6,0.2,0.9
	c0.2,0,0.5,0,0.7-0.1c0.5-0.1,1.4-1.5,1.6-1.9C111.7,144.9,110.4,143.8,109.8,143.7z"/>
<path class="st0" d="M190.2,131c-0.6,0.2-0.8-0.5-1.3-0.5c-0.5,0-0.4,1.2-0.9,1.2c-0.5,0-0.4,0.7-1.1,0.8c-0.7,0.1-0.9,0.1-0.6,0.6
	c0.3,0.5-0.4,0.3-1,0.3c-0.6,0-0.6-0.4-1-0.4c-0.4,0-0.7,0.7-1,1.1c-0.3,0.4-2.4,1.3-3,1.6c-0.2,0.1-0.3,0.4-0.4,0.7
	c0.7,0.1,1.5,0.5,1.8,0.9c0.4,0.6-0.5,1.2-0.9,1.7c-0.4,0.5,0.3,0.5,0.3,1c0,0.4,0.6,0.8,0.8,0.4c0.2-0.4,0.6-0.2,1.2-0.2
	c0.2,0,0.3,0.1,0.4,0.2c0.4-0.3,0.8-0.6,0.9-0.7c0.3-0.3,0.9-0.3,1.4-0.3c0.3,0,0.6-0.1,0.8-0.3c-0.6-0.7-1.2-1.2-1.4-1.3
	c-0.5-0.3-0.2-1.2,0.4-1.4c0.7-0.2,2.3-1.4,2.8-1.7c0.5-0.3,0.2-1.2,0.6-1.9c0.2-0.4,1-1.1,1.8-1.7C190.4,131,190.3,131,190.2,131z"
	/>
<path class="st0" d="M123.3,158.2c-0.1,0-0.2,0-0.4,0c-0.9,0-1.5-0.4-2.1-0.4c-0.6,0-2.3-0.6-3.1-1.2c-0.7-0.6-2.7-1.9-3.2-2.4
	c-0.5-0.5-1.2-0.5-1.3-0.2c-0.1,0.2-0.4,0.2-1,0.3c-0.1,0.2-0.7,0.6-0.7,0.9c0,0.4-0.3,0.9-0.3,1.2c0,0.3,0.6,0.4,0.8,0.6
	c0.2,0.2,1.2,0.4,1.3,0.6c0.1,0.3,0.8,0.6,1.2,0.6c0.4,0.1,1.1,0.6,1.3,0.8c0.2,0.2,1.2-0.2,1.5-0.2c0.3,0,0.8,0.6,0.9,0.9
	c0.1,0.3,1.7,0.5,2.1,0.8c0.4,0.3,2.4,0.1,2.8-0.3c0.4-0.4,0.1-1.1,0.1-1.6C123.1,158.3,123.2,158.2,123.3,158.2z"/>
<path class="st0" d="M140,184.2c0-0.6-0.5-0.7-0.5-1.2c0-0.5,0-1.4-0.6-1.9c-0.6-0.6-0.9-1.4-0.6-1.7s0.1-1.2,0.2-1.1
	c0.2,0.1,0.4-0.6,0.1-0.8c-0.4-0.2,0-0.9-0.3-1.1c-0.3-0.1-1.2-1.1-1.2-1.4s0.2-2.1,0.3-2.5c0.1-0.4,0.7-0.5,0.9-0.5
	c0.2,0,0.9,0.1,1.2-0.4c0.3-0.4,1.3-0.5,1.4-0.8c0.1-0.3,0.8-0.3,0.8-0.7c0-0.4,0.8-1.3,0.8-1.3c0,0,0,0,0,0c-0.1-0.2-0.3,0-0.7,0.2
	c-0.7,0.3-1.1-0.1-1-0.5c0.1-0.4-0.5-0.4-0.9-0.4c-0.4,0-0.1-0.6,0-1.1c0.1-0.4-0.1-0.7-0.6-0.7c-0.5,0-0.7-1-0.5-1.3
	c0.2-0.3-1-0.5-1.4-0.3c-0.5,0.2-0.1-0.4-0.3-0.8c-0.1-0.4,0.6-1.6,1.3-2.2c0.7-0.7,0.4-1.5,0.4-2.3c0-0.8-0.3-0.8-0.6-0.8
	c-0.3,0-0.4-0.5-0.4-0.9c0-0.4-0.7-0.7-1.1-0.5c-0.1,0-0.1,0.1-0.3,0.2c0,0,0,0,0,0s-0.1,0.6-0.4,0.8c-0.2,0.1-0.2,0.5,0.1,1.1
	c0.4,0.6-0.6,0.3-0.7,0c-0.1-0.3-0.9,0.2-1.3,0.6c-0.4,0.4-1.1,0.6-1.1,1.3c0,0.7-0.6,1.4-0.4,1.9c0.1,0.6-0.6,1.6-0.6,1.9
	c0.1,0.3-1.1-0.1-1.3-0.1c-0.2,0-0.1,1.2-0.3,1.6c-0.2,0.4-0.1,1.7-0.4,1.7c-0.4,0-0.7,1.2-0.7,1.2s-0.3,0.2-0.6,0.5
	c0.3,0.6,0.9,1.3,1.5,1.6c0.9,0.4,1.5,2.2,1.8,3.2c0.3,1,0.1,2-0.2,2.6c-0.3,0.6,0.1,0.6,0.7,0.9c0.5,0.3,1.2,0.4,1.5-0.2
	c0.4-0.6,1.2-1,1.3-1.6c0.1-0.6,0.5,0.3,0.8,0.6c0.3,0.3,0.6,1,0.6,1.8c0.1,0.8,0.1,2.8,0.8,3.4c0.7,0.6,0.8,2,0.6,2.5
	c-0.2,0.5,0.4,1.3,0.2,1.9c0,0.1-0.1,0.3-0.1,0.4C139.2,186.9,140,184.2,140,184.2z"/>
<path class="st0" d="M129,158.3c-0.9-0.9-1.2-0.2-1.8-0.5c-0.7-0.4-1-0.5-1.3-0.2c-0.3,0.2-0.8,0.2-1.1,1c-0.1,0.3-0.2,0.5-0.4,0.7
	c0.1,0.2,0.3,0.4,0.4,0.4c0.3-0.1,0.6,0.4,1.1,0.3c0.5-0.1,0.8,0.3,1.5,0.1c0.7-0.2,1.3,0.3,1.6-0.2c0.2-0.4-0.2-1.4-0.2-1.4
	S128.8,158.4,129,158.3z"/>
<path class="st0" d="M152.9,168.8c-0.4-0.1-1.6-0.9-1.6-1.2s0.6-0.8-0.4-0.9c-1-0.1-1.1-0.5-1.3-0.7c-0.2-0.2-1,0.4-1.3,0.8
	c-0.2,0.4-0.5-0.1-1.1,0.2c-0.6,0.3-1.1-0.4-1.4,0c-0.3,0.4-0.9-0.3-1.2,0.1c-0.1,0.1-0.3,0.3-0.4,0.3c0.3,0.3,0.6,0.6,0.6,0.8
	c0,0.4,0.8,0.7,0.8,1.2c0,0.5,1,0.9,1.3,0.7c0.3-0.2,1-0.4,1.1,0.3c0.1,0.7,0.5,0.7,0.5,1.2c0,0.5-1,0.2-1.2,0.7
	c-0.2,0.5,1.7,1.1,1.7,1.5s0.6,0.9,0.8,1.4c0.2,0.5,1.1,1.1,1.3,1.7c0.2,0.6,1,0.9,1.3,1.2c0.3,0.3,0.4,1,0.3,1.6
	c-0.1,0.6-0.1,1.7,0.5,2.6c0.6,0.9-0.7,1.3-1.1,1.8c-0.4,0.5-0.2,1.2-1.4,0.9c-1.2-0.3,0.2,1,0,1.4c-0.2,0.4-1.8-0.4-1.8,0
	c0,0.2-0.5,0.6-1,0.8c0.2,0.2,0.4,0.4,0.7,0.5c0.4,0.2-0.5,0.6-0.4,1.4c0,0.8,0.6,0.9,0.8,0.6c0.2-0.3,1.1-1,1.4-1.1
	c0.4-0.1,0-0.6,0.4-0.6c0.4,0,0.3-0.5,0.4-0.8c0.2-0.3,0.4-0.2,1-0.2c0.6,0,1.4-0.5,2.2-1c0.8-0.5,0.9-0.6,1.2-2.1
	c0.3-1.5-0.4-3.2-0.4-3.7c0-0.4-1.1-2.5-1.5-2.5c-0.4,0-2.2-1.9-2.6-2.2c-0.3-0.3-0.2-0.8-0.7-1.2c-0.5-0.4-0.5-1.4-0.4-2.2
	c0.1-0.7,1.2-0.9,1.1-1.4c0-0.5,0.1-0.9,0.6-0.9c0.5,0,1-0.4,1.2-0.8c0-0.1,0.1-0.1,0.1-0.1C153.1,168.9,153,168.8,152.9,168.8z"/>
<path class="st0" d="M149,186.5c0-0.4,1.6,0.4,1.8,0c0.2-0.4-1.2-1.7,0-1.4c1.2,0.3,1-0.4,1.4-0.9c0.4-0.5,1.7-0.9,1.1-1.8
	c-0.4-0.6-0.5-1.4-0.6-2c-0.4,0.3-0.9,0.3-1.1,0.2c-0.3-0.1-1.1-0.2-1.1,0.3c0,0.5-0.5,0.7-0.5,0.4c0.1-0.3-0.5-0.2-0.9-0.6
	c-0.3-0.4-1.6,0.1-2.2-0.1c-0.6-0.2-1.6,0.3-2.2,1.1c-0.6,0.7,0.1,0.7,0.1,1.4s0.4,0.7,0.2,1.2c0,0,0,0,0,0c0.6,0.3,0.4,1,0.4,1.4
	c0.1,0.4,0.7,0.2,1,0.2c0.3,0-0.2,0.5,0.1,0.8c0.3,0.3,1.1-0.3,1.3,0.1c0,0.1,0.1,0.2,0.1,0.2C148.5,187.1,149,186.8,149,186.5z"/>
<path class="st0" d="M149.1,173.9c0-0.4-1.9-1-1.7-1.5c0.2-0.5,1.2-0.2,1.2-0.7c0-0.5-0.4-0.5-0.5-1.2c-0.1-0.7-0.8-0.5-1.1-0.3
	c-0.3,0.2-1.3-0.2-1.3-0.7c0-0.5-0.8-0.8-0.8-1.2c0-0.2-0.3-0.5-0.6-0.8c-0.3,0.1-0.5,0.2-0.6,0c-0.2-0.2-0.4,0.6-0.3,0.8
	c0.2,0.2,0.4,1.4-0.1,1.3c-0.5-0.1-0.5-0.8-0.8-0.8c0,0-0.8,0.9-0.8,1.3c0,0.3-0.3,0.3-0.6,0.5c0.1,0.1,0.3,0.2,0.3,0.3
	c0.1,0.2-0.1,0.7,0.1,1.2c0.2,0.5,0.9-0.3,1.1,0.4c0.2,0.7-0.1,1-0.1,1.7c0,0.7-0.5,0.6-0.4,1.2c0.1,0.6,0.9-0.1,1.4-0.5
	c0.5-0.4,1-0.3,1.2-0.1c0.2,0.3,0.9,0.1,1-0.3c0.1-0.3,1.2-0.5,1.5-0.1c0.3,0.4,0.7,0.9,1.2,1.2c0.5,0.3-0.3,1.8,0.1,1.9
	c0.5,0.1,1.2,0.9,1.1,1.7c-0.1,0.7,0.3,1.2-0.2,1.8c0.3,0.2,0.7,0.2,0.7,0.4c-0.1,0.3,0.5,0.1,0.5-0.4c0-0.5,0.7-0.5,1.1-0.3
	c0.3,0.1,0.7,0.1,1.1-0.2c0-0.2,0-0.5,0-0.6c0.1-0.6,0-1.3-0.3-1.6c-0.3-0.3-1.1-0.6-1.3-1.2c-0.2-0.6-1.1-1.2-1.3-1.7
	C149.7,174.8,149.1,174.3,149.1,173.9z"/>
<path class="st0" d="M144.9,183.2c0-0.7-0.7-0.7-0.1-1.4c0.6-0.7,1.6-1.3,2.2-1.1c0.6,0.2,1.8-0.3,2.2,0.1c0.1,0.1,0.1,0.1,0.2,0.2
	c0.5-0.6,0.1-1.1,0.2-1.8c0.1-0.8-0.6-1.6-1.1-1.7c-0.5-0.1,0.3-1.6-0.1-1.9c-0.5-0.3-0.8-0.7-1.2-1.2c-0.3-0.4-1.4-0.3-1.5,0.1
	c-0.1,0.3-0.8,0.5-1,0.3c-0.2-0.3-0.6-0.3-1.2,0.1c-0.5,0.4-1.3,1.2-1.4,0.5c-0.1-0.6,0.4-0.5,0.4-1.2c0-0.7,0.3-1,0.1-1.7
	c-0.2-0.7-0.9,0.1-1.1-0.4c-0.2-0.5,0-1-0.1-1.2c0-0.1-0.2-0.2-0.3-0.3c-0.1,0.1-0.2,0.1-0.3,0.2c-0.1,0.3-1.2,0.4-1.4,0.8
	c-0.2,0.4-1,0.4-1.2,0.4c-0.2,0-0.8,0.1-0.9,0.5c-0.1,0.4-0.3,2.2-0.3,2.5s0.9,1.3,1.2,1.4c0.3,0.1-0.1,0.9,0.3,1.1
	c0.4,0.2,0.1,0.8-0.1,0.8c-0.2-0.1,0.1,0.8-0.2,1.1s-0.1,1.1,0.6,1.7c0.6,0.6,0.6,1.4,0.6,1.9c0,0.5,0.5,0.6,0.5,1.2
	c0,0-0.8,2.7-1.4,2.6c-0.1,0.7-0.3,1.8-0.4,2.3c-0.2,0.7-0.3,1.4,0.1,1.4c0.4,0,1.3,1,2.1,2c0.2,0.2,0.4,0.5,0.5,0.8
	c0.3,0,0.6,0,0.9,0.1c0.6,0.1,0.8,0.6,0.8,0.9c0,0.3,1.1,0.2,1.3,0.2c0.1,0,0-0.5,0.5-0.6c-0.3-0.5-1.1-1-1.8-1.1
	c-0.8-0.1-1.2-1.3-1.1-1.8c0.1-0.5-0.6-1-0.6-1.5c0-0.5-0.5-0.5-1-0.8c-0.5-0.3,0.1-1.9,0.2-2.5c0.1-0.7,1.2-2.6,0.9-3.2
	c-0.3-0.6,1.2-1.1,1.3-0.4c0.2,0.7,0.3,1,1.2,1c0.9,0,0.9,0.7,1.7,0.9c0,0,0.1,0,0.1,0c0,0,0,0,0,0
	C145.3,183.9,144.9,183.9,144.9,183.2z"/>
<path class="st0" d="M58.3,156c0,0-2.4-0.3-2.8-0.3c-0.4,0-1.3-0.1-1.9-0.6c-0.6-0.5-3.3-2.6-3.8-2.8c-0.5-0.3-2.6-1.8-3.1-1.8
	c-0.6-0.1-0.6,0-1.3,0c-0.7,0-0.4,0.4-1.6,0.5c-1.3,0.1-1.9,0.9-1.6,1c0.4,0.1,1.6,1.2,1.2,1.4c-0.4,0.2-0.4,0.8-0.9,0.8
	c-0.5,0-1,0.1-1,0.4c0,0.4-0.7,1-1.3,0.9c-0.3,0-1-0.4-1.6-0.7l-0.2,0.5l-0.1,0.4c0.1,0.3-0.1,1.7,0.3,1.8c0.4,0.1,0.5,0.8,1.3,1.6
	c0.8,0.8,2.3,3,2.3,3.6c0,0.5,0.3,1.1,1.2,1.8c0.9,0.6,0.9,1.4,1.4,1.8c0.5,0.4,0.4,0.8,0.4,1.8c0,0.9,0.4,2.2,1.3,2.7
	c0.8,0.5,1.4,1.1,1.8,2.1c0.4,1,0.9,1.9,1.5,2.4c0.5,0.5,0.2,0.8,0.5,1.2c0.2,0.2,0.4,0.6,0.5,0.9c0.4-0.2,0.7-0.4,0.7-0.4
	c0.1-0.2-0.2-0.7,0-0.9c0.1-0.2,0.4-0.5,0.7-0.6c0.3-0.1,0.6,0.3,1.2,0.2c0.6-0.1,1.8,0,2,0.2c0.1,0.1,1.8,0,2.2,0.4
	c0.4,0.3,0.8,0.2,1.1-0.4c0.3-0.6,2.2-2,2.5-2.1c0.3-0.1,2.3,0,3.1-0.2c0.8-0.2,6.2-1.9,6.4-2.1c0.2-0.2,1.1-3,1.1-3.3
	c0-0.3-0.4-1.2-0.8-1.1c-0.4,0-3.8-0.3-4-0.5c-0.2-0.1-1.1-0.8-1.2-1.7c-0.3-0.2-0.6-0.6-0.7-1c-0.4,0-1,0-1.3-0.9
	c-0.3-0.2-1.1-1.4-0.8-1.7c0.4-0.4-0.2-1.2-0.7-1.7c-0.5-0.5-1.6-1.3-1.6-1.9c0-0.1-0.1-0.4-0.2-0.7l-1.3-0.1L58.3,156z"/>
<path class="st0" d="M72.1,163v1.2l-1,1.3l-0.5,1.3c0.2,0,0.3,0,0.3,0c0.4,0,0.8,0.8,0.8,1.1c0,0.3-0.9,3.1-1.1,3.3
	c-0.2,0.1-3,1.1-4.9,1.6c0.4,0.8,1.2,2.5,1.9,4c0.1-0.1,0.3-0.1,0.4-0.2c0.9-0.5,1.9-0.3,2.6-0.4c0.7-0.2,0-0.8,0.6-1.2
	c0.6-0.5,1.4-0.1,1.7-0.3c0.3-0.2,0.5-1.2,1-1.5c0.5-0.2,1.1-0.1,1-0.5c-0.1-0.4,0-2,0.5-2.1c0.5-0.1,1.3-0.6,1.3-0.9
	c0-0.3,1-1.3,1.3-1.9c0.3-0.5,0.3-0.8-0.1-0.9c-0.4-0.1-1.2-1.3-1.3-1.7c-0.2-0.4-1.5-0.1-2.7-1c-0.4-0.3-0.7-1-0.9-1.7l-0.6,0.3
	H72.1z"/>
<path class="st0" d="M65.1,163.6c0-0.2,0-0.3,0-0.4c0.3-0.5,0.5-1.9-0.2-2c-0.7-0.2-1.1,1.2-1.1,1.6c0,0.1,0,0.1-0.1,0
	C64.1,163.6,64.7,163.7,65.1,163.6z"/>
<path class="st0" d="M66.9,166.3c0.2,0.1,2.7,0.4,3.7,0.5l0.5-1.3l1-1.3V163h0.6l0.6-0.3c-0.2-1-0.3-2-0.4-2c-0.3,0-1.4,1.2-1.9,2.1
	c-0.5,0.9-1.8,1.6-3,1.4c-1.2-0.2-1.6,0.3-1.9,0.5c-0.1,0.1-0.2,0-0.3-0.1C65.9,165.5,66.7,166.2,66.9,166.3z"/>
<path class="st0" d="M146.4,196.6c0-1.1-1-0.9-1.2-1.7c-0.2-0.7-0.6-0.3-0.8-0.8c0-0.1-0.1-0.1-0.1-0.2c-0.5,0.2-0.3,0.6-0.5,0.6
	c-0.2,0-1.3,0.2-1.3-0.2c0-0.3-0.2-0.8-0.8-0.9c-0.3-0.1-0.6-0.1-0.9-0.1c0.4,0.8,0.4,1.7,0.4,2.4c0,0.9,1.4,2.4,1.6,3.1
	c0.2,0.6,0.6,0.8,1.5,1.5c0.9,0.7,2.7,1.7,3.1,1.5c0.4-0.2-0.5-1.7-1.1-2.3C145.9,199.1,146.3,197.6,146.4,196.6z M170.4,194.8
	c-0.4,0.1-1.4,0-1.4-0.4c0-0.4-0.9-1.2-1.5-1.2c-0.6,0-1.2,1.1-1.3,1.6c0,0.5-0.9,0.4-0.8,1.1c0,0.3-0.1,0.4-0.3,0.4
	c0.1,0.6,0.2,1,0,0.9c-0.4-0.1-0.5,0.4-1,0.4c-0.2,0-0.5-0.5-0.9-1.1c0,0,0,0,0,0c-0.4,0-1.2,1.3-1.4,2.2c-0.2,0.9-1,0.6-2.3,0.7
	c-1.3,0.1-0.8,1.4-1,2c-0.3,0.6-1.7-0.5-2.4-0.6c0.1,0.5,0.3,1,0.5,1c0.4,0,0.9,0.9,1.3,0.7c0.4-0.3,1.5,0,2.1-0.2
	c0.6-0.2,0.7-0.7,1.6-0.7c0.9,0,0.6,0.8,1.5,0.3c0.9-0.5,1.5-0.1,1.4-0.9c-0.1-0.8,0.6-0.8,0.5-1.5c-0.1-0.7,1-0.2,0.9-1.4
	c-0.1-1.2,1.7-1,2.4-1c0.2,0,0.4,0.1,0.8,0.3c0.6-0.3,1.4-0.6,1-1c-0.4-0.4,1.3,0,1.5-0.6C171.7,195.1,170.8,194.7,170.4,194.8z"/>
<path class="st0" d="M164.1,197.6c0.6,0,0.7-0.5,1-0.4c0.2,0.1,0.1-0.4,0-0.9c-0.3,0.1-0.8,0.1-0.8,0.4c0,0.4-0.7-0.2-1.1-0.2
	C163.5,197.1,163.9,197.6,164.1,197.6z"/>
<path class="st0" d="M58,154.4c0.2-0.2,0.2-0.5,0.7-0.6c0.4-0.1,0.6,0.2,1.1,0.6c0.2-0.2,0.4-0.3,0.7-0.4c-0.4-0.4-0.9-0.9-0.9-1.2
	c0.1-0.5-0.5-0.8-0.6-1.1c-0.1-0.3,0.4-0.8,0.1-1.1s-0.3-0.9-0.8-0.9c-0.4-0.1-1.8-0.8-1.8-1.2c0.1-0.4-0.5-0.8-0.8-0.9
	c-0.2-0.1-0.5-1.3-0.2-1.4c0.3-0.2,0.2-1.3,0.6-1.3c0.4,0,0.1-0.6,0.2-0.9c0.1-0.4-0.3-0.6-0.6-0.6c-0.3,0-0.9-0.5-0.9-0.9
	c0-0.4-0.6-1.1-0.6-1.3c-0.1,0.8-1.3-0.5-1.7-0.3c-0.4,0.2-0.7-0.4-1.4-0.3c-0.5,0.1-0.5,0.3-0.7,0.5l0,0l-0.9,0.7
	c0,0-0.8,0.3-1,0.8c-0.2,0.5,0.4,1,0.1,1.3c-0.3,0.3-0.2,1-0.1,1.3c0.1,0.2-0.4,0.9-0.4,0.9s-1.9,1-3.4,1.8c0,0.3,0.1,0.6,0.1,0.8
	c0.1,0.3,0.3,1,0.4,1.6c0.6,0,0.7-0.1,1.2,0c0.6,0.1,2.6,1.6,3.1,1.8c0.5,0.2,3.3,2.3,3.8,2.8c0.6,0.5,1.5,0.6,1.9,0.6
	c0.2,0,1.1,0.1,1.8,0.2C57.5,155.3,57.8,154.6,58,154.4z"/>
<path class="st0" d="M58.3,156l0.8,0.7l1.3,0.1c-0.3-0.7-0.8-1.7-0.8-2c0-0.1,0.1-0.2,0.1-0.3c-0.4-0.4-0.7-0.6-1.1-0.6
	c-0.5,0.1-0.5,0.4-0.7,0.6c-0.1,0.1-0.4,0.9-0.7,1.4C57.8,155.9,58.3,156,58.3,156z"/>
<path class="st0" d="M37.1,145c0-0.3,0.3-0.8,0.8-1c0.5-0.2,0.3-0.6,0-0.3c-0.4,0.3-1.2,0.6-2.3,0.7c-1.1,0-1.4,0.7-0.7,1.1
	C35.7,146,37.1,145.3,37.1,145z"/>
<path class="st0" d="M99.9,134.4c-0.8-0.6-2.1-1.4-2.2-1c-0.1,0.4-0.9,0.4-1.3,0.1c-0.3-0.4-0.6-0.8-1.5-0.4
	c-0.9,0.4-1.6,0.9-1.6,1.3c-0.1,0.4-0.7,0.8-0.8,0.3c-0.1-0.5-0.8-0.7-1.3-0.8c-0.5-0.1-1.3,0.1-1.4-0.4c-0.1-0.5-0.8-1.1-0.9-1.6
	c-0.1-0.6,0.1-1.4-0.4-1.5c-0.5-0.1-0.8-0.9-1.3-0.9c-0.4,0-2.9,0-3.2-0.1c-0.3-0.1-1.9,0.5-2.1,0.1c-0.1-0.3-1.2-1.5-1.9-2
	c-0.1,0.3-0.2,0.5-0.5,0.7c-1.2,0.8-2.3,0.7-1.9-0.3c0.4-1,0.4-2.3-0.2-2.3c-0.6,0-0.2,2.2-0.7,2.3c-0.4,0.1-0.6-1.6-0.2-2.5l-4,1.1
	l-0.2,7c0,0,0,0,0,0c0.4,0.2,0.8,0.2,1.1,0.3c0.6,0,0.6-0.4,0.6-0.8c0-0.3,0.7-0.9,1.1-0.8c0.5,0,0.4-0.6,0.6-0.6
	c0.1,0,0.5-0.1,0.7-0.3c0.1-0.2,0.9,0,1.1,0.3c0.2,0.2,0.8,0.3,1.2,0.4c0.4,0.1,0.6,1.4,0.6,1.7c0,0.3,2,0.2,2.3,0.3
	c0.3,0,0.3,0.6,0.7,1c0.3,0.4,0.6,1,0.7,1.3c0.1,0.3,1.3,0.8,1.6,1.2c0.3,0.4,1.2,0.8,1.8,1.1c0.7,0.2,1.3,1.1,1.6,1.1
	c0.4,0,1.4,0.5,1.4,0.5l0.1,1c0,0,0.1,0,0.1,0c0.6-0.2,0.9,0.4,1.3,0.4c0.2,0,0.4,0.2,0.6,0.3c0-0.9,0.3-1.4,0.7-1.7
	c0.4-0.3-0.3-0.9-0.2-1.4c0.1-0.5-1.1-0.8-1-1.2c0.1-0.4,1.1-0.4,1.5-0.6c0.4-0.2,0.1-0.9,0.5-0.9c0.4,0,0.6-0.4,0.8-0.8
	c0.1-0.4,0.8,0,1.2-0.3c0.4-0.3,0.9-0.5,1.1-0.2c0.1,0.2-0.4,1-0.6,1.3c0.7,0,1.6-0.1,1.8-0.3c0.2-0.3,1.2,0.4,1.5-0.3
	C99.5,134.6,100.6,135.1,99.9,134.4z"/>
<path class="st0" d="M284.7,85.4c-0.3,0.2-2.4,0.1-2,0.6c0.4,0.4,2.2,0.2,3,0.7c0.8,0.5,1.9,0.1,1.9-0.3
	C287.7,86,285.1,85.2,284.7,85.4z"/>
<path class="st0" d="M213.9,128.3c-0.3-0.4-0.9,0.2-1.6,0.4c-0.7,0.1-2.9-1.7-3.5-2.5c-0.6-0.8-1.5-0.1-1,0.5
	c0.5,0.6-0.1,0.8-0.1,1.6c0,0.8-0.6,0.8-0.5,1.4c0.1,0.6-0.8,0.5-1.3,0.6c-0.6,0.1,0,0.7-0.6,0.9c-0.7,0.3-0.6,0.8-0.3,0.9
	c0.3,0.2,0.1,0.8,0,1.2c-0.1,0.4,0.4,0.1,0.8-0.3c0.4-0.4,0.8,0.2,0.8-0.2c0.1-0.5-1-0.7-0.9-1.2c0-0.5,0.8,0.1,1.3-0.1
	c0.6-0.3,1.7,0,2.4,0.6c0.7,0.6,0.9,0.4,1-0.4c0.1-0.8,1.2-1.1,2.3-1.1s1.2-0.5,0.8-0.8c-0.3-0.2,1.8-1.6,1.7-2
	C215.3,127.5,214.2,128.7,213.9,128.3z M205.3,134.8c-0.5,0.2-0.8,1.7-0.3,2.1c0.5,0.4-0.8,1.2-0.8,2.1c0,0.9-0.8,0.9-1,1.5
	c-0.1,0.7-0.7,0.5-1.5,1.1c-0.8,0.6-1.2-0.1-1-0.5c0.2-0.4-1.2,0.2-1.2,1.3c0,1-1.3,1.1-1,1.6c0.3,0.5-1,0.8-1,0.3
	c0-0.4-0.8-0.2-1.9,0.2c-1.1,0.4-1.7-0.5-2.3,0.1c-0.6,0.6-1.6,1.7-2.4,1.8c-0.8,0.1-0.3,1.1,0,0.9c0.6-0.3,1.5,0,1.7-0.4
	c0.3-0.4,2.6-0.9,4-1c1.4,0,0.6,0.7,0.7,1.4c0.1,0.8,1.3,0.6,1.9-0.1c0.6-0.7,1.1-0.7,0.6-1.1c-0.5-0.4,0.1-0.8,0.5-0.2
	c0.4,0.6,1.6,0.6,2-0.1c0.5-0.8,0.6,0.1,1.2,0.1c0.6,0,0.9-1.5,0.9-0.9c0,0.5,0.9,0.4,1.5-0.2c0.6-0.6,0-1.7,0.4-2.3
	c0.4-0.6,0.8-1.7,0.4-2.4c-0.4-0.7,0.8-1.2,1.5-1.7c0.6-0.6-0.7-3.4-0.8-4.2C207.2,133.4,205.7,134.5,205.3,134.8z M194.9,147
	c-0.2,0.5-0.8,0.3-1.5,0.4c-0.8,0.1-0.8,1.9-0.2,2.1c0.4,0.1,0.8,0.1,0.9-0.4c0.1-0.6,0.9-0.8,1.4-0.5c0.5,0.2,1.1-0.7,1.1-1.4
	C196.5,146.5,195.1,146.5,194.9,147z M191.7,148.8c0-0.5-1-0.4-1.1-0.8c0-0.4-0.8-0.2-1.5,0.3c-0.7,0.5-0.9,0.6-0.7,1.1
	c0.3,0.5,0.7,0,0.9-0.5s0.7,0.8,0.2,1.6c-0.4,0.8,0.1,2,0.6,1.9c0.5-0.1,1.1-1.8,1.8-2.7C192.7,149,191.7,149.3,191.7,148.8z"/>
<path class="st0" d="M176.5,182c0.9-0.1,2.1,1,1.9,1.4c-0.2,0.4,0,1.8,0.5,1.4c0.4-0.4,1.1,0.1,0.7,0.7c-0.4,0.6,0.7,1.2,0.8,2
	c0.1,0.8,0.6,0.1,0.5-0.4c-0.1-0.6,0.1-0.5,0.7-0.9c0.6-0.4,0-1.1-0.4-1.9c-0.4-0.8-1.8-0.5-1.8-1.3c0-0.8-1-1-1.1-1.4
	c0-0.4-1.4-0.8-2.2-0.4c-0.8,0.5-0.2-0.8-0.8-1.5c-0.6-0.6,0.4-1.5,1.1-2.3c0.7-0.8-0.2-2-0.1-2.6c0.1-0.6,0-0.8-0.3-0.6
	c-0.3,0.2-1.7-0.6-2.3-0.2c-0.6,0.4,0,3.5-0.3,3.7c-0.3,0.2-0.6-0.5-0.8-0.2c-0.1,0.4,0,2.2,0.4,2.2c0.4,0,0.7,0.5,0.4,1.2
	c-0.2,0.8,0.7,0.8,1.6,0.5C175.9,181.2,175.6,182.2,176.5,182z M173.5,182.4c0.1,0.7,0.5,2,1.5,1.7C176,183.8,173.4,182,173.5,182.4
	z M176.1,187c0.2,0,0.8,0,0.8-0.5c0-0.5,0.6,0.8,0.1,1.3c-0.4,0.4-0.4,1.6,0.2,1.7c0.7,0.1,1.9-2.1,1.7-2.5
	c-0.2-0.4-0.8,0.3-0.6-0.3c0.1-0.6-1.7-2-2.4-1.9C175.3,185,175.6,187.1,176.1,187z M170.6,187.9c-0.7,0.8-2.2,2.2-2,2.6
	c0.3,0.5,2-2.1,2.9-2.7c0.8-0.6,0.7-1.1,0.4-1.7C171.6,185.6,171.2,187,170.6,187.9z M179,188.8c0.2,0.5,1.6-0.3,1.2-0.8
	C179.8,187.6,178.8,188.5,179,188.8z M183.2,192.5c0.6-0.7-0.4-2.4-0.4-3.5c0-1.1-1.5-0.8-1.1-0.1c0.4,0.7-0.8,0.1-0.9,0.8
	c-0.1,0.7-1,0.1-0.9,0.7c0,0.6-0.9,0-1.4-0.3c-0.5-0.3-1.1,0.9-1.8,1.1c-0.7,0.2-1.1,1.7-0.6,1.6c0.6,0,0.8-0.8,1.4-0.8
	c0.6,0,0.4-0.6,1.2-0.4c0.8,0.1,0.2,2.5,1.3,2.7c1.1,0.2,1.1,0.8,1.6,0.8c0.5,0-0.1-1.5,0-2C181.5,192.7,182.6,193.2,183.2,192.5z"
	/>
<path class="st0" d="M111.2,188.4c-0.4,0-0.3,0.9-0.6,1.5c-0.2,0.6-0.2,1.2-0.1,2.1c0.1,0.9,0,1.8,0.8,2.3c0.9,0.6,2.4-0.9,2.4-2.3
	C113.8,190.8,111.5,188.4,111.2,188.4z"/>
<path class="st0" d="M64.2,173.3c-0.8,0.2-2.9,0-3.1,0.2c-0.3,0.1-2.2,1.5-2.5,2.1c-0.3,0.6-0.7,0.7-1.1,0.4
	c-0.4-0.3-2.1-0.2-2.2-0.4c-0.1-0.1-1.4-0.3-2-0.2c-0.6,0.1-0.9-0.3-1.2-0.2c-0.3,0.1-0.5,0.4-0.7,0.6c-0.1,0.2,0.1,0.7,0,0.9
	c0,0-0.3,0.2-0.7,0.4c0.1,0.4,0.2,0.7,0.1,1c-0.2,0.5,0,1.8,0.5,2.5c0.5,0.7,0.3,2.1,0.5,2.3c0.2,0.3,2.1,0.2,2.9-0.3
	c0.8-0.5,1.4-0.6,2-0.6s1.5-0.6,1.7-0.8c0.2-0.3,1.2-0.3,1.6-0.3c0.4,0,0.8-0.4,1.2-0.8c0.4-0.4,1.9-0.6,3.4-1.1
	c1.5-0.5,1.2-1.2,1.5-1.6c0.3-0.4,0.7-0.3,1.4-0.5c-0.7-1.5-1.5-3.2-1.9-4C65.1,173.1,64.5,173.3,64.2,173.3z M68.1,183.8
	c0.5,0.5,1.6-0.1,1.6-0.3C69.8,183.3,67.5,183.2,68.1,183.8z"/>
<path class="st0" d="M89.6,139.9c0,0-1-0.5-1.4-0.5c-0.4,0-1-0.8-1.6-1.1c-0.7-0.2-1.6-0.7-1.8-1.1c-0.3-0.4-1.5-0.8-1.6-1.2
	c-0.1-0.3-0.4-0.9-0.7-1.3c-0.3-0.4-0.3-1-0.7-1c-0.3,0-2.3,0-2.3-0.3c0-0.3-0.1-1.6-0.6-1.7c-0.4-0.1-1-0.2-1.2-0.4
	c-0.2-0.2-1-0.5-1.1-0.3c-0.1,0.2-0.5,0.3-0.7,0.3c-0.1,0-0.1,0.7-0.6,0.6c-0.5,0-1.1,0.5-1.1,0.8c0,0.3,0,0.8-0.6,0.8
	c-0.3,0-0.7-0.1-1.1-0.3c-0.1,0.1-0.6,0.4-1.1-0.3c-0.6-0.8-1.4-1.5-1.9-1.5c-0.5,0-2,0-1.6,0.9c0.1-0.2,0.3-0.3,0.7-0.3
	c1.1,0.1,0.6,1.4,1.2,1.5c0.6,0,1.3,1,0.8,0.9c-0.6,0-1,0.5-1.6,0.3c-0.6-0.2-1.3-0.7-1.5,0c-0.2,0.7-0.4,1.4,0.3,1.3
	c0.8,0,0.6,0.5,0.1,1c-0.5,0.5,0.8-0.1,0.9,0.4c0.1,0.5,0.5,0.5,0.3,1.3c-0.1,0.5,0,1.4,0,2.1c0.5,0,1.2,0,1.3-0.2
	c0.2-0.3,1-1,1.4-1c0.4,0,0.9,0.2,1.1-0.1c0.2-0.3,1.6-0.2,1.8,0c0.2,0.3,1,0.5,1.2,0.5c0.2,0,0.3,0.4,0.8,0.4
	c0.5,0,1.4,0.1,1.4,0.4c0,0.3,0.3,0.6,0.7,0.6c0.4,0,0.7,0.9,1.1,0.9c0.4,0,1.1,0,1.1,0.2c0,0.2,0.1,1.3,0.3,1.9
	c0.1-0.1,0.3-0.1,0.3,0c0.2,0.1,1-0.1,1.1,0.3c0.1,0.4,1.4,0.2,1.4-0.5c-0.1-0.7,2.1-0.7,2.3-1.3c0.2-0.6,0.4-1.8,0.9-1.6
	c0.5,0.2,0.8-0.8,1.3-0.8c0.4,0.1,0.7,0.4,1.2,0.3L89.6,139.9z"/>
<path class="st0" d="M101.2,141c0.3,0.2,0.3,0.5,0.6,0.4c0.3,0,0.8,0.1,1.1,0.4c0.3-0.1,0.5-0.1,0.5-0.1s-0.3-1.6-0.3-2.1
	c-0.1-0.5-1.6-1-1.6-1l-0.3-1.4c0,0-1.8,0.3-2.1,0.1c-0.3-0.1-1,0.2-1.3-0.3c-0.3-0.4-0.9,0.3-1.4-0.1c-0.6-0.4-2.2,0.1-2.3-0.2
	c-0.1-0.3,0.7-1,1.1-0.9c0.1,0,0.3,0,0.5,0c0.2-0.3,0.7-1.1,0.6-1.3c-0.1-0.2-0.7,0-1.1,0.2c-0.4,0.3-1.1-0.1-1.2,0.3
	c-0.1,0.4-0.3,0.8-0.8,0.8c-0.4,0-0.1,0.7-0.5,0.9c-0.4,0.2-1.4,0.1-1.5,0.6c-0.1,0.4,1.1,0.7,1,1.2c-0.1,0.5,0.6,1.1,0.2,1.4
	c-0.4,0.3-0.7,0.7-0.7,1.7c0.3,0.2,0.6,0.4,0.7,0.1c0.2-0.5,1.6,0,1.6-0.4c0-0.4,1.5-0.3,1.5-0.8c0-0.4,0.9-1.4,1.4-1.4
	c0.6,0.1-0.1,1,0.6,1.3c0.7,0.3-0.3,1.4,0.1,1.9c0.1,0.2,0.4,0.1,0.8,0c0.3-0.1,0.6-0.2,0.8-0.3C100.1,141.5,100.9,140.8,101.2,141z
	"/>
<path class="st0" d="M57.1,137c0-0.4-1-0.7-1-1.2c0-0.5-0.7-0.9-0.6-1.3c0.1-0.3-0.3-0.6-0.4-0.9c-0.4-0.1-1-0.2-1.4-0.1
	c-0.6,0.1-1,0.2-1.6,0.3c0.3,0.5,0.1,0.6,0.4,1.3c0.3,0.7,1,0.3,1.2,0.5c0.1,0.1,0.2,0.3,0.3,0.6c0,0,0.1,0,0.2,0
	c0.3,0,0.4,0.2,0.4,0.3c0.3,0.1,0.6,0.3,0.8,0.4c0.2,0.1,0.3-0.2,0.7,0.3c0.4,0.4,0.4,0.5,0.3,0.8c0.4,0,0.7-0.1,1-0.2
	C57.3,137.5,57.1,137.2,57.1,137z"/>
<path class="st0" d="M62,134.6c-0.2-0.3-0.8-1.1-1.4-1.8c-0.2,0.6-0.9,0.4-1,0.8c-0.1,0.4-0.5-0.1-0.7,0c-0.2,0.1-0.7-0.8-1.2-0.8
	c-0.2,0-0.3-0.1-0.5-0.2c-0.2,0.2-0.4,0.5-0.3,0.6c0.1,0.2,0.8,0.5,0.5,0.7c-0.2,0.2-1,0.1-1.2-0.1c-0.2-0.2-0.9-0.6-1.1-0.3
	c-0.1,0.3,0.6,0.9,0.5,1.3c-0.1,0.4,0.6,0.8,0.6,1.3c0,0.5,1,0.8,1,1.2c0,0.2,0.2,0.5,0.3,0.8c0.8-0.3,1.4-0.9,1.9-1.2
	c0.8-0.4,0.4,1.2,0.3,1.4c-0.1,0.2,0.5,0.6,1.1,0.8c0-0.3,0.1-0.7,0.3-0.9C61.9,137,62.5,135.4,62,134.6z M55.3,136.9
	c-0.2-0.1-0.4-0.3-0.8-0.4c0.1,0.3,0.1,0.6,0.5,0.8c0.7,0.3-0.3,0.4,1.1,0.6c0.1,0,0.2,0,0.3,0c0-0.3,0-0.5-0.3-0.8
	C55.7,136.7,55.5,137,55.3,136.9z"/>
<path class="st0" d="M101.8,141.4c-0.3,0-0.3-0.2-0.6-0.4c-0.3-0.2-1.1,0.6-1.7,1.1c-0.3,0.1-0.6,0.2-0.8,0.3
	c-0.3,0.1-0.6,0.1-0.8,0c-0.4-0.4,0.6-1.6-0.1-1.9c-0.7-0.3-0.1-1.3-0.6-1.3c-0.6-0.1-1.4,0.9-1.4,1.4c0,0.4-1.5,0.3-1.5,0.8
	c0,0.4-1.4-0.1-1.6,0.4c-0.3,0.5-0.9-0.4-1.4-0.4c-0.4,0-0.8-0.6-1.3-0.4c-0.6,0.2-0.9-0.2-1.3-0.2c-0.4-0.1-0.8,0.9-1.3,0.8
	c-0.5-0.2-0.8,0.9-0.9,1.6c-0.2,0.6-2.3,0.6-2.3,1.3c0.1,0.7-1.3,0.9-1.4,0.5c-0.1-0.4-0.9-0.2-1.1-0.3c-0.2-0.1-0.8,0.1-0.7,0.8
	c0.1,0.6-0.6,1-0.6,1.3c-0.1,0.2-0.4,1-0.2,1.4c0.3,0.4-0.3,1,0,1.7c0.3,0.7,0.1,1.6,0.3,1.8c0.1,0.2,1.3,0.1,1.6,0.8
	c0.2,0.7-1.6,1.9-1.6,2.3c0,0.2,0.1,0.3,0.3,0.5c0.7,0,1.6,0.1,2.4,0.3c1,0.2,6.3-0.6,6.4-0.8c0.1-0.2-0.2-1.4-0.1-1.6
	c0-0.2,0.7-0.8,1.3-0.8c0.6,0,1.1,0.1,1.1-0.3c0-0.4,1.6-0.9,1.7-0.6c0.1,0.4,0.7,0.2,0.8-0.7c0-0.9,0-1.6,0.5-1.7
	c0.6,0,1.1-0.4,1.1-0.7c0-0.3-0.7-0.8-0.5-1c0.2-0.2,1.6,0.5,1.8,0.1c0.2-0.4-0.1-0.9,0.1-1.3c0.2-0.4,0.8-0.8,0.8-1.1
	c0-0.4,0-0.6-0.3-0.9c-0.3-0.3-0.2-0.8,0.2-0.8c0.1,0,0.2,0,0.2-0.1c0.3-0.1,0.6-0.1,0.8-0.3c0.6-0.4,1.7-0.8,2.1-0.6
	c0.4,0.1,1.1,0,1.6-0.5C102.4,141.4,102,141.4,101.8,141.4z"/>
<path class="st0" d="M105.7,144c-0.7-0.4-0.8-1-0.8-1.2c0-0.2-0.8-0.7-1.4-1.2c-0.1,0-0.3,0-0.5,0.1c-0.1-0.1-0.2-0.1-0.3-0.2
	c-0.5,0.5-1.3,0.6-1.6,0.5c-0.4-0.2-1.6,0.2-2.1,0.6c-0.2,0.2-0.5,0.2-0.8,0.3c-0.1,0.1-0.2,0.1-0.2,0.1c-0.4,0-0.6,0.5-0.2,0.8
	c0.3,0.3,0.2,0.6,0.3,0.9c0,0.4-0.5,0.8-0.8,1.1c-0.2,0.4,0,0.8-0.1,1.3c-0.2,0.4-1.6-0.2-1.8-0.1c-0.2,0.2,0.5,0.8,0.5,1
	c0,0.3-0.5,0.6-1.1,0.7c-0.6,0-0.5,0.8-0.5,1.7c0,0.9-0.6,1.1-0.8,0.7c-0.1-0.4-1.7,0.1-1.7,0.6c0,0.4-0.5,0.3-1.1,0.3
	c-0.6,0-1.2,0.5-1.3,0.8c0,0.2,0.2,1.4,0.1,1.6c-0.1,0.2-5.4,1-6.4,0.8c-0.8-0.2-1.7-0.2-2.4-0.3c0.3,0.3,0.6,0.6,0.7,0.9
	c0.2,0.6,0.9,1.1,1.6,1.4c0.8,0.3,0.4,1.6,0.8,1.8c0.4,0.1,0.9,1.1,0.4,1.2c-0.5,0.1-0.9,0.2-1.4,0.4c-0.5,0.3-1.1,0.9-1,1.6
	c0,0.1,0,0.2,0,0.4c1.3,0,2.8,0,3-0.2c0.3-0.3,0.9-0.4,1.2-0.2c0.3,0.2,1.9,0.3,2.6,0c0.8-0.4,1.2,0,1.3,0.4c0,0.4,0.4,0.5,0.7,0.9
	c0.3,0.3,0.1,0.7,0.3,1.1c0.2,0.4,0.7,0.3,1.4,0.6c0.1,0,0.2,0.1,0.3,0.2c0,0,0.1-0.1,0.1-0.1c0.4-0.4,0.4-1.2,1.4-1
	c1,0.2,0.9-0.2,1.5-0.1c0.6,0.1,0.9,0.1,1.2-0.3c0.2-0.4-0.2-1.1-0.6-1.4c-0.3-0.3-0.8-1-0.7-1.6c0.1-0.6-1-0.6-1-1.1
	c0-0.5,1-1.3,1.2-1.5c0.2-0.2,1,0.5,1.2,0.1c0.2-0.4,0.8-0.1,1.1-0.1c0.3,0.1,0.8-0.6,0.9-1.2c0.1-0.6,1.1-0.6,1.3-0.8
	c0.2-0.2,0.5-1.4,0.6-1.7c0.1-0.3,0.9-0.1,0.9-0.8c0-0.7,0.4-0.8,0.8-0.9c0.4-0.1,0.2-0.7,0.3-1.2c0.1-0.5,0.3-1.1,0.8-1.2
	c0.5-0.1-0.2-0.8-0.8-0.7c-0.6,0.1-0.9-1.5-0.9-1.5s0.1-1.3-0.2-1.5c-0.3-0.2,0.1-0.9,0.8-0.9c0.7,0,1.9,0.8,2.4,0.4
	c0.4-0.3,1.3-0.5,1.6-0.6c0.2-0.1,0.5-0.7,0.6-1C106.6,144.5,106.1,144.3,105.7,144z"/>
<path class="st0" d="M138.6,205.7c-0.1,0.2,0.4,1.2,0.8,0.9C139.7,206.4,138.9,205,138.6,205.7z M154,208.6c0-0.4-1.2-0.2-0.8,0.4
	C153.5,209.6,154,209,154,208.6z M136.3,201.7c-0.1,0.5,0.4,1.8,1,1.3C137.8,202.4,136.4,201.2,136.3,201.7z M171.8,209.7
	c0.7,0.1,0.6,1.1,0.5,1.7c-0.1,0.6-0.4,2.1,0.2,1.8c0.8-0.3,1.2-1.2,0.8-1.6c-0.4-0.3-0.4-2.4-0.2-2.9c0.2-0.5,1.5-0.1,1,0.7
	c-0.4,0.8,0.8,0.7,0.8,1.6c0,0.9,0.7,0.4,1.5,0.2c0.8-0.2,0.6-0.7,0.1-1.2c-0.5-0.6,0.4-1.4-0.3-1.8c-0.7-0.5-1.2-1.2-0.5-1.3
	c0.7-0.1,2.6-1.3,2.4-1.7c-0.2-0.5-3,0.1-3.2,0.9c-0.2,0.8-2.2-0.1-2-1.6c0.2-1.5,4.1-1.7,5.3-1.2c1.1,0.5,2.3-0.8,2.8-1.6
	c0.4-0.8-0.9,0.1-1.7,0.7c-0.8,0.5-2.9,0-4-0.4c-1.1-0.4-1,0.7-1.9,0.8c-0.9,0.1-0.7,2.1-1.1,2.3c-0.4,0.2-0.4,1.7-1.3,3.1
	C169.9,209.5,171.1,209.7,171.8,209.7z M150.3,211c0-0.7,0.2-1.3,0.2-1.6c0-0.3,0.2-0.5,0.7-0.4c0.4,0.1,0.4-0.9,0-1
	c-0.3-0.1-0.5-1.3-1.3-1.3c-0.8,0-0.7,0.7-0.2,0.7c0.5,0,0.8,0.4,0.6,0.8c-0.1,0.3-0.3-0.3-1-0.3c-0.7,0-0.2-0.8-1-0.8
	c-0.8,0-0.6-1.4-1.4-1.4c-0.8,0-0.8-0.7-0.3-1.1c0.5-0.5-0.8-0.9-0.8-1.5c0-0.6-0.8-0.2-0.8-0.7c0-0.5-0.4-0.2-0.8-0.8
	c-0.4-0.6-0.6,0-1-0.5c-0.4-0.4-0.9-0.7-1.2-0.5c-0.3,0.1-1.1-0.6-1.4-1.4c-0.2-0.6-2.4-1.6-2.7-2.4c-0.3-0.8-1-1.1-2.3-1.1
	c-1.3,0-1.8-1.2-2.1-0.6c-0.4,0.8,1.4,2.6,2.2,3.1c0.8,0.5,1.2,2.2,2.2,2.3c0.9,0.1,1,3.1,1.7,3.2c0.7,0.1,2.2,2.4,2.4,3.7
	c0.2,1.2,1.8,1.8,2.3,2.7c0.5,0.9,2.6,2.1,2.9,2.5c0.3,0.4,0.6,1.2,0.8,0.8c0.2-0.4,1.2,0,1.7,0C150.2,213.4,150.3,211.6,150.3,211z
	 M186.2,203.4c1,0.1,0.6-0.5,0.6-1.2c0-0.7-0.9-0.1-0.9-0.4c0-0.3-0.3-1.6-1.1-0.6c-0.8,1,0.2,3.6,0.8,3.5
	C186.1,204.6,185.2,203.4,186.2,203.4z M182.3,209.3c0.2,0.8,1.5,1.2,1.9,0.5C184.6,209.2,182.1,208.4,182.3,209.3z M178.6,217.3
	c-1.3-0.2-2.1,0.8-3.4,0.3c-1.3-0.5-3.2,0-3,0.4c0.2,0.4,1.3,0.4,2.6,0.5c1.3,0,2.4-0.7,3.2-0.7C179,217.7,179.9,217.4,178.6,217.3z
	 M188.7,208.7c-1.2-0.4-3.3-0.1-3.1,0.6c0.2,0.6,1.2,0.3,2.2,0.3c1,0,1.5,0.7,2,0.7C190.3,210.3,189.9,209,188.7,208.7z
	 M163.9,216.7c0-0.6-1.9,0-2.8-0.4c-0.9-0.4,1-0.7,1.6-1.1c0.6-0.4-0.4-0.5-1.9,0c-1.5,0.5-3.2-1-3.3-0.4c0,0.7-2.7-0.3-3.4-0.8
	c-0.7-0.5-3.2-1.1-3.7-0.2c-0.5,0.9-1,0.1-0.8,0.9c0.1,0.6,0.8,0.2,1.2,0.2c0.4,0,0.2,0.8,0.8,0.9c0.6,0.1,2.6,0.7,2.8,0.2
	c0.2-0.4,2.1,0,3,0.8c0.9,0.8,3.1,0.8,3.9,0.7c0.8-0.1,1.8,0.6,2.1,0.1c0.3-0.5,0.9,0.8,1.9,0C166.5,217,164,217.3,163.9,216.7z
	 M200.9,206.5c-0.7,0-0.8,1.3-1.4,1.3c-0.6,0-1.5,1.3-2.6,1.6c-1.1,0.4-1.2-3.2-1.7-3.9c-0.5-0.7-3.3-1.3-3.6-0.5
	c-0.3,0.8-1.3,0.4-1.4,1c-0.1,0.6,0.2,0.4,0.8,0.4c0.6,0,0.6,0.5,0.9,1.1c0.3,0.6,2,0.2,2.5,0.1c0.6,0,0.7,0.8-0.1,0.5
	c-0.8-0.3-0.8,0.4-1.4,0.2c-0.6-0.1-1.3-0.1-0.9,0.2c0.4,0.3,1,0.7,1,1.4c0,0.8,1.1,0.6,1.1,0c0-0.6,0.6,0.2,1.6,0.5
	c1.1,0.3,0.3,0.7,1.4,0.8c1.1,0,3.5,0.8,4.5,1.5c0.9,0.7,0.3,1.2,0.9,1.8c0.6,0.7,0.8,1.4,0,1.4c-0.8,0-1.7,0.8-1.5,1.3
	c0.2,0.4,3-0.2,3.7-0.2c0.4,0,0.9,0.8,1.7,1.3v-10C204.3,207.7,201.5,206.5,200.9,206.5z M180.6,218.4c-0.1,0.1-0.3,0.2-0.5,0.2
	c-0.1,0.2-0.1,0.4-0.2,0.5c-0.1,0.1-0.4-0.1-0.5-0.3c-0.9,0.4-1.4,1.5-0.8,1.8c0.6,0.3,1.5-0.5,2-1.1c0.1-0.1,0.2-0.2,0.2-0.3
	c0,0,0.1-0.1,0.2-0.1c0,0,0.1-0.1,0.2-0.1C180.9,218.7,180.7,218.5,180.6,218.4z M167.5,206.3c0.8-0.5,1-1.5,0.9-2.4
	c-0.1-0.9,2.1-1,2.4-1.4c0.3-0.4-0.5-1-1.1-1.3c-0.6-0.3-0.1-0.9-0.5-1.3c-0.4-0.4-1.1-1.4-0.5-1.4c0.6,0-0.4-0.9,0.1-1.2
	c0.1,0,0.2-0.1,0.2-0.1c-0.3-0.2-0.6-0.3-0.8-0.3c-0.8,0-2.5-0.2-2.4,1c0.1,1.2-1,0.8-0.9,1.4c0.1,0.7-0.6,0.7-0.5,1.5
	c0.1,0.8-0.5,0.5-1.4,0.9c-0.9,0.5-0.6-0.3-1.5-0.3c-0.9,0-1,0.5-1.6,0.7c-0.6,0.2-1.7-0.1-2.1,0.2c-0.4,0.3-0.9-0.7-1.3-0.7
	c-0.2,0-0.4-0.5-0.5-1c-0.1,0-0.1,0-0.2,0c-0.6,0-1.6,1.7-1,2.2c0.7,0.7,0.5,1.7,0.8,2.2c0.3,0.5,1.4,0.6,1.4,1.6
	c0,1,0.9,2.5,1.5,2.1c0.6-0.4,1.1,0.2,1.3,0.6c0.2,0.4,1.6-0.3,2.1-0.2c0.5,0.1,1.9,0.4,2,0.9c0.1,0.6,1.4,0,2.3-0.4
	C167.2,209.5,166.6,206.8,167.5,206.3z M171,219.5c0.3,0.4,1.1,0.4,1.4,0.7c0.3,0.3,1.5,0.9,1.5,0.1S170.7,219,171,219.5z
	 M168.7,217.2c-0.2,0.4-1,0.5-1.5,0.2c-0.5-0.3-1.1,0.4-0.8,0.8c0.1,0.2,1.1,0.9,2.3,0.4c1.2-0.6,2,0,2.3-0.7
	C171.3,217.3,168.9,216.7,168.7,217.2z"/>
<path class="st0" d="M179.8,218.7c-0.2,0-0.4,0.1-0.5,0.1c0.2,0.2,0.4,0.4,0.5,0.3c0.1-0.1,0.2-0.3,0.2-0.5
	C180,218.6,179.9,218.7,179.8,218.7C179.8,218.7,179.8,218.7,179.8,218.7z M182.1,217.4c-0.6,0-0.9,0.5-1.4,0.9c0,0-0.1,0.1-0.1,0.1
	c0.2,0.1,0.4,0.3,0.5,0.5c0.9-0.5,3.2-1.2,3.3-1.5C184.5,217,183,217.5,182.1,217.4z"/>
<path class="st0" d="M83.8,159c-0.4-0.1,0-1.4-0.8-1.8c-0.8-0.3-1.4-0.8-1.6-1.4c-0.2-0.5-1.1-1-1.1-1.4c0.1-0.4,1.9-1.6,1.6-2.3
	c-0.2-0.7-1.4-0.6-1.6-0.8c-0.1-0.3,0.1-1.1-0.3-1.8c-0.3-0.7,0.3-1.3,0-1.7c-0.2-0.4,0.1-1.1,0.2-1.4c0.1-0.2,0.7-0.6,0.6-1.3
	c0-0.4,0.2-0.6,0.4-0.7c-0.2-0.6-0.3-1.7-0.3-1.9c0-0.2-0.8-0.2-1.1-0.2c-0.4,0-0.7-0.9-1.1-0.9c-0.4,0-0.7-0.3-0.7-0.6
	c0-0.3-0.9-0.5-1.4-0.4c-0.5,0-0.6-0.4-0.8-0.4c-0.2,0-0.9-0.2-1.2-0.5c-0.2-0.3-1.6-0.4-1.8,0c-0.2,0.3-0.7,0.1-1.1,0.1
	c-0.4,0-1.2,0.7-1.4,1c-0.1,0.2-0.8,0.2-1.3,0.2c0,0.4,0,0.7,0,0.8c-0.2,0.4-2.1,0.7-3.4,0.8c-1.4,0-1.5-1.7-2.9-1.7
	c-1.1,0-1.9-1-1.9-1.9c-0.6-0.2-1.2-0.6-1.1-0.8c0.1-0.3,0.4-1.8-0.3-1.4c-0.8,0.4-1.8,1.6-3.2,1.4c-1.4-0.2-0.4-0.3-1.1-0.6
	c-0.7-0.3-0.2-1.1-0.9-1.2c-0.7-0.1-0.2,0.8-0.6,0.8c-0.4,0-0.1,1.1,0.1,1.3s-0.2,1.6,0,1.7c0.3,0.1,0.8,1.1,0.8,1.3
	c-0.1,0.2,0.6,0.8,0.6,1.3c0,0.4,0.6,0.9,0.9,0.9c0.3,0,0.8,0.2,0.6,0.6c-0.1,0.4,0.2,0.9-0.2,0.9c-0.4,0-0.3,1.1-0.6,1.3
	c-0.3,0.2-0.1,1.3,0.2,1.4c0.3,0.1,0.8,0.4,0.8,0.9c-0.1,0.4,1.3,1.1,1.8,1.2c0.4,0.1,0.5,0.7,0.8,0.9s-0.2,0.8-0.1,1.1
	c0.1,0.3,0.6,0.6,0.6,1.1c0,0.3,0.5,0.8,0.9,1.2c0.1,0,0.3-0.1,0.4-0.1c0.4,0,0.4-0.5,0.7-0.2c0.3,0.3,0.8,0,1.1,0
	c0.3,0,1.2,1.7,1.6,2.5c0.4,0.8,0.4,1.1,0.9,1.5c0.5,0.4,1.2,0.2,1.9,1c0.8,0.8,2.8,1.3,3.6,1.4c0.8,0,1.5-0.9,2.6-0.7
	c1.1,0.2,0.8,1.6,1.2,2.1c0.4,0.5,4.8,0.8,5.5,1c0.3,0.1,0.9,0.1,1.7,0.1c0-0.2,0-0.3,0-0.4c-0.1-0.8,0.5-1.4,1-1.6
	c0.5-0.3,0.9-0.4,1.4-0.4C84.6,160.1,84.1,159.1,83.8,159z"/>
</svg>
